{
.appVersion = "1357";
classes = (
{
automatic = 1;
code = "questiondown.cap endash.cap emdash.cap periodcentered.cap exclamdown.cap parenleft.cap parenright.cap bracketleft.cap bracketright.cap braceleft.cap braceright.cap";
name = cap;
},
{
automatic = 1;
code = "A B C D E F G H I J K L M N O P Q R S T U V W X Y Z Agrave Aacute Acircumflex Atilde Adieresis Amacron Abreve Aring Aringacute Aogonek AE AEacute Cacute Ccircumflex Ccaron Cdotaccent Ccedilla Dcaron Dcroat Egrave Eacute Ecircumflex Ecaron Edieresis Emacron Ebreve Edotaccent Eogonek Gcircumflex Gbreve Gdotaccent Gcommaaccent Hcircumflex Hbar Igrave Iacute Icircumflex Itilde Idieresis Imacron Ibreve Idotaccent Iogonek Jcircumflex Kcommaaccent Lacute Lcaron Lcommaaccent Lslash Nacute Ncaron Ntilde Ncommaaccent Ograve Oacute Ocircumflex Otilde Odieresis Omacron Obreve Ohungarumlaut Oslash Oslashacute OE Racute Rcaron Rcommaaccent Sacute Scircumflex Scaron Scedilla Scommaaccent Tcaron Tcommaaccent Tbar Ugrave Uacute Ucircumflex Utilde Udieresis Umacron Ubreve Uring Uhungarumlaut Uogonek Wgrave Wacute Wcircumflex Wdieresis Ygrave Yacute Ycircumflex Ydieresis Zacute Zcaron Zdotaccent Eng Eth Thorn endash.cap emdash.cap periodcentered.cap parenleft.cap parenright.cap bracketleft.cap bracketright.cap braceleft.cap braceright.cap at.cap";
name = caps;
},
{
automatic = 1;
code = "questiondown endash emdash periodcentered exclamdown parenleft parenright bracketleft bracketright braceleft braceright";
name = cap_0;
},
{
automatic = 1;
code = "zerosuperior onesuperior twosuperior threesuperior foursuperior fivesuperior sixsuperior sevensuperior eightsuperior ninesuperior";
name = frac1;
},
{
automatic = 1;
code = "slash fraction perthousand onehalf onequarter threequarters threequarters zeroinferior oneinferior twoinferior threeinferior fourinferior fiveinferior sixinferior seveninferior eightinferior nineinferior";
name = frac2;
},
{
automatic = 1;

glyphs = (
{
color = 5;
glyphname = A;
layers = (
{
layerId = "459CA063-FA7D-4205-A795-7B6CE244EAAB";
paths = (
{
closed = 1;
nodes = (
"64 0 LINE",
"129 215 LINE",
"463 215 LINE",
"528 0 LINE",
"564 0 LINE",
"349 700 LINE",
"243 700 LINE",
"28 0 LINE"
);
},
{
closed = 1;
nodes = (
"268 666 LINE",
"324 666 LINE",
"452 249 LINE",
"140 249 LINE"
);
}
);
width = 592;
},
{
layerId = "EA657207-4E15-4023-BA2A-6FA5407A60CD";
paths = (
{
closed = 1;
nodes = (
"223 0 LINE",
"239 77 LINE",
"392 77 LINE",
"411 0 LINE",
"645 0 LINE",
"494 670 LINE",
"143 670 LINE",
"-5 0 LINE"
);
},
{
closed = 1;
nodes = (
"307 488 LINE",
"332 488 LINE",
"368 254 LINE",
"269 254 LINE"
);
}
);
width = 639;
},
{
layerId = "5E4DD32C-6BC9-4010-93B4-D8C61BED16DC";
paths = (
{
closed = 1;
nodes = (
"103 0 LINE",
"152 175 LINE",
"444 175 LINE",
"493 0 LINE",
"573 0 LINE",
"385 691 LINE",
"212 691 LINE",
"23 0 LINE"
);
},
{
closed = 1;
nodes = (
"272 623 LINE",
"324 623 LINE",
"427 246 LINE",
"169 246 LINE"
);
}
);
width = 596;
},
{
layerId = "0DA49D7F-B466-4A74-9166-6D7870CD51D2";
paths = (
{
closed = 1;
nodes = (
"177 0 LINE",
"208 77 LINE",
"361 77 LINE",
"365 0 LINE",
"596 0 LINE",
"576 670 LINE",
"225 670 LINE",
"-54 0 LINE"
);
},
{
closed = 1;
nodes = (
"356 488 LINE",
"381 488 LINE",
"371 254 LINE",
"272 254 LINE"
);
}
);
width = 639;
},
{
layerId = "3B241295-E7D1-482F-A49F-5B690F967CBA";
paths = (
{
closed = 1;
nodes = (
"55 0 LINE",
"138 175 LINE",
"430 175 LINE",
"445 0 LINE",
"524 0 LINE",
"471 691 LINE",
"297 691 LINE",
"-26 0 LINE"
);
},
{
closed = 1;
nodes = (
"346 623 LINE",
"398 623 LINE",
"427 246 LINE",
"169 246 LINE"
);
}
);
width = 596;
},
{
layerId = "0474999B-FB68-4D9A-82B1-2286F2372C1D";
paths = (
{
closed = 1;
nodes = (
"16 0 LINE",
"123 215 LINE",
"457 215 LINE",
"480 0 LINE",
"515 0 LINE",
"437 700 LINE",
"331 700 LINE",
"-21 0 LINE"
);
},
{
closed = 1;
nodes = (
"350 666 LINE",
"406 666 LINE",
"453 249 LINE",
"141 249 LINE"
);
}
);
width = 592;
},
{
layerId = "0E0E1207-0B3B-41BA-8E0C-9BB926F33A45";
paths = (
{
closed = 1;
nodes = (
"269 0 LINE",
"270 77 LINE",
"423 77 LINE",
"457 0 LINE",
"694 0 LINE",
"412 670 LINE",
"61 670 LINE",
"44 0 LINE"
);
},
{
closed = 1;
nodes = (
"258 488 LINE",
"283 488 LINE",
"365 254 LINE",
"266 254 LINE"
);
}
);
width = 639;
},
{
layerId = "FB927515-0B4B-4E0F-9AFE-1C9AB9ADFFED";
paths = (
{
closed = 1;
nodes = (
"151 0 LINE",
"166 175 LINE",
"458 175 LINE",
"541 0 LINE",
"622 0 LINE",
"300 691 LINE",
"127 691 LINE",
"72 0 LINE"
);
},
{
closed = 1;
nodes = (
"198 623 LINE",
"250 623 LINE",
"427 246 LINE",
"169 246 LINE"
);
}
);
width = 596;
},
{
layerId = "9F9B1D74-FF57-4B2A-AEB5-D743B154EFB7";
paths = (
{
closed = 1;
nodes = (
"109 0 LINE",
"132 215 LINE",
"466 215 LINE",
"573 0 LINE",
"610 0 LINE",
"258 700 LINE",
"152 700 LINE",
"74 0 LINE"
);
},
{
closed = 1;
nodes = (
"183 666 LINE",
"239 666 LINE",
"448 249 LINE",
"136 249 LINE"
);
}
);
width = 586;
}
);
leftKerningGroup = A;
rightKerningGroup = A;
unicode = 0041;
},
{
color = 5;
glyphname = AE;
layers = (
{
layerId = "459CA063-FA7D-4205-A795-7B6CE244EAAB";
paths = (
{
closed = 1;
nodes = (
"65 0 LINE",
"143 215 LINE",
"419 215 LINE",
"419 0 LINE",
"828 0 LINE",
"828 34 LINE",
"455 34 LINE",
"455 344 LINE",
"768 344 LINE",
"768 378 LINE",
"455 378 LINE",
"455 666 LINE",
"828 666 LINE",
"828 700 LINE",
"276 700 LINE",
"25 0 LINE"
);
},
{
closed = 1;
nodes = (
"304 666 LINE",
"419 666 LINE",
"419 249 LINE",
"155 249 LINE"
);
}
);
width = 879;
},
{
layerId = "EA657207-4E15-4023-BA2A-6FA5407A60CD";
paths = (
{
closed = 1;
nodes = (
"223 0 LINE",
"239 77 LINE",
"366 77 LINE",
"366 0 LINE",
"865 0 LINE",
"865 185 LINE",
"592 185 LINE",
"592 248 LINE",
"805 248 LINE",
"805 425 LINE",
"592 425 LINE",
"592 485 LINE",
"865 485 LINE",
"865 670 LINE",
"143 670 LINE",
"-5 0 LINE"
);
},
{
closed = 1;
nodes = (
"307 485 LINE",
"366 485 LINE",
"366 256 LINE",
"270 256 LINE"
);
}
);
width = 882;
},
{
layerId = "5E4DD32C-6BC9-4010-93B4-D8C61BED16DC";
paths = (
{
closed = 1;
nodes = (
"102 0 LINE",
"159 172 LINE",
"407 172 LINE",
"407 0 LINE",
"829 0 LINE",
"829 76 LINE",
"486 76 LINE",
"486 318 LINE",
"769 318 LINE",
"769 394 LINE",
"486 394 LINE",
"486 619 LINE",
"829 619 LINE",
"829 696 LINE",
"241 696 LINE",
"19 0 LINE"
);
},
{
closed = 1;
nodes = (
"299 619 LINE",
"408 619 LINE",
"407 249 LINE",
"180 249 LINE"
);
}
);
width = 875.54902;
},
{
layerId = "0DA49D7F-B466-4A74-9166-6D7870CD51D2";
paths = (
{
closed = 1;
nodes = (
"226 0 LINE",
"257 77 LINE",
"383 77 LINE",
"368 0 LINE",
"867 0 LINE",
"903 185 LINE",
"630 185 LINE",
"642 248 LINE",
"855 248 LINE",
"889 425 LINE",
"676 425 LINE",
"688 485 LINE",
"961 485 LINE",
"997 670 LINE",
"274 670 LINE",
"-5 0 LINE"
);
},
{
closed = 1;
nodes = (
"404 485 LINE",
"462 485 LINE",
"418 256 LINE",
"323 256 LINE"
);
}
);
width = 884;
},
{
layerId = "3B241295-E7D1-482F-A49F-5B690F967CBA";
paths = (
{
closed = 1;
nodes = (
"104 0 LINE",
"194 172 LINE",
"441 172 LINE",
"408 0 LINE",
"830 0 LINE",
"845 76 LINE",
"502 76 LINE",
"549 318 LINE",
"832 318 LINE",
"846 394 LINE",
"563 394 LINE",
"607 619 LINE",
"950 619 LINE",
"965 696 LINE",
"376 696 LINE",
"19 0 LINE"
);
},
{
closed = 1;
nodes = (
"421 619 LINE",
"529 619 LINE",
"456 249 LINE",
"230 249 LINE"
);
}
);
width = 877;
},
{
layerId = "0474999B-FB68-4D9A-82B1-2286F2372C1D";
paths = (
{
closed = 1;
nodes = (
"17 0 LINE",
"137 215 LINE",
"413 215 LINE",
"371 0 LINE",
"780 0 LINE",
"786 34 LINE",
"413 34 LINE",
"474 344 LINE",
"787 344 LINE",
"793 378 LINE",
"480 378 LINE",
"536 666 LINE",
"909 666 LINE",
"916 700 LINE",
"364 700 LINE",
"-24 0 LINE"
);
},
{
closed = 1;
nodes = (
"386 666 LINE",
"500 666 LINE",
"419 249 LINE",
"156 249 LINE"
);
}
);
width = 880;
},
{
layerId = "0E0E1207-0B3B-41BA-8E0C-9BB926F33A45";
paths = (
{
closed = 1;
nodes = (
"279 0 LINE",
"280 77 LINE",
"408 77 LINE",
"423 0 LINE",
"922 0 LINE",
"886 185 LINE",
"613 185 LINE",
"601 248 LINE",
"814 248 LINE",
"780 425 LINE",
"567 425 LINE",
"555 485 LINE",
"828 485 LINE",
"792 670 LINE",
"71 670 LINE",
"54 0 LINE"
);
},
{
closed = 1;
nodes = (
"269 485 LINE",
"329 485 LINE",
"373 256 LINE",
"276 256 LINE"
);
}
);
width = 882;
},
{
layerId = "FB927515-0B4B-4E0F-9AFE-1C9AB9ADFFED";
paths = (
{
closed = 1;
nodes = (
"158 0 LINE",
"182 172 LINE",
"431 172 LINE",
"464 0 LINE",
"886 0 LINE",
"871 76 LINE",
"528 76 LINE",
"481 318 LINE",
"764 318 LINE",
"750 394 LINE",
"467 394 LINE",
"423 619 LINE",
"766 619 LINE",
"751 696 LINE",
"164 696 LINE",
"77 0 LINE"
);
},
{
closed = 1;
nodes = (
"235 619 LINE",
"345 619 LINE",
"416 249 LINE",
"188 249 LINE"
);
}
);
width = 876;
},
{
layerId = "9F9B1D74-FF57-4B2A-AEB5-D743B154EFB7";
paths = (
{
closed = 1;
nodes = (
"132 0 LINE",
"168 215 LINE",
"444 215 LINE",
"486 0 LINE",
"895 0 LINE",
"889 34 LINE",
"516 34 LINE",
"455 344 LINE",
"768 344 LINE",
"762 378 LINE",
"449 378 LINE",
"393 666 LINE",
"766 666 LINE",
"759 700 LINE",
"207 700 LINE",
"93 0 LINE"
);
},
{
closed = 1;
nodes = (
"241 666 LINE",
"357 666 LINE",
"438 249 LINE",
"173 249 LINE"
);
}
);
width = 879;
}
);
rightKerningGroup = E;
unicode = 00C6;
userData = {
com.typemytype.robofont.guides = (
{
angle = 0;
isGlobal = 0;
magnetic = 5;
x = 0;
y = 558;
}
);
};
},
{
color = 5;
glyphname = B;
layers = (
{
layerId = "459CA063-FA7D-4205-A795-7B6CE244EAAB";
paths = (
{
closed = 1;
nodes = (
"351 0 LINE SMOOTH",
"477 0 OFFCURVE",
"561 41 OFFCURVE",
"561 193 CURVE SMOOTH",
"561 301 OFFCURVE",
"499 344 OFFCURVE",
"437 361 CURVE",
"494 382 OFFCURVE",
"534 428 OFFCURVE",
"534 527 CURVE SMOOTH",
"534 645 OFFCURVE",
"466 700 OFFCURVE",
"332 700 CURVE SMOOTH",
"92 700 LINE",
"92 0 LINE"
);
},
{
closed = 1;
nodes = (
"128 341 LINE",
"343 341 LINE SMOOTH",
"394 341 OFFCURVE",
"524 335 OFFCURVE",
"524 193 CURVE SMOOTH",
"524 69 OFFCURVE",
"453 34 OFFCURVE",
"351 34 CURVE SMOOTH",
"128 34 LINE"
);
},
{
closed = 1;
nodes = (
"128 666 LINE",
"332 666 LINE SMOOTH",
"444 666 OFFCURVE",
"497 624 OFFCURVE",
"497 527 CURVE SMOOTH",
"497 425 OFFCURVE",
"452 375 OFFCURVE",
"343 375 CURVE SMOOTH",
"128 375 LINE"
);
}
);
width = 620;
},
{
layerId = "EA657207-4E15-4023-BA2A-6FA5407A60CD";
paths = (
{
closed = 1;
nodes = (
"337 0 LINE SMOOTH",
"473 0 OFFCURVE",
"595 39 OFFCURVE",
"595 190 CURVE SMOOTH",
"595 288 OFFCURVE",
"571 316 OFFCURVE",
"509 343 CURVE",
"568 385 OFFCURVE",
"578 424 OFFCURVE",
"578 504 CURVE SMOOTH",
"578 632 OFFCURVE",
"469 670 OFFCURVE",
"333 670 CURVE SMOOTH",
"30 670 LINE",
"30 0 LINE"
);
},
{
closed = 1;
nodes = (
"262 265 LINE",
"316 265 LINE SMOOTH",
"361 265 OFFCURVE",
"375 251 OFFCURVE",
"375 211 CURVE SMOOTH",
"375 166 OFFCURVE",
"362 155 OFFCURVE",
"316 155 CURVE SMOOTH",
"262 155 LINE"
);
},
{
closed = 1;
nodes = (
"262 517 LINE",
"313 517 LINE SMOOTH",
"351 517 OFFCURVE",
"368 503 OFFCURVE",
"368 466 CURVE SMOOTH",
"368 427 OFFCURVE",
"354 410 OFFCURVE",
"314 410 CURVE SMOOTH",
"262 410 LINE"
);
}
);
width = 607;
},
{
layerId = "5E4DD32C-6BC9-4010-93B4-D8C61BED16DC";
paths = (
{
closed = 1;
nodes = (
"348 0 LINE SMOOTH",
"479 0 OFFCURVE",
"563 49 OFFCURVE",
"563 194 CURVE SMOOTH",
"563 293 OFFCURVE",
"515 336 OFFCURVE",
"455 356 CURVE",
"510 383 OFFCURVE",
"542 426 OFFCURVE",
"542 515 CURVE SMOOTH",
"542 639 OFFCURVE",
"471 691 OFFCURVE",
"336 691 CURVE SMOOTH",
"84 691 LINE",
"84 0 LINE"
);
},
{
closed = 1;
nodes = (
"164 316 LINE",
"341 316 LINE SMOOTH",
"394 316 OFFCURVE",
"482 302 OFFCURVE",
"482 197 CURVE SMOOTH",
"482 97 OFFCURVE",
"428 70 OFFCURVE",
"345 70 CURVE SMOOTH",
"164 70 LINE"
);
},
{
closed = 1;
nodes = (
"164 621 LINE",
"333 621 LINE SMOOTH",
"419 621 OFFCURVE",
"461 587 OFFCURVE",
"461 508 CURVE SMOOTH",
"461 426 OFFCURVE",
"425 386 OFFCURVE",
"340 386 CURVE SMOOTH",
"164 386 LINE"
);
}
);
width = 615.2549;
},
{
layerId = "0DA49D7F-B466-4A74-9166-6D7870CD51D2";
paths = (
{
closed = 1;
nodes = (
"296 0 LINE SMOOTH",
"475 0 OFFCURVE",
"588 60 OFFCURVE",
"588 239 CURVE SMOOTH",
"588 295 OFFCURVE",
"564 318 OFFCURVE",
"525 335 CURVE",
"615 390 OFFCURVE",
"628 466 OFFCURVE",
"628 527 CURVE SMOOTH",
"628 632 OFFCURVE",
"530 670 OFFCURVE",
"408 670 CURVE SMOOTH",
"112 670 LINE",
"-18 0 LINE"
);
},
{
closed = 1;
nodes = (
"265 265 LINE",
"326 265 LINE SMOOTH",
"362 265 OFFCURVE",
"373 262 OFFCURVE",
"373 244 CURVE SMOOTH",
"373 218 OFFCURVE",
"363 155 OFFCURVE",
"291 155 CURVE SMOOTH",
"244 155 LINE"
);
},
{
closed = 1;
nodes = (
"314 517 LINE",
"372 517 LINE SMOOTH",
"404 517 OFFCURVE",
"415 514 OFFCURVE",
"415 495 CURVE SMOOTH",
"415 475 OFFCURVE",
"401 410 OFFCURVE",
"339 410 CURVE SMOOTH",
"294 410 LINE"
);
}
);
width = 609;
},
{
layerId = "3B241295-E7D1-482F-A49F-5B690F967CBA";
paths = (
{
closed = 1;
nodes = (
"302 0 LINE SMOOTH",
"472 0 OFFCURVE",
"556 93 OFFCURVE",
"556 236 CURVE SMOOTH",
"556 305 OFFCURVE",
"520 338 OFFCURVE",
"475 354 CURVE",
"568 395 OFFCURVE",
"598 478 OFFCURVE",
"598 558 CURVE SMOOTH",
"598 650 OFFCURVE",
"536 691 OFFCURVE",
"420 691 CURVE SMOOTH",
"170 691 LINE",
"36 0 LINE"
);
},
{
closed = 1;
nodes = (
"177 316 LINE",
"357 316 LINE SMOOTH",
"404 316 OFFCURVE",
"476 307 OFFCURVE",
"476 232 CURVE SMOOTH",
"476 137 OFFCURVE",
"419 70 OFFCURVE",
"308 70 CURVE SMOOTH",
"129 70 LINE"
);
},
{
closed = 1;
nodes = (
"237 621 LINE",
"408 621 LINE SMOOTH",
"481 621 OFFCURVE",
"516 599 OFFCURVE",
"516 546 CURVE SMOOTH",
"516 470 OFFCURVE",
"475 386 OFFCURVE",
"364 386 CURVE SMOOTH",
"191 386 LINE"
);
}
);
width = 617;
},
{
layerId = "0474999B-FB68-4D9A-82B1-2286F2372C1D";
paths = (
{
closed = 1;
nodes = (
"303 0 LINE SMOOTH",
"468 0 OFFCURVE",
"554 89 OFFCURVE",
"554 235 CURVE SMOOTH",
"554 312 OFFCURVE",
"507 346 OFFCURVE",
"458 360 CURVE",
"552 393 OFFCURVE",
"592 484 OFFCURVE",
"592 571 CURVE SMOOTH",
"592 659 OFFCURVE",
"533 700 OFFCURVE",
"418 700 CURVE SMOOTH",
"179 700 LINE",
"43 0 LINE"
);
},
{
closed = 1;
nodes = (
"145 341 LINE",
"361 341 LINE SMOOTH",
"407 341 OFFCURVE",
"517 337 OFFCURVE",
"517 232 CURVE SMOOTH",
"517 114 OFFCURVE",
"444 34 OFFCURVE",
"307 34 CURVE SMOOTH",
"85 34 LINE"
);
},
{
closed = 1;
nodes = (
"208 666 LINE",
"413 666 LINE SMOOTH",
"509 666 OFFCURVE",
"555 636 OFFCURVE",
"555 568 CURVE SMOOTH",
"555 474 OFFCURVE",
"506 375 OFFCURVE",
"365 375 CURVE SMOOTH",
"152 375 LINE"
);
}
);
width = 620;
},
{
layerId = "0E0E1207-0B3B-41BA-8E0C-9BB926F33A45";
paths = (
{
closed = 1;
nodes = (
"379 0 LINE SMOOTH",
"515 0 OFFCURVE",
"635 48 OFFCURVE",
"604 207 CURVE SMOOTH",
"587 297 OFFCURVE",
"564 319 OFFCURVE",
"491 352 CURVE",
"536 390 OFFCURVE",
"543 433 OFFCURVE",
"526 521 CURVE SMOOTH",
"503 641 OFFCURVE",
"395 670 OFFCURVE",
"259 670 CURVE SMOOTH",
"-51 670 LINE",
"79 0 LINE"
);
},
{
closed = 1;
nodes = (
"260 265 LINE",
"307 265 LINE SMOOTH",
"352 265 OFFCURVE",
"377 242 OFFCURVE",
"387 194 CURVE SMOOTH",
"394 157 OFFCURVE",
"388 155 OFFCURVE",
"342 155 CURVE SMOOTH",
"281 155 LINE"
);
},
{
closed = 1;
nodes = (
"211 517 LINE",
"255 517 LINE SMOOTH",
"293 517 OFFCURVE",
"321 494 OFFCURVE",
"330 449 CURVE SMOOTH",
"336 418 OFFCURVE",
"330 410 OFFCURVE",
"290 410 CURVE SMOOTH",
"231 410 LINE"
);
}
);
width = 608;
},
{
layerId = "FB927515-0B4B-4E0F-9AFE-1C9AB9ADFFED";
paths = (
{
closed = 1;
nodes = (
"395 0 LINE SMOOTH",
"526 0 OFFCURVE",
"602 52 OFFCURVE",
"573 200 CURVE SMOOTH",
"555 296 OFFCURVE",
"501 337 OFFCURVE",
"435 358 CURVE",
"482 384 OFFCURVE",
"508 429 OFFCURVE",
"490 521 CURVE SMOOTH",
"466 642 OFFCURVE",
"388 691 OFFCURVE",
"253 691 CURVE SMOOTH",
"-1 691 LINE",
"133 0 LINE"
);
},
{
closed = 1;
nodes = (
"152 316 LINE",
"326 316 LINE SMOOTH",
"379 316 OFFCURVE",
"473 299 OFFCURVE",
"494 191 CURVE SMOOTH",
"513 94 OFFCURVE",
"466 70 OFFCURVE",
"383 70 CURVE SMOOTH",
"200 70 LINE"
);
},
{
closed = 1;
nodes = (
"92 621 LINE",
"259 621 LINE SMOOTH",
"345 621 OFFCURVE",
"397 584 OFFCURVE",
"413 502 CURVE SMOOTH",
"428 423 OFFCURVE",
"402 386 OFFCURVE",
"317 386 CURVE SMOOTH",
"138 386 LINE"
);
}
);
width = 617;
},
{
layerId = "9F9B1D74-FF57-4B2A-AEB5-D743B154EFB7";
paths = (
{
closed = 1;
nodes = (
"399 0 LINE SMOOTH",
"525 0 OFFCURVE",
"602 42 OFFCURVE",
"572 196 CURVE SMOOTH",
"551 302 OFFCURVE",
"482 344 OFFCURVE",
"416 362 CURVE",
"468 382 OFFCURVE",
"500 429 OFFCURVE",
"480 530 CURVE SMOOTH",
"458 646 OFFCURVE",
"380 700 OFFCURVE",
"246 700 CURVE SMOOTH",
"5 700 LINE",
"141 0 LINE"
);
},
{
closed = 1;
nodes = (
"111 341 LINE",
"325 341 LINE SMOOTH",
"376 341 OFFCURVE",
"508 334 OFFCURVE",
"536 190 CURVE SMOOTH",
"560 68 OFFCURVE",
"497 34 OFFCURVE",
"395 34 CURVE SMOOTH",
"171 34 LINE"
);
},
{
closed = 1;
nodes = (
"48 666 LINE",
"251 666 LINE SMOOTH",
"363 666 OFFCURVE",
"425 623 OFFCURVE",
"444 524 CURVE SMOOTH",
"464 424 OFFCURVE",
"430 375 OFFCURVE",
"321 375 CURVE SMOOTH",
"104 375 LINE"
);
}
);
width = 621;
}
);
leftKerningGroup = I;
unicode = 0042;
},
{
color = 5;
glyphname = C;
layers = (
{
layerId = "459CA063-FA7D-4205-A795-7B6CE244EAAB";
paths = (
{
closed = 1;
nodes = (
"384 -9 OFFCURVE",
"451 1 OFFCURVE",
"501 11 CURVE",
"498 45 LINE",
"446 35 OFFCURVE",
"379 25 OFFCURVE",
"316 25 CURVE SMOOTH",
"132 25 OFFCURVE",
"105 147 OFFCURVE",
"105 347 CURVE SMOOTH",
"105 546 OFFCURVE",
"128 675 OFFCURVE",
"316 675 CURVE SMOOTH",
"376 675 OFFCURVE",
"455 664 OFFCURVE",
"498 655 CURVE",
"501 690 LINE",
"455 699 OFFCURVE",
"386 709 OFFCURVE",
"316 709 CURVE SMOOTH",
"103 709 OFFCURVE",
"67 565 OFFCURVE",
"67 347 CURVE SMOOTH",
"67 125 OFFCURVE",
"110 -9 OFFCURVE",
"316 -9 CURVE SMOOTH"
);
}
);
width = 545;
},
{
layerId = "EA657207-4E15-4023-BA2A-6FA5407A60CD";
paths = (
{
closed = 1;
nodes = (
"384 -13 OFFCURVE",
"473 2 OFFCURVE",
"519 13 CURVE",
"516 189 LINE",
"479 186 OFFCURVE",
"412 183 OFFCURVE",
"360 183 CURVE SMOOTH",
"272 183 OFFCURVE",
"252 202 OFFCURVE",
"252 337 CURVE SMOOTH",
"252 469 OFFCURVE",
"271 487 OFFCURVE",
"360 487 CURVE SMOOTH",
"412 487 OFFCURVE",
"478 481 OFFCURVE",
"513 477 CURVE",
"519 656 LINE",
"463 668 OFFCURVE",
"369 683 OFFCURVE",
"314 683 CURVE SMOOTH",
"82 683 OFFCURVE",
"18 601 OFFCURVE",
"18 337 CURVE SMOOTH",
"18 65 OFFCURVE",
"84 -13 OFFCURVE",
"304 -13 CURVE SMOOTH"
);
}
);
width = 533;
},
{
layerId = "5E4DD32C-6BC9-4010-93B4-D8C61BED16DC";
paths = (
{
closed = 1;
nodes = (
"378 -10 OFFCURVE",
"454 1 OFFCURVE",
"503 11 CURVE",
"500 79 LINE",
"453 71 OFFCURVE",
"378 62 OFFCURVE",
"322 62 CURVE SMOOTH",
"167 62 OFFCURVE",
"141 151 OFFCURVE",
"141 344 CURVE SMOOTH",
"141 540 OFFCURVE",
"169 630 OFFCURVE",
"321 630 CURVE SMOOTH",
"374 630 OFFCURVE",
"455 620 OFFCURVE",
"500 612 CURVE",
"503 679 LINE",
"459 689 OFFCURVE",
"383 702 OFFCURVE",
"312 702 CURVE SMOOTH",
"104 702 OFFCURVE",
"58 579 OFFCURVE",
"58 344 CURVE SMOOTH",
"58 115 OFFCURVE",
"104 -10 OFFCURVE",
"312 -10 CURVE SMOOTH"
);
}
);
width = 544.13725;
},
{
layerId = "0DA49D7F-B466-4A74-9166-6D7870CD51D2";
paths = (
{
closed = 1;
nodes = (
"339 -13 OFFCURVE",
"430 0 OFFCURVE",
"479 11 CURVE",
"496 190 LINE",
"459 187 OFFCURVE",
"392 183 OFFCURVE",
"333 183 CURVE SMOOTH",
"252 183 OFFCURVE",
"240 193 OFFCURVE",
"265 320 CURVE SMOOTH",
"292 460 OFFCURVE",
"323 487 OFFCURVE",
"419 487 CURVE SMOOTH",
"464 487 OFFCURVE",
"529 482 OFFCURVE",
"564 478 CURVE",
"590 654 LINE",
"537 666 OFFCURVE",
"446 683 OFFCURVE",
"384 683 CURVE SMOOTH",
"159 683 OFFCURVE",
"87 610 OFFCURVE",
"38 354 CURVE SMOOTH",
"-17 74 OFFCURVE",
"39 -13 OFFCURVE",
"266 -13 CURVE SMOOTH"
);
}
);
width = 539;
},
{
layerId = "3B241295-E7D1-482F-A49F-5B690F967CBA";
paths = (
{
closed = 1;
nodes = (
"329 -10 OFFCURVE",
"407 0 OFFCURVE",
"458 10 CURVE",
"464 80 LINE",
"415 72 OFFCURVE",
"338 62 OFFCURVE",
"280 62 CURVE SMOOTH",
"127 62 OFFCURVE",
"121 148 OFFCURVE",
"157 338 CURVE SMOOTH",
"196 537 OFFCURVE",
"245 630 OFFCURVE",
"399 630 CURVE SMOOTH",
"450 630 OFFCURVE",
"529 621 OFFCURVE",
"572 613 CURVE",
"583 678 LINE",
"541 688 OFFCURVE",
"468 702 OFFCURVE",
"394 702 CURVE SMOOTH",
"189 702 OFFCURVE",
"122 582 OFFCURVE",
"77 350 CURVE SMOOTH",
"32 118 OFFCURVE",
"55 -10 OFFCURVE",
"266 -10 CURVE SMOOTH"
);
}
);
width = 546;
},
{
layerId = "0474999B-FB68-4D9A-82B1-2286F2372C1D";
paths = (
{
closed = 1;
nodes = (
"334 -9 OFFCURVE",
"403 1 OFFCURVE",
"455 11 CURVE",
"456 45 LINE",
"402 35 OFFCURVE",
"333 25 OFFCURVE",
"269 25 CURVE SMOOTH",
"86 25 OFFCURVE",
"84 146 OFFCURVE",
"123 344 CURVE SMOOTH",
"162 545 OFFCURVE",
"211 675 OFFCURVE",
"400 675 CURVE SMOOTH",
"459 675 OFFCURVE",
"536 664 OFFCURVE",
"577 655 CURVE",
"585 690 LINE",
"540 699 OFFCURVE",
"473 709 OFFCURVE",
"402 709 CURVE SMOOTH",
"190 709 OFFCURVE",
"128 566 OFFCURVE",
"86 350 CURVE SMOOTH",
"42 126 OFFCURVE",
"60 -9 OFFCURVE",
"268 -9 CURVE SMOOTH"
);
}
);
width = 545;
},
{
layerId = "0E0E1207-0B3B-41BA-8E0C-9BB926F33A45";
paths = (
{
closed = 1;
nodes = (
"428 -13 OFFCURVE",
"514 4 OFFCURVE",
"558 15 CURVE",
"534 188 LINE",
"498 185 OFFCURVE",
"431 183 OFFCURVE",
"386 183 CURVE SMOOTH",
"291 183 OFFCURVE",
"259 211 OFFCURVE",
"231 354 CURVE SMOOTH",
"207 478 OFFCURVE",
"218 487 OFFCURVE",
"300 487 CURVE SMOOTH",
"359 487 OFFCURVE",
"426 480 OFFCURVE",
"462 476 CURVE",
"446 658 LINE",
"388 670 OFFCURVE",
"291 683 OFFCURVE",
"243 683 CURVE SMOOTH",
"4 683 OFFCURVE",
"-49 592 OFFCURVE",
"4 320 CURVE SMOOTH",
"55 56 OFFCURVE",
"128 -13 OFFCURVE",
"341 -13 CURVE SMOOTH"
);
}
);
width = 539;
},
{
layerId = "FB927515-0B4B-4E0F-9AFE-1C9AB9ADFFED";
paths = (
{
closed = 1;
nodes = (
"426 -10 OFFCURVE",
"499 2 OFFCURVE",
"546 12 CURVE",
"535 78 LINE",
"490 70 OFFCURVE",
"417 62 OFFCURVE",
"363 62 CURVE SMOOTH",
"206 62 OFFCURVE",
"159 154 OFFCURVE",
"121 350 CURVE SMOOTH",
"84 543 OFFCURVE",
"92 630 OFFCURVE",
"242 630 CURVE SMOOTH",
"297 630 OFFCURVE",
"380 619 OFFCURVE",
"427 611 CURVE",
"421 680 LINE",
"376 690 OFFCURVE",
"297 702 OFFCURVE",
"229 702 CURVE SMOOTH",
"18 702 OFFCURVE",
"-6 576 OFFCURVE",
"41 338 CURVE SMOOTH",
"84 112 OFFCURVE",
"152 -10 OFFCURVE",
"357 -10 CURVE SMOOTH"
);
}
);
width = 546;
},
{
layerId = "9F9B1D74-FF57-4B2A-AEB5-D743B154EFB7";
paths = (
{
closed = 1;
nodes = (
"434 -9 OFFCURVE",
"499 1 OFFCURVE",
"547 11 CURVE",
"540 45 LINE",
"490 35 OFFCURVE",
"425 25 OFFCURVE",
"363 25 CURVE SMOOTH",
"178 25 OFFCURVE",
"125 148 OFFCURVE",
"86 350 CURVE SMOOTH",
"48 547 OFFCURVE",
"45 675 OFFCURVE",
"232 675 CURVE SMOOTH",
"293 675 OFFCURVE",
"374 664 OFFCURVE",
"419 655 CURVE",
"417 690 LINE",
"369 699 OFFCURVE",
"299 709 OFFCURVE",
"230 709 CURVE SMOOTH",
"16 709 OFFCURVE",
"7 564 OFFCURVE",
"49 344 CURVE SMOOTH",
"92 124 OFFCURVE",
"160 -9 OFFCURVE",
"364 -9 CURVE SMOOTH"
);
}
);
width = 547;
}
);
leftKerningGroup = C;
rightKerningGroup = C;
unicode = 0043;
},
{
color = 5;
glyphname = D;
layers = (
{
layerId = "459CA063-FA7D-4205-A795-7B6CE244EAAB";
paths = (
{
closed = 1;
nodes = (
"352 0 LINE SMOOTH",
"528 0 OFFCURVE",
"586 182 OFFCURVE",
"586 358 CURVE SMOOTH",
"586 534 OFFCURVE",
"528 700 OFFCURVE",
"352 700 CURVE SMOOTH",
"92 700 LINE",
"92 0 LINE"
);
},
{
closed = 1;
nodes = (
"128 666 LINE",
"352 666 LINE SMOOTH",
"502 666 OFFCURVE",
"548 508 OFFCURVE",
"548 358 CURVE SMOOTH",
"548 208 OFFCURVE",
"502 34 OFFCURVE",
"352 34 CURVE SMOOTH",
"128 34 LINE"
);
}
);
width = 649;
},
{
layerId = "EA657207-4E15-4023-BA2A-6FA5407A60CD";
paths = (
{
closed = 1;
nodes = (
"323 0 LINE SMOOTH",
"556 0 OFFCURVE",
"638 122 OFFCURVE",
"638 345 CURVE SMOOTH",
"638 568 OFFCURVE",
"546 670 OFFCURVE",
"313 670 CURVE SMOOTH",
"30 670 LINE",
"30 0 LINE"
);
},
{
closed = 1;
nodes = (
"262 481 LINE",
"303 481 LINE SMOOTH",
"393 481 OFFCURVE",
"404 438 OFFCURVE",
"404 345 CURVE SMOOTH",
"404 247 OFFCURVE",
"398 189 OFFCURVE",
"303 189 CURVE SMOOTH",
"262 189 LINE"
);
}
);
width = 654;
},
{
layerId = "5E4DD32C-6BC9-4010-93B4-D8C61BED16DC";
paths = (
{
closed = 1;
nodes = (
"331 0 LINE SMOOTH",
"536 0 OFFCURVE",
"589 156 OFFCURVE",
"589 356 CURVE SMOOTH",
"589 553 OFFCURVE",
"533 691 OFFCURVE",
"331 691 CURVE SMOOTH",
"84 691 LINE",
"84 0 LINE"
);
},
{
closed = 1;
nodes = (
"164 620 LINE",
"331 620 LINE SMOOTH",
"474 620 OFFCURVE",
"506 505 OFFCURVE",
"506 356 CURVE SMOOTH",
"506 205 OFFCURVE",
"474 71 OFFCURVE",
"331 71 CURVE SMOOTH",
"164 71 LINE"
);
}
);
width = 644.2549;
},
{
layerId = "0DA49D7F-B466-4A74-9166-6D7870CD51D2";
paths = (
{
closed = 1;
nodes = (
"282 0 LINE SMOOTH",
"515 0 OFFCURVE",
"612 113 OFFCURVE",
"654 328 CURVE SMOOTH",
"699 559 OFFCURVE",
"621 670 OFFCURVE",
"388 670 CURVE SMOOTH",
"112 670 LINE",
"-18 0 LINE"
);
},
{
closed = 1;
nodes = (
"307 481 LINE",
"355 481 LINE SMOOTH",
"445 481 OFFCURVE",
"443 447 OFFCURVE",
"426 362 CURVE SMOOTH",
"405 256 OFFCURVE",
"380 189 OFFCURVE",
"285 189 CURVE SMOOTH",
"251 189 LINE"
);
}
);
width = 655;
},
{
layerId = "3B241295-E7D1-482F-A49F-5B690F967CBA";
paths = (
{
closed = 1;
nodes = (
"285 0 LINE SMOOTH",
"490 0 OFFCURVE",
"571 153 OFFCURVE",
"609 350 CURVE SMOOTH",
"648 550 OFFCURVE",
"617 691 OFFCURVE",
"415 691 CURVE SMOOTH",
"170 691 LINE",
"36 0 LINE"
);
},
{
closed = 1;
nodes = (
"236 620 LINE",
"406 620 LINE SMOOTH",
"549 620 OFFCURVE",
"557 508 OFFCURVE",
"528 362 CURVE SMOOTH",
"498 208 OFFCURVE",
"437 71 OFFCURVE",
"294 71 CURVE SMOOTH",
"130 71 LINE"
);
}
);
width = 645;
},
{
layerId = "0474999B-FB68-4D9A-82B1-2286F2372C1D";
paths = (
{
closed = 1;
nodes = (
"304 0 LINE SMOOTH",
"480 0 OFFCURVE",
"572 181 OFFCURVE",
"606 355 CURVE SMOOTH",
"640 533 OFFCURVE",
"614 700 OFFCURVE",
"438 700 CURVE SMOOTH",
"179 700 LINE",
"43 0 LINE"
);
},
{
closed = 1;
nodes = (
"208 666 LINE",
"433 666 LINE SMOOTH",
"583 666 OFFCURVE",
"598 509 OFFCURVE",
"569 361 CURVE SMOOTH",
"540 209 OFFCURVE",
"458 34 OFFCURVE",
"308 34 CURVE SMOOTH",
"85 34 LINE"
);
}
);
width = 649;
},
{
layerId = "0E0E1207-0B3B-41BA-8E0C-9BB926F33A45";
paths = (
{
closed = 1;
nodes = (
"365 0 LINE SMOOTH",
"598 0 OFFCURVE",
"662 131 OFFCURVE",
"617 362 CURVE SMOOTH",
"575 577 OFFCURVE",
"472 670 OFFCURVE",
"239 670 CURVE SMOOTH",
"-51 670 LINE",
"79 0 LINE"
);
},
{
closed = 1;
nodes = (
"218 481 LINE",
"252 481 LINE SMOOTH",
"342 481 OFFCURVE",
"370 429 OFFCURVE",
"389 328 CURVE SMOOTH",
"407 238 OFFCURVE",
"417 189 OFFCURVE",
"322 189 CURVE SMOOTH",
"274 189 LINE"
);
}
);
width = 655;
},
{
layerId = "FB927515-0B4B-4E0F-9AFE-1C9AB9ADFFED";
paths = (
{
closed = 1;
nodes = (
"378 0 LINE SMOOTH",
"583 0 OFFCURVE",
"607 159 OFFCURVE",
"568 362 CURVE SMOOTH",
"530 556 OFFCURVE",
"450 691 OFFCURVE",
"248 691 CURVE SMOOTH",
"-1 691 LINE",
"133 0 LINE"
);
},
{
closed = 1;
nodes = (
"93 620 LINE",
"257 620 LINE SMOOTH",
"400 620 OFFCURVE",
"458 502 OFFCURVE",
"487 350 CURVE SMOOTH",
"516 202 OFFCURVE",
"512 71 OFFCURVE",
"369 71 CURVE SMOOTH",
"199 71 LINE"
);
}
);
width = 645;
},
{
layerId = "9F9B1D74-FF57-4B2A-AEB5-D743B154EFB7";
paths = (
{
closed = 1;
nodes = (
"400 0 LINE SMOOTH",
"576 0 OFFCURVE",
"600 183 OFFCURVE",
"565 361 CURVE SMOOTH",
"531 535 OFFCURVE",
"442 700 OFFCURVE",
"266 700 CURVE SMOOTH",
"5 700 LINE",
"141 0 LINE"
);
},
{
closed = 1;
nodes = (
"48 666 LINE",
"271 666 LINE SMOOTH",
"421 666 OFFCURVE",
"499 507 OFFCURVE",
"528 355 CURVE SMOOTH",
"557 207 OFFCURVE",
"546 34 OFFCURVE",
"396 34 CURVE SMOOTH",
"171 34 LINE"
);
}
);
width = 650;
}
);
leftKerningGroup = I;
rightKerningGroup = D;
unicode = 0044;
},
{
color = 5;
glyphname = Eth;
layers = (
{
components = (
{
name = D;
transform = "{1, 0, 0, 1, 2, 0}";
}
);
layerId = "459CA063-FA7D-4205-A795-7B6CE244EAAB";
paths = (
{
closed = 1;
nodes = (
"307 334 LINE",
"307 368 LINE",
"17 368 LINE",
"17 334 LINE"
);
}
);
width = 651;
},
{
components = (
{
name = D;
transform = "{1, 0, 0, 1, 7, 0}";
}
);
layerId = "EA657207-4E15-4023-BA2A-6FA5407A60CD";
paths = (
{
closed = 1;
nodes = (
"324 270 LINE",
"324 407 LINE",
"-1 407 LINE",
"-1 270 LINE"
);
}
);
width = 661;
},
{
components = (
{
alignment = -1;
name = D;
transform = "{1, 0, 0, 1, 3, 0}";
}
);
layerId = "5E4DD32C-6BC9-4010-93B4-D8C61BED16DC";
paths = (
{
closed = 1;
nodes = (
"323 309 LINE",
"323 386 LINE",
"20 386 LINE",
"20 309 LINE"
);
}
);
width = 647.11765;
},
{
components = (
{
name = D;
transform = "{1, 0, 0, 1, 7, 0}";
}
);
layerId = "0DA49D7F-B466-4A74-9166-6D7870CD51D2";
paths = (
{
closed = 1;
nodes = (
"309 270 LINE",
"336 407 LINE",
"11 407 LINE",
"-16 270 LINE"
);
}
);
width = 661;
},
{
components = (
{
alignment = -1;
name = D;
transform = "{1, 0, 0, 1, 3, 0}";
}
);
layerId = "3B241295-E7D1-482F-A49F-5B690F967CBA";
paths = (
{
closed = 1;
nodes = (
"286 309 LINE",
"301 386 LINE",
"-2 386 LINE",
"-17 309 LINE"
);
}
);
width = 647;
},
{
components = (
{
name = D;
transform = "{1, 0, 0, 1, 2, 0}";
}
);
layerId = "0474999B-FB68-4D9A-82B1-2286F2372C1D";
paths = (
{
closed = 1;
nodes = (
"275 334 LINE",
"281 368 LINE",
"-9 368 LINE",
"-15 334 LINE"
);
}
);
width = 651;
},
{
components = (
{
name = D;
transform = "{1, 0, 0, 1, 7, 0}";
}
);
layerId = "0E0E1207-0B3B-41BA-8E0C-9BB926F33A45";
paths = (
{
closed = 1;
nodes = (
"319 270 LINE",
"292 407 LINE",
"-33 407 LINE",
"-6 270 LINE"
);
}
);
width = 661;
},
{
components = (
{
alignment = -1;
name = D;
transform = "{1, 0, 0, 1, 3, 0}";
}
);
layerId = "FB927515-0B4B-4E0F-9AFE-1C9AB9ADFFED";
paths = (
{
closed = 1;
nodes = (
"320 309 LINE",
"305 386 LINE",
"2 386 LINE",
"17 309 LINE"
);
}
);
width = 647;
},
{
components = (
{
name = D;
transform = "{1, 0, 0, 1, 2, 0}";
}
);
layerId = "9F9B1D74-FF57-4B2A-AEB5-D743B154EFB7";
paths = (
{
closed = 1;
nodes = (
"289 334 LINE",
"283 368 LINE",
"-7 368 LINE",
"-1 334 LINE"
);
}
);
width = 651;
}
);
leftKerningGroup = I;
rightKerningGroup = D;
unicode = 00D0;
},
{
color = 5;
glyphname = Dcroat;
layers = (
{
components = (
{
name = D;
transform = "{1, 0, 0, 1, 2, 0}";
}
);
layerId = "459CA063-FA7D-4205-A795-7B6CE244EAAB";
paths = (
{
closed = 1;
nodes = (
"307 334 LINE",
"307 368 LINE",
"17 368 LINE",
"17 334 LINE"
);
}
);
width = 651;
},
{
components = (
{
name = D;
transform = "{1, 0, 0, 1, 7, 0}";
}
);
layerId = "EA657207-4E15-4023-BA2A-6FA5407A60CD";
paths = (
{
closed = 1;
nodes = (
"324 270 LINE",
"324 407 LINE",
"-1 407 LINE",
"-1 270 LINE"
);
}
);
width = 661;
},
{
components = (
{
alignment = -1;
name = D;
transform = "{1, 0, 0, 1, 3, 0}";
}
);
layerId = "5E4DD32C-6BC9-4010-93B4-D8C61BED16DC";
paths = (
{
closed = 1;
nodes = (
"323 309 LINE",
"323 386 LINE",
"20 386 LINE",
"20 309 LINE"
);
}
);
width = 647.11765;
},
{
components = (
{
name = D;
transform = "{1, 0, 0, 1, 7, 0}";
}
);
layerId = "0DA49D7F-B466-4A74-9166-6D7870CD51D2";
paths = (
{
closed = 1;
nodes = (
"299 270 LINE",
"326 407 LINE",
"1 407 LINE",
"-26 270 LINE"
);
}
);
width = 661;
},
{
components = (
{
alignment = -1;
name = D;
transform = "{1, 0, 0, 1, 3, 0}";
}
);
layerId = "3B241295-E7D1-482F-A49F-5B690F967CBA";
paths = (
{
closed = 1;
nodes = (
"286 309 LINE",
"301 386 LINE",
"-2 386 LINE",
"-17 309 LINE"
);
}
);
width = 647;
},
{
components = (
{
name = D;
transform = "{1, 0, 0, 1, 2, 0}";
}
);
layerId = "0474999B-FB68-4D9A-82B1-2286F2372C1D";
paths = (
{
closed = 1;
nodes = (
"275 334 LINE",
"281 368 LINE",
"-9 368 LINE",
"-15 334 LINE"
);
}
);
width = 651;
},
{
components = (
{
name = D;
transform = "{1, 0, 0, 1, 7, 0}";
}
);
layerId = "0E0E1207-0B3B-41BA-8E0C-9BB926F33A45";
paths = (
{
closed = 1;
nodes = (
"309 270 LINE",
"282 407 LINE",
"-43 407 LINE",
"-16 270 LINE"
);
}
);
width = 661;
},
{
components = (
{
alignment = -1;
name = D;
transform = "{1, 0, 0, 1, 3, 0}";
}
);
layerId = "FB927515-0B4B-4E0F-9AFE-1C9AB9ADFFED";
paths = (
{
closed = 1;
nodes = (
"300 309 LINE",
"285 386 LINE",
"-18 386 LINE",
"-3 309 LINE"
);
}
);
width = 647;
},
{
components = (
{
name = D;
transform = "{1, 0, 0, 1, 2, 0}";
}
);
layerId = "9F9B1D74-FF57-4B2A-AEB5-D743B154EFB7";
paths = (
{
closed = 1;
nodes = (
"299 334 LINE",
"293 368 LINE",
"3 368 LINE",
"9 334 LINE"
);
}
);
width = 651;
}
);
leftKerningGroup = I;
rightKerningGroup = D;
unicode = 0110;
},
{
color = 5;
glyphname = E;
layers = (
{
layerId = "459CA063-FA7D-4205-A795-7B6CE244EAAB";
paths = (
{
closed = 1;
nodes = (
"501 0 LINE",
"501 34 LINE",
"128 34 LINE",
"128 341 LINE",
"441 341 LINE",
"441 375 LINE",
"128 375 LINE",
"128 666 LINE",
"501 666 LINE",
"501 700 LINE",
"92 700 LINE",
"92 0 LINE"
);
}
);
width = 552;
},
{
layerId = "EA657207-4E15-4023-BA2A-6FA5407A60CD";
paths = (
{
closed = 1;
nodes = (
"532 0 LINE",
"532 185 LINE",
"262 185 LINE",
"262 245 LINE",
"472 245 LINE",
"472 428 LINE",
"262 428 LINE",
"262 485 LINE",
"532 485 LINE",
"532 670 LINE",
"30 670 LINE",
"30 0 LINE"
);
}
);
width = 549;
},
{
layerId = "5E4DD32C-6BC9-4010-93B4-D8C61BED16DC";
paths = (
{
closed = 1;
nodes = (
"507 0 LINE",
"507 71 LINE",
"164 71 LINE",
"164 316 LINE",
"447 316 LINE",
"447 386 LINE",
"164 386 LINE",
"164 620 LINE",
"507 620 LINE",
"507 691 LINE",
"84 691 LINE",
"84 0 LINE"
);
}
);
width = 552.86275;
},
{
layerId = "0DA49D7F-B466-4A74-9166-6D7870CD51D2";
paths = (
{
closed = 1;
nodes = (
"484 0 LINE",
"520 185 LINE",
"250 185 LINE",
"261 245 LINE",
"471 245 LINE",
"507 428 LINE",
"297 428 LINE",
"308 485 LINE",
"578 485 LINE",
"614 670 LINE",
"112 670 LINE",
"-18 0 LINE"
);
}
);
width = 550;
},
{
layerId = "3B241295-E7D1-482F-A49F-5B690F967CBA";
paths = (
{
closed = 1;
nodes = (
"459 0 LINE",
"473 71 LINE",
"130 71 LINE",
"177 316 LINE",
"460 316 LINE",
"474 386 LINE",
"191 386 LINE",
"236 620 LINE",
"579 620 LINE",
"593 691 LINE",
"170 691 LINE",
"36 0 LINE"
);
}
);
width = 554;
},
{
layerId = "0474999B-FB68-4D9A-82B1-2286F2372C1D";
paths = (
{
closed = 1;
nodes = (
"452 0 LINE",
"458 34 LINE",
"85 34 LINE",
"145 341 LINE",
"458 341 LINE",
"465 375 LINE",
"152 375 LINE",
"208 666 LINE",
"581 666 LINE",
"588 700 LINE",
"179 700 LINE",
"43 0 LINE"
);
}
);
width = 562;
},
{
layerId = "0E0E1207-0B3B-41BA-8E0C-9BB926F33A45";
paths = (
{
closed = 1;
nodes = (
"581 0 LINE",
"545 185 LINE",
"275 185 LINE",
"264 245 LINE",
"474 245 LINE",
"438 428 LINE",
"228 428 LINE",
"217 485 LINE",
"487 485 LINE",
"451 670 LINE",
"-51 670 LINE",
"79 0 LINE"
);
}
);
width = 550;
},
{
layerId = "FB927515-0B4B-4E0F-9AFE-1C9AB9ADFFED";
paths = (
{
closed = 1;
nodes = (
"556 0 LINE",
"542 71 LINE",
"199 71 LINE",
"152 316 LINE",
"435 316 LINE",
"421 386 LINE",
"138 386 LINE",
"93 620 LINE",
"436 620 LINE",
"422 691 LINE",
"-1 691 LINE",
"133 0 LINE"
);
}
);
width = 572;
},
{
layerId = "9F9B1D74-FF57-4B2A-AEB5-D743B154EFB7";
paths = (
{
closed = 1;
nodes = (
"550 0 LINE",
"544 34 LINE",
"171 34 LINE",
"111 341 LINE",
"424 341 LINE",
"417 375 LINE",
"104 375 LINE",
"48 666 LINE",
"421 666 LINE",
"414 700 LINE",
"5 700 LINE",
"141 0 LINE"
);
}
);
width = 553;
}
);
leftKerningGroup = I;
rightKerningGroup = E;
unicode = 0045;
},
{
color = 5;
glyphname = F;
layers = (
{
layerId = "459CA063-FA7D-4205-A795-7B6CE244EAAB";
paths = (
{
closed = 1;
nodes = (
"128 0 LINE",
"128 316 LINE",
"442 316 LINE",
"442 350 LINE",
"128 350 LINE",
"128 666 LINE",
"493 666 LINE",
"493 700 LINE",
"92 700 LINE",
"92 0 LINE"
);
}
);
width = 523;
},
{
layerId = "EA657207-4E15-4023-BA2A-6FA5407A60CD";
paths = (
{
closed = 1;
nodes = (
"262 0 LINE",
"262 184 LINE",
"453 184 LINE",
"453 373 LINE",
"262 373 LINE",
"262 481 LINE",
"513 481 LINE",
"513 670 LINE",
"30 670 LINE",
"30 0 LINE"
);
}
);
width = 521;
},
{
layerId = "5E4DD32C-6BC9-4010-93B4-D8C61BED16DC";
paths = (
{
closed = 1;
nodes = (
"164 0 LINE",
"164 283 LINE",
"447 283 LINE",
"447 354 LINE",
"164 354 LINE",
"164 620 LINE",
"499 620 LINE",
"499 691 LINE",
"84 691 LINE",
"84 0 LINE"
);
}
);
width = 526;
},
{
layerId = "0DA49D7F-B466-4A74-9166-6D7870CD51D2";
paths = (
{
closed = 1;
nodes = (
"214 0 LINE",
"250 184 LINE",
"441 184 LINE",
"477 373 LINE",
"286 373 LINE",
"307 481 LINE",
"558 481 LINE",
"595 670 LINE",
"112 670 LINE",
"-18 0 LINE"
);
}
);
width = 521;
},
{
layerId = "3B241295-E7D1-482F-A49F-5B690F967CBA";
paths = (
{
closed = 1;
nodes = (
"116 0 LINE",
"171 283 LINE",
"454 283 LINE",
"468 354 LINE",
"185 354 LINE",
"236 620 LINE",
"571 620 LINE",
"585 691 LINE",
"170 691 LINE",
"36 0 LINE"
);
}
);
width = 526;
},
{
layerId = "0474999B-FB68-4D9A-82B1-2286F2372C1D";
paths = (
{
closed = 1;
nodes = (
"77 0 LINE",
"138 316 LINE",
"452 316 LINE",
"459 350 LINE",
"145 350 LINE",
"206 666 LINE",
"571 666 LINE",
"578 700 LINE",
"177 700 LINE",
"41 0 LINE"
);
}
);
width = 521;
},
{
layerId = "0E0E1207-0B3B-41BA-8E0C-9BB926F33A45";
paths = (
{
closed = 1;
nodes = (
"311 0 LINE",
"275 184 LINE",
"466 184 LINE",
"430 373 LINE",
"239 373 LINE",
"218 481 LINE",
"469 481 LINE",
"432 670 LINE",
"-51 670 LINE",
"79 0 LINE"
);
}
);
width = 522;
},
{
layerId = "FB927515-0B4B-4E0F-9AFE-1C9AB9ADFFED";
paths = (
{
closed = 1;
nodes = (
"213 0 LINE",
"158 283 LINE",
"441 283 LINE",
"427 354 LINE",
"144 354 LINE",
"93 620 LINE",
"428 620 LINE",
"414 691 LINE",
"-1 691 LINE",
"133 0 LINE"
);
}
);
width = 527;
},
{
layerId = "9F9B1D74-FF57-4B2A-AEB5-D743B154EFB7";
paths = (
{
closed = 1;
nodes = (
"175 0 LINE",
"114 316 LINE",
"428 316 LINE",
"421 350 LINE",
"107 350 LINE",
"46 666 LINE",
"411 666 LINE",
"404 700 LINE",
"3 700 LINE",
"139 0 LINE"
);
}
);
width = 522;
}
);
leftKerningGroup = I;
unicode = 0046;
},
{
color = 5;
glyphname = G;
layers = (
{
layerId = "459CA063-FA7D-4205-A795-7B6CE244EAAB";
paths = (
{
closed = 1;
nodes = (
"393 -9 OFFCURVE",
"511 9 OFFCURVE",
"547 16 CURVE",
"547 347 LINE",
"361 347 LINE",
"361 313 LINE",
"511 313 LINE",
"511 45 LINE",
"467 37 OFFCURVE",
"383 25 OFFCURVE",
"327 25 CURVE SMOOTH",
"143 25 OFFCURVE",
"103 147 OFFCURVE",
"103 347 CURVE SMOOTH",
"103 546 OFFCURVE",
"139 675 OFFCURVE",
"327 675 CURVE SMOOTH",
"393 675 OFFCURVE",
"490 660 OFFCURVE",
"544 649 CURVE",
"547 684 LINE",
"498 695 OFFCURVE",
"404 709 OFFCURVE",
"327 709 CURVE SMOOTH",
"114 709 OFFCURVE",
"65 565 OFFCURVE",
"65 347 CURVE SMOOTH",
"65 125 OFFCURVE",
"121 -9 OFFCURVE",
"327 -9 CURVE SMOOTH"
);
}
);
width = 619;
},
{
layerId = "EA657207-4E15-4023-BA2A-6FA5407A60CD";
paths = (
{
closed = 1;
nodes = (
"390 -9 OFFCURVE",
"514 8 OFFCURVE",
"592 20 CURVE",
"592 394 LINE",
"345 394 LINE",
"346 232 LINE {name = hr00;}",
"376 232 LINE",
"376 182 LINE",
"363 181 OFFCURVE",
"352 181 OFFCURVE",
"342 181 CURVE SMOOTH",
"265 181 OFFCURVE",
"251 231 OFFCURVE",
"251 336 CURVE SMOOTH",
"251 453 OFFCURVE",
"253 487 OFFCURVE",
"352 487 CURVE SMOOTH",
"418 487 OFFCURVE",
"525 480 OFFCURVE",
"587 474 CURVE",
"587 649 LINE",
"527 664 OFFCURVE",
"416 683 OFFCURVE",
"332 683 CURVE SMOOTH",
"107 683 OFFCURVE",
"17 597 OFFCURVE",
"17 336 CURVE SMOOTH",
"17 98 OFFCURVE",
"77 -9 OFFCURVE",
"332 -9 CURVE SMOOTH"
);
}
);
width = 619;
},
{
layerId = "5E4DD32C-6BC9-4010-93B4-D8C61BED16DC";
paths = (
{
closed = 1;
nodes = (
"391 -10 OFFCURVE",
"504 6 OFFCURVE",
"550 14 CURVE",
"550 354 LINE",
"359 354 LINE",
"359 283 LINE",
"471 283 LINE",
"471 74 LINE",
"439 68 OFFCURVE",
"376 61 OFFCURVE",
"331 61 CURVE SMOOTH",
"173 61 OFFCURVE",
"139 152 OFFCURVE",
"139 344 CURVE SMOOTH",
"139 540 OFFCURVE",
"175 630 OFFCURVE",
"333 630 CURVE SMOOTH",
"399 630 OFFCURVE",
"494 618 OFFCURVE",
"547 609 CURVE",
"550 675 LINE",
"498 687 OFFCURVE",
"400 702 OFFCURVE",
"323 702 CURVE SMOOTH",
"115 702 OFFCURVE",
"56 575 OFFCURVE",
"56 344 CURVE SMOOTH",
"56 119 OFFCURVE",
"112 -10 OFFCURVE",
"325 -10 CURVE SMOOTH"
);
}
);
width = 615.54902;
},
{
layerId = "0DA49D7F-B466-4A74-9166-6D7870CD51D2";
paths = (
{
closed = 1;
nodes = (
"347 -9 OFFCURVE",
"474 7 OFFCURVE",
"554 19 CURVE",
"620 394 LINE",
"373 394 LINE",
"343 232 LINE {name = hr00;}",
"373 232 LINE",
"357 183 LINE",
"343 182 OFFCURVE",
"332 181 OFFCURVE",
"315 181 CURVE SMOOTH",
"245 181 OFFCURVE",
"246 222 OFFCURVE",
"265 319 CURVE SMOOTH",
"289 444 OFFCURVE",
"306 487 OFFCURVE",
"412 487 CURVE SMOOTH",
"471 487 OFFCURVE",
"577 481 OFFCURVE",
"638 475 CURVE",
"658 647 LINE",
"601 662 OFFCURVE",
"494 683 OFFCURVE",
"403 683 CURVE SMOOTH",
"185 683 OFFCURVE",
"87 606 OFFCURVE",
"37 353 CURVE SMOOTH",
"-10 107 OFFCURVE",
"34 -9 OFFCURVE",
"296 -9 CURVE SMOOTH"
);
}
);
width = 626;
},
{
layerId = "3B241295-E7D1-482F-A49F-5B690F967CBA";
paths = (
{
closed = 1;
nodes = (
"342 -10 OFFCURVE",
"458 5 OFFCURVE",
"506 13 CURVE",
"570 354 LINE",
"379 354 LINE",
"365 283 LINE",
"477 283 LINE",
"434 75 LINE",
"401 69 OFFCURVE",
"336 61 OFFCURVE",
"289 61 CURVE SMOOTH",
"133 61 OFFCURVE",
"119 149 OFFCURVE",
"155 338 CURVE SMOOTH",
"194 537 OFFCURVE",
"251 630 OFFCURVE",
"411 630 CURVE SMOOTH",
"475 630 OFFCURVE",
"568 619 OFFCURVE",
"619 610 CURVE",
"629 674 LINE",
"580 686 OFFCURVE",
"485 702 OFFCURVE",
"405 702 CURVE SMOOTH",
"200 702 OFFCURVE",
"119 578 OFFCURVE",
"75 350 CURVE SMOOTH",
"31 122 OFFCURVE",
"63 -10 OFFCURVE",
"279 -10 CURVE SMOOTH"
);
}
);
width = 618;
},
{
layerId = "0474999B-FB68-4D9A-82B1-2286F2372C1D";
paths = (
{
closed = 1;
nodes = (
"343 -9 OFFCURVE",
"465 9 OFFCURVE",
"502 16 CURVE",
"565 347 LINE",
"379 347 LINE",
"373 313 LINE",
"523 313 LINE",
"469 45 LINE",
"424 37 OFFCURVE",
"337 25 OFFCURVE",
"280 25 CURVE SMOOTH",
"97 25 OFFCURVE",
"82 146 OFFCURVE",
"121 344 CURVE SMOOTH",
"160 545 OFFCURVE",
"222 675 OFFCURVE",
"411 675 CURVE SMOOTH",
"476 675 OFFCURVE",
"570 660 OFFCURVE",
"622 649 CURVE",
"630 684 LINE",
"583 695 OFFCURVE",
"491 709 OFFCURVE",
"413 709 CURVE SMOOTH",
"201 709 OFFCURVE",
"126 566 OFFCURVE",
"84 350 CURVE SMOOTH",
"40 126 OFFCURVE",
"71 -9 OFFCURVE",
"279 -9 CURVE SMOOTH"
);
}
);
width = 619;
},
{
layerId = "0E0E1207-0B3B-41BA-8E0C-9BB926F33A45";
paths = (
{
closed = 1;
nodes = (
"434 -9 OFFCURVE",
"555 9 OFFCURVE",
"630 21 CURVE",
"564 394 LINE",
"318 394 LINE",
"350 232 LINE {name = hr00;}",
"380 232 LINE",
"397 181 LINE",
"384 180 OFFCURVE",
"373 181 OFFCURVE",
"370 181 CURVE SMOOTH",
"286 181 OFFCURVE",
"254 240 OFFCURVE",
"232 353 CURVE SMOOTH",
"210 462 OFFCURVE",
"201 487 OFFCURVE",
"293 487 CURVE SMOOTH",
"366 487 OFFCURVE",
"474 479 OFFCURVE",
"537 473 CURVE",
"516 651 LINE",
"453 666 OFFCURVE",
"339 683 OFFCURVE",
"262 683 CURVE SMOOTH",
"30 683 OFFCURVE",
"-48 588 OFFCURVE",
"4 319 CURVE SMOOTH",
"49 89 OFFCURVE",
"121 -9 OFFCURVE",
"369 -9 CURVE SMOOTH"
);
}
);
width = 621;
},
{
layerId = "FB927515-0B4B-4E0F-9AFE-1C9AB9ADFFED";
paths = (
{
closed = 1;
nodes = (
"439 -10 OFFCURVE",
"548 7 OFFCURVE",
"593 15 CURVE",
"529 354 LINE",
"338 354 LINE",
"352 283 LINE",
"464 283 LINE",
"507 73 LINE",
"477 67 OFFCURVE",
"415 61 OFFCURVE",
"372 61 CURVE SMOOTH",
"212 61 OFFCURVE",
"157 155 OFFCURVE",
"119 350 CURVE SMOOTH",
"82 543 OFFCURVE",
"98 630 OFFCURVE",
"254 630 CURVE SMOOTH",
"322 630 OFFCURVE",
"420 617 OFFCURVE",
"474 608 CURVE",
"469 676 LINE",
"415 688 OFFCURVE",
"314 702 OFFCURVE",
"240 702 CURVE SMOOTH",
"29 702 OFFCURVE",
"-7 572 OFFCURVE",
"39 338 CURVE SMOOTH",
"82 116 OFFCURVE",
"160 -10 OFFCURVE",
"370 -10 CURVE SMOOTH"
);
}
);
width = 618;
},
{
layerId = "9F9B1D74-FF57-4B2A-AEB5-D743B154EFB7";
paths = (
{
closed = 1;
nodes = (
"440 -9 OFFCURVE",
"554 9 OFFCURVE",
"589 16 CURVE",
"526 347 LINE",
"340 347 LINE",
"346 313 LINE",
"496 313 LINE",
"550 45 LINE",
"507 37 OFFCURVE",
"426 25 OFFCURVE",
"371 25 CURVE SMOOTH",
"186 25 OFFCURVE",
"120 148 OFFCURVE",
"81 350 CURVE SMOOTH",
"43 547 OFFCURVE",
"53 675 OFFCURVE",
"240 675 CURVE SMOOTH",
"307 675 OFFCURVE",
"407 660 OFFCURVE",
"463 649 CURVE",
"461 684 LINE",
"410 695 OFFCURVE",
"314 709 OFFCURVE",
"238 709 CURVE SMOOTH",
"24 709 OFFCURVE",
"2 564 OFFCURVE",
"44 344 CURVE SMOOTH",
"87 124 OFFCURVE",
"168 -9 OFFCURVE",
"372 -9 CURVE SMOOTH"
);
}
);
width = 617;
}
);
leftKerningGroup = O;
rightKerningGroup = G;
unicode = 0047;
},
{
color = 5;
glyphname = Gdotaccent;
layers = (
{
components = (
{
name = G;
}
);
layerId = "459CA063-FA7D-4205-A795-7B6CE244EAAB";
paths = (
{
closed = 1;
nodes = (
"331 823 LINE",
"331 878 LINE",
"296 878 LINE",
"296 823 LINE"
);
}
);
width = 619;
},
{
components = (
{
name = G;
}
);
layerId = "EA657207-4E15-4023-BA2A-6FA5407A60CD";
paths = (
{
closed = 1;
nodes = (
"398 728 LINE",
"398 881 LINE",
"212 881 LINE",
"212 728 LINE"
);
}
);
width = 619;
},
{
components = (
{
alignment = -1;
name = G;
}
);
layerId = "5E4DD32C-6BC9-4010-93B4-D8C61BED16DC";
paths = (
{
closed = 1;
nodes = (
"352 799 LINE",
"352 888 LINE",
"274 888 LINE",
"274 799 LINE"
);
}
);
width = 615.54902;
},
{
components = (
{
name = G;
}
);
layerId = "0DA49D7F-B466-4A74-9166-6D7870CD51D2";
paths = (
{
closed = 1;
nodes = (
"492 728 LINE",
"522 881 LINE",
"336 881 LINE",
"306 728 LINE"
);
}
);
width = 619;
},
{
components = (
{
alignment = -1;
name = G;
}
);
layerId = "3B241295-E7D1-482F-A49F-5B690F967CBA";
paths = (
{
closed = 1;
nodes = (
"460 799 LINE",
"477 888 LINE",
"399 888 LINE",
"382 799 LINE"
);
}
);
width = 616;
},
{
components = (
{
name = G;
}
);
layerId = "0474999B-FB68-4D9A-82B1-2286F2372C1D";
paths = (
{
closed = 1;
nodes = (
"434 823 LINE",
"444 878 LINE",
"409 878 LINE",
"399 823 LINE"
);
}
);
width = 619;
},
{
components = (
{
name = G;
}
);
layerId = "0E0E1207-0B3B-41BA-8E0C-9BB926F33A45";
paths = (
{
closed = 1;
nodes = (
"304 728 LINE",
"274 881 LINE",
"88 881 LINE",
"118 728 LINE"
);
}
);
width = 619;
},
{
components = (
{
alignment = -1;
name = G;
}
);
layerId = "FB927515-0B4B-4E0F-9AFE-1C9AB9ADFFED";
paths = (
{
closed = 1;
nodes = (
"249 799 LINE",
"232 888 LINE",
"154 888 LINE",
"171 799 LINE"
);
}
);
width = 616;
},
{
components = (
{
name = G;
}
);
layerId = "9F9B1D74-FF57-4B2A-AEB5-D743B154EFB7";
paths = (
{
closed = 1;
nodes = (
"214 823 LINE",
"204 878 LINE",
"169 878 LINE",
"179 823 LINE"
);
}
);
width = 619;
}
);
leftKerningGroup = O;
rightKerningGroup = G;
unicode = 0120;
},
{
color = 5;
glyphname = H;
layers = (
{
layerId = "459CA063-FA7D-4205-A795-7B6CE244EAAB";
paths = (
{
closed = 1;
nodes = (
"128 0 LINE",
"128 334 LINE",
"546 334 LINE",
"546 0 LINE",
"582 0 LINE",
"582 700 LINE",
"546 700 LINE",
"546 368 LINE",
"128 368 LINE",
"128 700 LINE",
"92 700 LINE",
"92 0 LINE"
);
}
);
width = 674;
},
{
layerId = "EA657207-4E15-4023-BA2A-6FA5407A60CD";
paths = (
{
closed = 1;
nodes = (
"262 0 LINE",
"262 234 LINE",
"393 234 LINE",
"393 0 LINE",
"625 0 LINE",
"625 670 LINE",
"393 670 LINE",
"393 423 LINE",
"262 423 LINE",
"262 670 LINE",
"30 670 LINE",
"30 0 LINE"
);
}
);
width = 655;
},
{
layerId = "5E4DD32C-6BC9-4010-93B4-D8C61BED16DC";
paths = (
{
closed = 1;
nodes = (
"164 0 LINE",
"164 312 LINE",
"511 312 LINE",
"511 0 LINE",
"591 0 LINE",
"591 691 LINE",
"511 691 LINE",
"511 383 LINE",
"164 383 LINE",
"164 691 LINE",
"84 691 LINE",
"84 0 LINE"
);
}
);
width = 675.29412;
},
{
layerId = "0DA49D7F-B466-4A74-9166-6D7870CD51D2";
paths = (
{
closed = 1;
nodes = (
"214 0 LINE",
"259 234 LINE",
"390 234 LINE",
"345 0 LINE",
"577 0 LINE",
"707 670 LINE",
"475 670 LINE",
"427 423 LINE",
"296 423 LINE",
"344 670 LINE",
"112 670 LINE",
"-18 0 LINE"
);
}
);
width = 656;
},
{
layerId = "3B241295-E7D1-482F-A49F-5B690F967CBA";
paths = (
{
closed = 1;
nodes = (
"116 0 LINE",
"176 312 LINE",
"523 312 LINE",
"463 0 LINE",
"543 0 LINE",
"677 691 LINE",
"597 691 LINE",
"537 383 LINE",
"190 383 LINE",
"250 691 LINE",
"170 691 LINE",
"36 0 LINE"
);
}
);
width = 676;
},
{
layerId = "0474999B-FB68-4D9A-82B1-2286F2372C1D";
paths = (
{
closed = 1;
nodes = (
"79 0 LINE",
"144 334 LINE",
"562 334 LINE",
"497 0 LINE",
"533 0 LINE",
"669 700 LINE",
"633 700 LINE",
"568 368 LINE",
"150 368 LINE",
"215 700 LINE",
"179 700 LINE",
"43 0 LINE"
);
}
);
width = 674;
},
{
layerId = "0E0E1207-0B3B-41BA-8E0C-9BB926F33A45";
paths = (
{
closed = 1;
nodes = (
"311 0 LINE",
"266 234 LINE",
"397 234 LINE",
"442 0 LINE",
"674 0 LINE",
"544 670 LINE",
"312 670 LINE",
"360 423 LINE",
"229 423 LINE",
"181 670 LINE",
"-51 670 LINE",
"79 0 LINE"
);
}
);
width = 656;
},
{
layerId = "FB927515-0B4B-4E0F-9AFE-1C9AB9ADFFED";
paths = (
{
closed = 1;
nodes = (
"213 0 LINE",
"153 312 LINE",
"500 312 LINE",
"560 0 LINE",
"640 0 LINE",
"506 691 LINE",
"426 691 LINE",
"486 383 LINE",
"139 383 LINE",
"79 691 LINE",
"-1 691 LINE",
"133 0 LINE"
);
}
);
width = 676;
},
{
layerId = "9F9B1D74-FF57-4B2A-AEB5-D743B154EFB7";
paths = (
{
closed = 1;
nodes = (
"177 0 LINE",
"112 334 LINE",
"530 334 LINE",
"595 0 LINE",
"631 0 LINE",
"495 700 LINE",
"459 700 LINE",
"524 368 LINE",
"106 368 LINE",
"41 700 LINE",
"5 700 LINE",
"141 0 LINE"
);
}
);
width = 674;
}
);
leftKerningGroup = I;
rightKerningGroup = I;
unicode = 0048;
},
{
color = 5;
glyphname = Hbar;
layers = (
{
components = (
{
name = H;
transform = "{1, 0, 0, 1, 4, 0}";
}
);
layerId = "459CA063-FA7D-4205-A795-7B6CE244EAAB";
paths = (
{
closed = 1;
nodes = (
"679 522 LINE",
"679 554 LINE",
"12 554 LINE",
"12 522 LINE"
);
}
);
width = 686;
},
{
components = (
{
name = H;
transform = "{1, 0, 0, 1, 2, 0}";
}
);
layerId = "EA657207-4E15-4023-BA2A-6FA5407A60CD";
paths = (
{
closed = 1;
nodes = (
"655 473 LINE",
"655 605 LINE",
"4 605 LINE",
"4 473 LINE"
);
}
);
width = 659;
},
{
components = (
{
alignment = -1;
name = H;
transform = "{1, 0, 0, 1, 4, 0}";
}
);
layerId = "5E4DD32C-6BC9-4010-93B4-D8C61BED16DC";
paths = (
{
closed = 1;
nodes = (
"676 506 LINE",
"676 575 LINE",
"15 575 LINE",
"15 506 LINE"
);
}
);
width = 685.56863;
},
{
components = (
{
name = H;
transform = "{1, 0, 0, 1, 2, 0}";
}
);
layerId = "0DA49D7F-B466-4A74-9166-6D7870CD51D2";
paths = (
{
closed = 1;
nodes = (
"698 473 LINE",
"723 605 LINE",
"72 605 LINE",
"47 473 LINE"
);
}
);
width = 659;
},
{
components = (
{
alignment = -1;
name = H;
transform = "{1, 0, 0, 1, 4, 0}";
}
);
layerId = "3B241295-E7D1-482F-A49F-5B690F967CBA";
paths = (
{
closed = 1;
nodes = (
"725 506 LINE",
"739 575 LINE",
"78 575 LINE",
"64 506 LINE"
);
}
);
width = 686;
},
{
components = (
{
name = H;
transform = "{1, 0, 0, 1, 4, 0}";
}
);
layerId = "0474999B-FB68-4D9A-82B1-2286F2372C1D";
paths = (
{
closed = 1;
nodes = (
"725 522 LINE",
"731 554 LINE",
"64 554 LINE",
"58 522 LINE"
);
}
);
width = 686;
},
{
components = (
{
name = H;
transform = "{1, 0, 0, 1, 2, 0}";
}
);
layerId = "0E0E1207-0B3B-41BA-8E0C-9BB926F33A45";
paths = (
{
closed = 1;
nodes = (
"610 473 LINE",
"585 605 LINE",
"-66 605 LINE",
"-41 473 LINE"
);
}
);
width = 659;
},
{
components = (
{
alignment = -1;
name = H;
transform = "{1, 0, 0, 1, 4, 0}";
}
);
layerId = "FB927515-0B4B-4E0F-9AFE-1C9AB9ADFFED";
paths = (
{
closed = 1;
nodes = (
"625 506 LINE",
"611 575 LINE",
"-50 575 LINE",
"-36 506 LINE"
);
}
);
width = 686;
},
{
components = (
{
name = H;
transform = "{1, 0, 0, 1, 4, 0}";
}
);
layerId = "9F9B1D74-FF57-4B2A-AEB5-D743B154EFB7";
paths = (
{
closed = 1;
nodes = (
"625 522 LINE",
"619 554 LINE",
"-48 554 LINE",
"-42 522 LINE"
);
}
);
width = 686;
}
);
leftKerningGroup = I;
rightKerningGroup = I;
unicode = 0126;
},
{
color = 5;
glyphname = I;
layers = (
{
layerId = "459CA063-FA7D-4205-A795-7B6CE244EAAB";
paths = (
{
closed = 1;
nodes = (
"128 0 LINE",
"128 700 LINE",
"92 700 LINE",
"92 0 LINE"
);
}
);
width = 220;
},
{
layerId = "EA657207-4E15-4023-BA2A-6FA5407A60CD";
paths = (
{
closed = 1;
nodes = (
"262 0 LINE",
"262 670 LINE",
"30 670 LINE",
"30 0 LINE"
);
}
);
width = 292;
},
{
layerId = "5E4DD32C-6BC9-4010-93B4-D8C61BED16DC";
paths = (
{
closed = 1;
nodes = (
"164 0 LINE",
"164 691 LINE",
"84 691 LINE",
"84 0 LINE"
);
}
);
width = 248.47059;
},
{
layerId = "0DA49D7F-B466-4A74-9166-6D7870CD51D2";
paths = (
{
closed = 1;
nodes = (
"214 0 LINE",
"344 670 LINE",
"112 670 LINE",
"-18 0 LINE"
);
}
);
width = 293;
},
{
layerId = "3B241295-E7D1-482F-A49F-5B690F967CBA";
paths = (
{
closed = 1;
nodes = (
"116 0 LINE",
"250 691 LINE",
"170 691 LINE",
"36 0 LINE"
);
}
);
width = 249;
},
{
layerId = "0474999B-FB68-4D9A-82B1-2286F2372C1D";
paths = (
{
closed = 1;
nodes = (
"79 0 LINE",
"215 700 LINE",
"179 700 LINE",
"43 0 LINE"
);
}
);
width = 220;
},
{
layerId = "0E0E1207-0B3B-41BA-8E0C-9BB926F33A45";
paths = (
{
closed = 1;
nodes = (
"311 0 LINE",
"181 670 LINE",
"-51 670 LINE",
"79 0 LINE"
);
}
);
width = 293;
},
{
layerId = "FB927515-0B4B-4E0F-9AFE-1C9AB9ADFFED";
paths = (
{
closed = 1;
nodes = (
"213 0 LINE",
"79 691 LINE",
"-1 691 LINE",
"133 0 LINE"
);
}
);
width = 249;
},
{
layerId = "9F9B1D74-FF57-4B2A-AEB5-D743B154EFB7";
paths = (
{
closed = 1;
nodes = (
"177 0 LINE",
"41 700 LINE",
"5 700 LINE",
"141 0 LINE"
);
}
);
width = 220;
}
);
leftKerningGroup = I;
rightKerningGroup = I;
unicode = 0049;
},
{
color = 5;
glyphname = Idotaccent;
layers = (
{
components = (
{
name = I;
}
);
layerId = "459CA063-FA7D-4205-A795-7B6CE244EAAB";
paths = (
{
closed = 1;
nodes = (
"128 823 LINE",
"128 878 LINE",
"93 878 LINE",
"93 823 LINE"
);
}
);
width = 220;
},
{
components = (
{
name = I;
}
);
layerId = "EA657207-4E15-4023-BA2A-6FA5407A60CD";
paths = (
{
closed = 1;
nodes = (
"239 706 LINE",
"239 859 LINE",
"53 859 LINE",
"53 706 LINE"
);
}
);
width = 292;
},
{
components = (
{
alignment = -1;
name = I;
}
);
layerId = "5E4DD32C-6BC9-4010-93B4-D8C61BED16DC";
paths = (
{
closed = 1;
nodes = (
"163 799 LINE",
"163 888 LINE",
"86 888 LINE",
"86 799 LINE"
);
}
);
width = 248.47059;
},
{
components = (
{
name = I;
}
);
layerId = "0DA49D7F-B466-4A74-9166-6D7870CD51D2";
paths = (
{
closed = 1;
nodes = (
"328 706 LINE",
"358 859 LINE",
"172 859 LINE",
"142 706 LINE"
);
}
);
width = 292;
},
{
components = (
{
alignment = -1;
name = I;
}
);
layerId = "3B241295-E7D1-482F-A49F-5B690F967CBA";
paths = (
{
closed = 1;
nodes = (
"269 799 LINE",
"286 888 LINE",
"209 888 LINE",
"192 799 LINE"
);
}
);
width = 248;
},
{
components = (
{
name = I;
}
);
layerId = "0474999B-FB68-4D9A-82B1-2286F2372C1D";
paths = (
{
closed = 1;
nodes = (
"237 823 LINE",
"247 878 LINE",
"212 878 LINE",
"202 823 LINE"
);
}
);
width = 220;
},
{
components = (
{
name = I;
}
);
layerId = "0E0E1207-0B3B-41BA-8E0C-9BB926F33A45";
paths = (
{
closed = 1;
nodes = (
"139 706 LINE",
"109 859 LINE",
"-77 859 LINE",
"-47 706 LINE"
);
}
);
width = 292;
},
{
components = (
{
alignment = -1;
name = I;
}
);
layerId = "FB927515-0B4B-4E0F-9AFE-1C9AB9ADFFED";
paths = (
{
closed = 1;
nodes = (
"59 799 LINE",
"42 888 LINE",
"-35 888 LINE",
"-18 799 LINE"
);
}
);
width = 248;
},
{
components = (
{
name = I;
}
);
layerId = "9F9B1D74-FF57-4B2A-AEB5-D743B154EFB7";
paths = (
{
closed = 1;
nodes = (
"15 823 LINE",
"5 878 LINE",
"-30 878 LINE",
"-20 823 LINE"
);
}
);
width = 220;
}
);
leftKerningGroup = I;
rightKerningGroup = I;
unicode = 0130;
},
{
color = 5;
glyphname = J;
layers = (
{
layerId = "459CA063-FA7D-4205-A795-7B6CE244EAAB";
paths = (
{
closed = 1;
nodes = (
"138 -73 OFFCURVE",
"191 -69 OFFCURVE",
"191 81 CURVE SMOOTH",
"191 700 LINE",
"155 700 LINE",
"155 96 LINE SMOOTH",
"155 -37 OFFCURVE",
"135 -39 OFFCURVE",
"18 -39 CURVE",
"18 -73 LINE"
);
}
);
width = 280;
},
{
layerId = "EA657207-4E15-4023-BA2A-6FA5407A60CD";
paths = (
{
closed = 1;
nodes = (
"188 -13 OFFCURVE",
"294 -1 OFFCURVE",
"294 177 CURVE SMOOTH",
"294 670 LINE",
"62 670 LINE",
"62 322 LINE SMOOTH",
"62 199 OFFCURVE",
"54 178 OFFCURVE",
"15 178 CURVE",
"15 -13 LINE"
);
}
);
width = 321;
},
{
layerId = "5E4DD32C-6BC9-4010-93B4-D8C61BED16DC";
paths = (
{
closed = 1;
nodes = (
"151 -72 OFFCURVE",
"209 -54 OFFCURVE",
"209 96 CURVE SMOOTH",
"209 691 LINE",
"129 691 LINE",
"129 107 LINE SMOOTH",
"129 7 OFFCURVE",
"107 -1 OFFCURVE",
"18 -1 CURVE",
"18 -72 LINE"
);
}
);
width = 289.4902;
},
{
layerId = "0DA49D7F-B466-4A74-9166-6D7870CD51D2";
paths = (
{
closed = 1;
nodes = (
"150 -13 OFFCURVE",
"250 -10 OFFCURVE",
"285 168 CURVE SMOOTH",
"382 670 LINE",
"150 670 LINE",
"84 331 LINE SMOOTH",
"57 190 OFFCURVE",
"44 178 OFFCURVE",
"1 178 CURVE",
"-23 -13 LINE"
);
}
);
width = 328;
},
{
layerId = "3B241295-E7D1-482F-A49F-5B690F967CBA";
paths = (
{
closed = 1;
nodes = (
"93 -72 OFFCURVE",
"152 -57 OFFCURVE",
"181 93 CURVE SMOOTH",
"297 691 LINE",
"217 691 LINE",
"104 110 LINE SMOOTH",
"85 10 OFFCURVE",
"58 -1 OFFCURVE",
"-31 -1 CURVE",
"-40 -72 LINE"
);
}
);
width = 292;
},
{
layerId = "0474999B-FB68-4D9A-82B1-2286F2372C1D";
paths = (
{
closed = 1;
nodes = (
"78 -73 OFFCURVE",
"130 -70 OFFCURVE",
"159 80 CURVE SMOOTH",
"280 700 LINE",
"244 700 LINE",
"127 97 LINE SMOOTH",
"101 -36 OFFCURVE",
"79 -39 OFFCURVE",
"-38 -39 CURVE",
"-42 -73 LINE"
);
}
);
width = 282;
},
{
layerId = "0E0E1207-0B3B-41BA-8E0C-9BB926F33A45";
paths = (
{
closed = 1;
nodes = (
"239 -13 OFFCURVE",
"348 8 OFFCURVE",
"313 186 CURVE SMOOTH",
"219 670 LINE",
"-13 670 LINE",
"56 313 LINE SMOOTH",
"78 201 OFFCURVE",
"80 178 OFFCURVE",
"42 178 CURVE",
"66 -13 LINE"
);
}
);
width = 328;
},
{
layerId = "FB927515-0B4B-4E0F-9AFE-1C9AB9ADFFED";
paths = (
{
closed = 1;
nodes = (
"214 -72 OFFCURVE",
"270 -51 OFFCURVE",
"241 99 CURVE SMOOTH",
"126 691 LINE",
"46 691 LINE",
"160 104 LINE SMOOTH",
"179 4 OFFCURVE",
"161 -1 OFFCURVE",
"72 -1 CURVE",
"81 -72 LINE"
);
}
);
width = 292;
},
{
layerId = "9F9B1D74-FF57-4B2A-AEB5-D743B154EFB7";
paths = (
{
closed = 1;
nodes = (
"201 -73 OFFCURVE",
"254 -68 OFFCURVE",
"225 82 CURVE SMOOTH",
"105 700 LINE",
"69 700 LINE",
"187 95 LINE SMOOTH",
"213 -38 OFFCURVE",
"194 -39 OFFCURVE",
"77 -39 CURVE",
"81 -73 LINE"
);
}
);
width = 281;
}
);
leftKerningGroup = J;
rightKerningGroup = J;
unicode = 004A;
},
{
color = 5;
glyphname = K;
layers = (
{
layerId = "459CA063-FA7D-4205-A795-7B6CE244EAAB";
paths = (
{
closed = 1;
nodes = (
"128 0 LINE",
"128 329 LINE",
"259 329 LINE",
"490 0 LINE",
"536 0 LINE",
"289 348 LINE",
"520 700 LINE",
"477 700 LINE",
"257 363 LINE",
"128 363 LINE",
"128 700 LINE",
"92 700 LINE",
"92 0 LINE"
);
}
);
width = 553;
},
{
layerId = "EA657207-4E15-4023-BA2A-6FA5407A60CD";
paths = (
{
closed = 1;
nodes = (
"262 0 LINE",
"262 223 LINE",
"303 223 LINE",
"384 0 LINE",
"617 0 LINE",
"500 346 LINE",
"607 670 LINE",
"377 670 LINE",
"302 433 LINE",
"262 433 LINE",
"262 670 LINE",
"30 670 LINE",
"30 0 LINE"
);
}
);
width = 609;
},
{
layerId = "5E4DD32C-6BC9-4010-93B4-D8C61BED16DC";
paths = (
{
closed = 1;
nodes = (
"164 0 LINE",
"164 300 LINE",
"278 304 LINE",
"459 0 LINE",
"554 0 LINE",
"348 344 LINE",
"543 691 LINE",
"451 691 LINE",
"277 375 LINE",
"164 371 LINE",
"164 691 LINE",
"84 691 LINE",
"84 0 LINE"
);
}
);
width = 570.2549;
},
{
layerId = "0DA49D7F-B466-4A74-9166-6D7870CD51D2";
paths = (
{
closed = 1;
nodes = (
"214 0 LINE",
"257 223 LINE",
"300 223 LINE",
"338 0 LINE",
"567 0 LINE",
"519 346 LINE",
"691 670 LINE",
"457 670 LINE",
"336 433 LINE",
"298 433 LINE",
"344 670 LINE",
"112 670 LINE",
"-18 0 LINE"
);
}
);
width = 608;
},
{
layerId = "3B241295-E7D1-482F-A49F-5B690F967CBA";
paths = (
{
closed = 1;
nodes = (
"116 0 LINE",
"174 300 LINE",
"290 304 LINE",
"412 0 LINE",
"505 0 LINE",
"367 344 LINE",
"630 691 LINE",
"536 691 LINE",
"301 375 LINE",
"188 371 LINE",
"250 691 LINE",
"170 691 LINE",
"36 0 LINE"
);
}
);
width = 570;
},
{
layerId = "0474999B-FB68-4D9A-82B1-2286F2372C1D";
paths = (
{
closed = 1;
nodes = (
"79 0 LINE",
"143 329 LINE",
"274 329 LINE",
"441 0 LINE",
"486 0 LINE",
"307 348 LINE",
"607 700 LINE",
"563 700 LINE",
"278 363 LINE",
"149 363 LINE",
"215 700 LINE",
"179 700 LINE",
"43 0 LINE"
);
}
);
width = 552;
},
{
layerId = "0E0E1207-0B3B-41BA-8E0C-9BB926F33A45";
paths = (
{
closed = 1;
nodes = (
"311 0 LINE",
"268 223 LINE",
"307 223 LINE",
"431 0 LINE",
"668 0 LINE",
"482 346 LINE",
"524 670 LINE",
"298 670 LINE",
"269 433 LINE",
"227 433 LINE",
"181 670 LINE",
"-51 670 LINE",
"79 0 LINE"
);
}
);
width = 611;
},
{
layerId = "FB927515-0B4B-4E0F-9AFE-1C9AB9ADFFED";
paths = (
{
closed = 1;
nodes = (
"213 0 LINE",
"155 300 LINE",
"267 304 LINE",
"507 0 LINE",
"604 0 LINE",
"330 344 LINE",
"457 691 LINE",
"367 691 LINE",
"254 375 LINE",
"141 371 LINE",
"79 691 LINE",
"-1 691 LINE",
"133 0 LINE"
);
}
);
width = 571;
},
{
layerId = "9F9B1D74-FF57-4B2A-AEB5-D743B154EFB7";
paths = (
{
closed = 1;
nodes = (
"175 0 LINE",
"111 329 LINE",
"242 329 LINE",
"537 0 LINE",
"584 0 LINE",
"269 348 LINE",
"431 700 LINE",
"389 700 LINE",
"234 363 LINE",
"105 363 LINE",
"39 700 LINE",
"3 700 LINE",
"139 0 LINE"
);
}
);
width = 552;
}
);
leftKerningGroup = I;
rightKerningGroup = K;
unicode = 004B;
},
{
color = 5;
glyphname = Kcommaaccent;
layers = (
{
components = (
{
name = K;
}
);
layerId = "459CA063-FA7D-4205-A795-7B6CE244EAAB";
paths = (
{
closed = 1;
nodes = (
"268 -267 LINE",
"314 -78 LINE",
"277 -78 LINE",
"240 -267 LINE"
);
}
);
width = 553;
},
{
components = (
{
name = K;
}
);
layerId = "EA657207-4E15-4023-BA2A-6FA5407A60CD";
paths = (
{
closed = 1;
nodes = (
"336 -260 LINE",
"398 -45 LINE",
"194 -45 LINE",
"174 -260 LINE"
);
}
);
width = 609;
},
{
components = (
{
alignment = -1;
name = K;
}
);
layerId = "5E4DD32C-6BC9-4010-93B4-D8C61BED16DC";
paths = (
{
closed = 1;
nodes = (
"290 -286 LINE",
"340 -78 LINE",
"263 -78 LINE",
"222 -286 LINE"
);
}
);
width = 569.39216;
},
{
components = (
{
name = K;
}
);
layerId = "0DA49D7F-B466-4A74-9166-6D7870CD51D2";
paths = (
{
closed = 1;
nodes = (
"264 -260 LINE",
"368 -45 LINE",
"161 -45 LINE",
"100 -260 LINE"
);
}
);
width = 609;
},
{
components = (
{
alignment = -1;
name = K;
}
);
layerId = "3B241295-E7D1-482F-A49F-5B690F967CBA";
paths = (
{
closed = 1;
nodes = (
"180 -286 LINE",
"270 -78 LINE",
"192 -78 LINE",
"111 -286 LINE"
);
}
);
width = 569;
},
{
components = (
{
name = K;
}
);
layerId = "0474999B-FB68-4D9A-82B1-2286F2372C1D";
paths = (
{
closed = 1;
nodes = (
"151 -267 LINE",
"234 -78 LINE",
"196 -78 LINE",
"123 -267 LINE"
);
}
);
width = 553;
},
{
components = (
{
name = K;
}
);
layerId = "0E0E1207-0B3B-41BA-8E0C-9BB926F33A45";
paths = (
{
closed = 1;
nodes = (
"395 -260 LINE",
"457 -45 LINE",
"253 -45 LINE",
"233 -260 LINE"
);
}
);
width = 609;
},
{
components = (
{
alignment = -1;
name = K;
}
);
layerId = "FB927515-0B4B-4E0F-9AFE-1C9AB9ADFFED";
paths = (
{
closed = 1;
nodes = (
"342 -286 LINE",
"392 -78 LINE",
"315 -78 LINE",
"274 -286 LINE"
);
}
);
width = 569.39216;
},
{
components = (
{
name = K;
}
);
layerId = "9F9B1D74-FF57-4B2A-AEB5-D743B154EFB7";
paths = (
{
closed = 1;
nodes = (
"268 -267 LINE",
"314 -78 LINE",
"277 -78 LINE",
"240 -267 LINE"
);
}
);
width = 553;
}
);
leftKerningGroup = I;
rightKerningGroup = K;
unicode = 0136;
},
{
color = 5;
glyphname = L;
layers = (
{
layerId = "459CA063-FA7D-4205-A795-7B6CE244EAAB";
paths = (
{
closed = 1;
nodes = (
"469 0 LINE",
"469 34 LINE",
"128 34 LINE",
"128 700 LINE",
"92 700 LINE",
"92 0 LINE"
);
}
);
width = 483;
},
{
layerId = "EA657207-4E15-4023-BA2A-6FA5407A60CD";
paths = (
{
closed = 1;
nodes = (
"480 0 LINE",
"480 189 LINE",
"262 189 LINE",
"262 670 LINE",
"30 670 LINE",
"30 0 LINE"
);
}
);
width = 489;
},
{
layerId = "5E4DD32C-6BC9-4010-93B4-D8C61BED16DC";
paths = (
{
closed = 1;
nodes = (
"466 0 LINE",
"466 72 LINE",
"164 72 LINE",
"164 691 LINE",
"84 691 LINE",
"84 0 LINE"
);
}
);
width = 478.2549;
},
{
layerId = "0DA49D7F-B466-4A74-9166-6D7870CD51D2";
paths = (
{
closed = 1;
nodes = (
"432 0 LINE",
"469 189 LINE",
"251 189 LINE",
"344 670 LINE",
"112 670 LINE",
"-18 0 LINE"
);
}
);
width = 490;
},
{
layerId = "3B241295-E7D1-482F-A49F-5B690F967CBA";
paths = (
{
closed = 1;
nodes = (
"418 0 LINE",
"432 72 LINE",
"130 72 LINE",
"250 691 LINE",
"170 691 LINE",
"36 0 LINE"
);
}
);
width = 479;
},
{
layerId = "0474999B-FB68-4D9A-82B1-2286F2372C1D";
paths = (
{
closed = 1;
nodes = (
"420 0 LINE",
"426 34 LINE",
"85 34 LINE",
"215 700 LINE",
"179 700 LINE",
"43 0 LINE"
);
}
);
width = 483;
},
{
layerId = "0E0E1207-0B3B-41BA-8E0C-9BB926F33A45";
paths = (
{
closed = 1;
nodes = (
"529 0 LINE",
"492 189 LINE",
"274 189 LINE",
"181 670 LINE",
"-51 670 LINE",
"79 0 LINE"
);
}
);
width = 489;
},
{
layerId = "FB927515-0B4B-4E0F-9AFE-1C9AB9ADFFED";
paths = (
{
closed = 1;
nodes = (
"513 0 LINE",
"499 72 LINE",
"197 72 LINE",
"77 691 LINE",
"-3 691 LINE",
"131 0 LINE"
);
}
);
width = 476;
},
{
layerId = "9F9B1D74-FF57-4B2A-AEB5-D743B154EFB7";
paths = (
{
closed = 1;
nodes = (
"520 0 LINE",
"514 34 LINE",
"173 34 LINE",
"43 700 LINE",
"7 700 LINE",
"143 0 LINE"
);
}
);
width = 486;
}
);
leftKerningGroup = I;
rightKerningGroup = L;
unicode = 004C;
},
{
color = 5;
glyphname = Lcaron;
layers = (
{
components = (
{
name = L;
}
);
layerId = "459CA063-FA7D-4205-A795-7B6CE244EAAB";
paths = (
{
closed = 1;
nodes = (
"424 483 LINE",
"424 700 LINE",
"390 700 LINE",
"390 483 LINE"
);
}
);
width = 492;
},
{
components = (
{
name = L;
}
);
layerId = "EA657207-4E15-4023-BA2A-6FA5407A60CD";
paths = (
{
closed = 1;
nodes = (
"480 488 LINE",
"542 703 LINE",
"338 703 LINE",
"318 488 LINE"
);
}
);
width = 512;
},
{
components = (
{
alignment = -1;
name = L;
}
);
layerId = "5E4DD32C-6BC9-4010-93B4-D8C61BED16DC";
paths = (
{
closed = 1;
nodes = (
"440 460 LINE",
"440 696 LINE",
"365 696 LINE",
"365 460 LINE"
);
}
);
width = 494.58824;
},
{
components = (
{
name = L;
}
);
layerId = "0DA49D7F-B466-4A74-9166-6D7870CD51D2";
paths = (
{
closed = 1;
nodes = (
"529 488 LINE",
"633 703 LINE",
"427 703 LINE",
"365 488 LINE"
);
}
);
width = 512;
},
{
components = (
{
alignment = -1;
name = L;
}
);
layerId = "3B241295-E7D1-482F-A49F-5B690F967CBA";
paths = (
{
closed = 1;
nodes = (
"432 460 LINE",
"478 696 LINE",
"403 696 LINE",
"357 460 LINE"
);
}
);
width = 495;
},
{
components = (
{
name = L;
}
);
layerId = "0474999B-FB68-4D9A-82B1-2286F2372C1D";
paths = (
{
closed = 1;
nodes = (
"421 483 LINE",
"463 700 LINE",
"429 700 LINE",
"387 483 LINE"
);
}
);
width = 492;
},
{
components = (
{
name = L;
}
);
layerId = "0E0E1207-0B3B-41BA-8E0C-9BB926F33A45";
paths = (
{
closed = 1;
nodes = (
"480 488 LINE",
"542 703 LINE",
"338 703 LINE",
"318 488 LINE"
);
}
);
width = 512;
},
{
components = (
{
alignment = -1;
name = L;
}
);
layerId = "FB927515-0B4B-4E0F-9AFE-1C9AB9ADFFED";
paths = (
{
closed = 1;
nodes = (
"330 460 LINE",
"330 696 LINE",
"255 696 LINE",
"255 460 LINE"
);
}
);
width = 494.58824;
},
{
components = (
{
name = L;
}
);
layerId = "9F9B1D74-FF57-4B2A-AEB5-D743B154EFB7";
paths = (
{
closed = 1;
nodes = (
"334 483 LINE",
"334 700 LINE",
"300 700 LINE",
"300 483 LINE"
);
}
);
width = 492;
}
);
leftKerningGroup = I;
rightKerningGroup = L;
unicode = 013D;
},
{
color = 5;
glyphname = Lcommaaccent;
layers = (
{
components = (
{
name = L;
}
);
layerId = "459CA063-FA7D-4205-A795-7B6CE244EAAB";
paths = (
{
closed = 1;
nodes = (
"256 -267 LINE",
"302 -78 LINE",
"265 -78 LINE",
"228 -267 LINE"
);
}
);
width = 483;
},
{
components = (
{
name = L;
}
);
layerId = "EA657207-4E15-4023-BA2A-6FA5407A60CD";
paths = (
{
closed = 1;
nodes = (
"297 -260 LINE",
"359 -45 LINE",
"155 -45 LINE",
"135 -260 LINE"
);
}
);
width = 489;
},
{
components = (
{
alignment = -1;
name = L;
}
);
layerId = "5E4DD32C-6BC9-4010-93B4-D8C61BED16DC";
paths = (
{
closed = 1;
nodes = (
"266 -286 LINE",
"316 -78 LINE",
"239 -78 LINE",
"198 -286 LINE"
);
}
);
width = 478.2549;
},
{
components = (
{
name = L;
}
);
layerId = "0DA49D7F-B466-4A74-9166-6D7870CD51D2";
paths = (
{
closed = 1;
nodes = (
"253 -260 LINE",
"357 -45 LINE",
"150 -45 LINE",
"89 -260 LINE"
);
}
);
width = 489;
},
{
components = (
{
alignment = -1;
name = L;
}
);
layerId = "3B241295-E7D1-482F-A49F-5B690F967CBA";
paths = (
{
closed = 1;
nodes = (
"217 -286 LINE",
"307 -78 LINE",
"229 -78 LINE",
"148 -286 LINE"
);
}
);
width = 478;
},
{
components = (
{
name = L;
}
);
layerId = "0474999B-FB68-4D9A-82B1-2286F2372C1D";
paths = (
{
closed = 1;
nodes = (
"200 -267 LINE",
"283 -78 LINE",
"245 -78 LINE",
"172 -267 LINE"
);
}
);
width = 483;
},
{
components = (
{
name = L;
}
);
layerId = "0E0E1207-0B3B-41BA-8E0C-9BB926F33A45";
paths = (
{
closed = 1;
nodes = (
"297 -260 LINE",
"359 -45 LINE",
"155 -45 LINE",
"135 -260 LINE"
);
}
);
width = 489;
},
{
components = (
{
alignment = -1;
name = L;
}
);
layerId = "FB927515-0B4B-4E0F-9AFE-1C9AB9ADFFED";
paths = (
{
closed = 1;
nodes = (
"266 -286 LINE",
"316 -78 LINE",
"239 -78 LINE",
"198 -286 LINE"
);
}
);
width = 478.2549;
},
{
components = (
{
name = L;
}
);
layerId = "9F9B1D74-FF57-4B2A-AEB5-D743B154EFB7";
paths = (
{
closed = 1;
nodes = (
"256 -267 LINE",
"302 -78 LINE",
"265 -78 LINE",
"228 -267 LINE"
);
}
);
width = 483;
}
);
leftKerningGroup = I;
rightKerningGroup = L;
unicode = 013B;
},
{
color = 5;
glyphname = Lslash;
layers = (
{
components = (
{
name = L;
transform = "{1, 0, 0, 1, 2, 0}";
}
);
layerId = "459CA063-FA7D-4205-A795-7B6CE244EAAB";
paths = (
{
closed = 1;
nodes = (
"320 467 LINE",
"301 493 LINE",
"9 288 LINE",
"28 262 LINE"
);
}
);
width = 485;
},
{
components = (
{
name = L;
transform = "{1, 0, 0, 1, 4, 0}";
}
);
layerId = "EA657207-4E15-4023-BA2A-6FA5407A60CD";
paths = (
{
closed = 1;
nodes = (
"340 319 LINE",
"340 506 LINE",
"3 338 LINE",
"3 151 LINE"
);
}
);
width = 493;
},
{
components = (
{
alignment = -1;
name = L;
transform = "{1, 0, 0, 1, 5, 0}";
}
);
layerId = "5E4DD32C-6BC9-4010-93B4-D8C61BED16DC";
paths = (
{
closed = 1;
nodes = (
"348 451 LINE",
"309 504 LINE",
"-5 284 LINE",
"34 230 LINE"
);
}
);
width = 483.27451;
},
{
components = (
{
name = L;
}
);
layerId = "0DA49D7F-B466-4A74-9166-6D7870CD51D2";
paths = (
{
closed = 1;
nodes = (
"336 319 LINE",
"370 506 LINE",
"0 338 LINE",
"-34 151 LINE"
);
}
);
width = 490;
},
{
components = (
{
name = L;
}
);
layerId = "3B241295-E7D1-482F-A49F-5B690F967CBA";
paths = (
{
closed = 1;
nodes = (
"338 451 LINE",
"308 504 LINE",
"-47 284 LINE",
"-17 230 LINE"
);
}
);
width = 479;
},
{
components = (
{
name = L;
}
);
layerId = "0474999B-FB68-4D9A-82B1-2286F2372C1D";
paths = (
{
closed = 1;
nodes = (
"313 467 LINE",
"299 493 LINE",
"-32 288 LINE",
"-17 262 LINE"
);
}
);
width = 483;
},
{
components = (
{
name = L;
transform = "{1, 0, 0, 1, 4, 0}";
}
);
layerId = "0E0E1207-0B3B-41BA-8E0C-9BB926F33A45";
paths = (
{
closed = 1;
nodes = (
"300 319 LINE",
"300 506 LINE",
"-37 338 LINE",
"-37 151 LINE"
);
}
);
width = 493;
},
{
components = (
{
alignment = -1;
name = L;
transform = "{1, 0, 0, 1, 5, 0}";
}
);
layerId = "FB927515-0B4B-4E0F-9AFE-1C9AB9ADFFED";
paths = (
{
closed = 1;
nodes = (
"348 451 LINE",
"309 504 LINE",
"-5 284 LINE",
"34 230 LINE"
);
}
);
width = 483.27451;
},
{
components = (
{
name = L;
transform = "{1, 0, 0, 1, 2, 0}";
}
);
layerId = "9F9B1D74-FF57-4B2A-AEB5-D743B154EFB7";
paths = (
{
closed = 1;
nodes = (
"320 467 LINE",
"301 493 LINE",
"9 288 LINE",
"28 262 LINE"
);
}
);
width = 485;
}
);
leftKerningGroup = I;
rightKerningGroup = L;
unicode = 0141;
},
{
color = 5;
glyphname = M;
layers = (
{
layerId = "459CA063-FA7D-4205-A795-7B6CE244EAAB";
paths = (
{
closed = 1;
nodes = (
"128 0 LINE",
"128 666 LINE",
"142 666 LINE",
"388 21 LINE",
"440 21 LINE",
"686 666 LINE",
"700 666 LINE",
"700 0 LINE",
"736 0 LINE",
"736 700 LINE",
"660 700 LINE",
"414 55 LINE",
"168 700 LINE",
"92 700 LINE",
"92 0 LINE"
);
}
);
width = 828;
},
{
layerId = "EA657207-4E15-4023-BA2A-6FA5407A60CD";
paths = (
{
closed = 1;
nodes = (
"262 0 LINE",
"262 345 LINE",
"273 345 LINE",
"330 7 LINE",
"524 7 LINE",
"582 345 LINE",
"593 345 LINE",
"593 0 LINE",
"825 0 LINE",
"825 670 LINE",
"470 670 LINE",
"427 414 LINE",
"375 670 LINE",
"30 670 LINE",
"30 0 LINE"
);
}
);
width = 855;
},
{
layerId = "5E4DD32C-6BC9-4010-93B4-D8C61BED16DC";
paths = (
{
closed = 1;
nodes = (
"164 0 LINE",
"164 606 LINE",
"179 606 LINE",
"376 25 LINE",
"465 25 LINE",
"662 606 LINE",
"677 606 LINE",
"677 0 LINE",
"757 0 LINE",
"757 691 LINE",
"612 691 LINE",
"420 111 LINE",
"229 691 LINE",
"84 691 LINE",
"84 0 LINE"
);
}
);
width = 840.94118;
},
{
layerId = "0DA49D7F-B466-4A74-9166-6D7870CD51D2";
paths = (
{
closed = 1;
nodes = (
"214 0 LINE",
"281 345 LINE",
"293 345 LINE",
"284 7 LINE",
"478 7 LINE",
"602 345 LINE",
"612 345 LINE",
"545 0 LINE",
"777 0 LINE",
"907 670 LINE",
"551 670 LINE",
"457 414 LINE",
"456 670 LINE",
"112 670 LINE",
"-18 0 LINE"
);
}
);
width = 856;
},
{
layerId = "3B241295-E7D1-482F-A49F-5B690F967CBA";
paths = (
{
closed = 1;
nodes = (
"116 0 LINE",
"234 606 LINE",
"249 606 LINE",
"333 25 LINE",
"422 25 LINE",
"732 606 LINE",
"747 606 LINE",
"629 0 LINE",
"709 0 LINE",
"843 691 LINE",
"697 691 LINE",
"392 111 LINE",
"314 691 LINE",
"170 691 LINE",
"36 0 LINE"
);
}
);
width = 842;
},
{
layerId = "0474999B-FB68-4D9A-82B1-2286F2372C1D";
paths = (
{
closed = 1;
nodes = (
"79 0 LINE",
"208 666 LINE",
"223 666 LINE",
"343 21 LINE",
"395 21 LINE",
"767 666 LINE",
"780 666 LINE",
"651 0 LINE",
"687 0 LINE",
"823 700 LINE",
"746 700 LINE",
"375 55 LINE",
"254 700 LINE",
"179 700 LINE",
"43 0 LINE"
);
}
);
width = 828;
},
{
layerId = "0E0E1207-0B3B-41BA-8E0C-9BB926F33A45";
paths = (
{
closed = 1;
nodes = (
"311 0 LINE",
"244 345 LINE",
"254 345 LINE",
"377 7 LINE",
"571 7 LINE",
"563 345 LINE",
"575 345 LINE",
"642 0 LINE",
"874 0 LINE",
"744 670 LINE",
"390 670 LINE",
"398 414 LINE",
"295 670 LINE",
"-51 670 LINE",
"79 0 LINE"
);
}
);
width = 856;
},
{
layerId = "FB927515-0B4B-4E0F-9AFE-1C9AB9ADFFED";
paths = (
{
closed = 1;
nodes = (
"213 0 LINE",
"95 606 LINE",
"110 606 LINE",
"420 25 LINE",
"509 25 LINE",
"593 606 LINE",
"608 606 LINE",
"726 0 LINE",
"806 0 LINE",
"672 691 LINE",
"528 691 LINE",
"449 111 LINE",
"145 691 LINE",
"-1 691 LINE",
"133 0 LINE"
);
}
);
width = 842;
},
{
layerId = "9F9B1D74-FF57-4B2A-AEB5-D743B154EFB7";
paths = (
{
closed = 1;
nodes = (
"177 0 LINE",
"48 666 LINE",
"61 666 LINE",
"433 21 LINE",
"485 21 LINE",
"605 666 LINE",
"620 666 LINE",
"749 0 LINE",
"785 0 LINE",
"649 700 LINE",
"574 700 LINE",
"453 55 LINE",
"82 700 LINE",
"5 700 LINE",
"141 0 LINE"
);
}
);
width = 828;
}
);
leftKerningGroup = I;
rightKerningGroup = I;
unicode = 004D;
},
{
color = 5;
glyphname = N;
layers = (
{
layerId = "459CA063-FA7D-4205-A795-7B6CE244EAAB";
paths = (
{
closed = 1;
nodes = (
"128 0 LINE",
"128 666 LINE",
"154 666 LINE",
"488 0 LINE",
"573 0 LINE",
"573 700 LINE",
"537 700 LINE",
"537 34 LINE",
"510 34 LINE",
"177 700 LINE",
"92 700 LINE",
"92 0 LINE"
);
}
);
width = 665;
},
{
layerId = "EA657207-4E15-4023-BA2A-6FA5407A60CD";
paths = (
{
closed = 1;
nodes = (
"262 0 LINE",
"262 273 LINE",
"277 273 LINE",
"429 0 LINE",
"658 0 LINE",
"658 670 LINE",
"426 670 LINE",
"426 416 LINE",
"412 416 LINE",
"258 670 LINE",
"30 670 LINE",
"30 0 LINE"
);
}
);
width = 688;
},
{
layerId = "5E4DD32C-6BC9-4010-93B4-D8C61BED16DC";
paths = (
{
closed = 1;
nodes = (
"164 0 LINE",
"164 620 LINE",
"183 620 LINE",
"447 0 LINE",
"593 0 LINE",
"593 691 LINE",
"513 691 LINE",
"513 71 LINE",
"493 71 LINE",
"233 691 LINE",
"84 691 LINE",
"84 0 LINE"
);
}
);
width = 677.07843;
},
{
layerId = "0DA49D7F-B466-4A74-9166-6D7870CD51D2";
paths = (
{
closed = 1;
nodes = (
"214 0 LINE",
"267 273 LINE",
"284 273 LINE",
"383 0 LINE",
"610 0 LINE",
"740 670 LINE",
"508 670 LINE",
"459 416 LINE",
"442 416 LINE",
"337 670 LINE",
"112 670 LINE",
"-18 0 LINE"
);
}
);
width = 689;
},
{
layerId = "3B241295-E7D1-482F-A49F-5B690F967CBA";
paths = (
{
closed = 1;
nodes = (
"116 0 LINE",
"236 620 LINE",
"256 620 LINE",
"400 0 LINE",
"545 0 LINE",
"679 691 LINE",
"599 691 LINE",
"479 71 LINE",
"458 71 LINE",
"318 691 LINE",
"170 691 LINE",
"36 0 LINE"
);
}
);
width = 678;
},
{
layerId = "0474999B-FB68-4D9A-82B1-2286F2372C1D";
paths = (
{
closed = 1;
nodes = (
"79 0 LINE",
"208 666 LINE",
"235 666 LINE",
"439 0 LINE",
"524 0 LINE",
"660 700 LINE",
"624 700 LINE",
"494 34 LINE",
"467 34 LINE",
"263 700 LINE",
"179 700 LINE",
"43 0 LINE"
);
}
);
width = 665;
},
{
layerId = "0E0E1207-0B3B-41BA-8E0C-9BB926F33A45";
paths = (
{
closed = 1;
nodes = (
"311 0 LINE",
"258 273 LINE",
"271 273 LINE",
"476 0 LINE",
"707 0 LINE",
"577 670 LINE",
"345 670 LINE",
"394 416 LINE",
"383 416 LINE",
"180 670 LINE",
"-51 670 LINE",
"79 0 LINE"
);
}
);
width = 689;
},
{
layerId = "FB927515-0B4B-4E0F-9AFE-1C9AB9ADFFED";
paths = (
{
closed = 1;
nodes = (
"211 0 LINE",
"91 620 LINE",
"109 620 LINE",
"493 0 LINE",
"640 0 LINE",
"506 691 LINE",
"426 691 LINE",
"546 71 LINE",
"527 71 LINE",
"147 691 LINE",
"-3 691 LINE",
"131 0 LINE"
);
}
);
width = 674;
},
{
layerId = "9F9B1D74-FF57-4B2A-AEB5-D743B154EFB7";
paths = (
{
closed = 1;
nodes = (
"177 0 LINE",
"48 666 LINE",
"73 666 LINE",
"537 0 LINE",
"622 0 LINE",
"486 700 LINE",
"450 700 LINE",
"580 34 LINE",
"553 34 LINE",
"91 700 LINE",
"5 700 LINE",
"141 0 LINE"
);
}
);
width = 665;
}
);
leftKerningGroup = I;
rightKerningGroup = I;
unicode = 004E;
},
{
color = 5;
glyphname = Ncommaaccent;
layers = (
{
components = (
{
name = N;
}
);
layerId = "459CA063-FA7D-4205-A795-7B6CE244EAAB";
paths = (
{
closed = 1;
nodes = (
"331 -267 LINE",
"377 -78 LINE",
"340 -78 LINE",
"303 -267 LINE"
);
}
);
width = 665;
},
{
components = (
{
name = N;
}
);
layerId = "EA657207-4E15-4023-BA2A-6FA5407A60CD";
paths = (
{
closed = 1;
nodes = (
"404 -260 LINE",
"466 -45 LINE",
"262 -45 LINE",
"242 -260 LINE"
);
}
);
width = 688;
},
{
components = (
{
alignment = -1;
name = N;
}
);
layerId = "5E4DD32C-6BC9-4010-93B4-D8C61BED16DC";
paths = (
{
closed = 1;
nodes = (
"350 -286 LINE",
"399 -78 LINE",
"322 -78 LINE",
"281 -286 LINE"
);
}
);
width = 677.07843;
},
{
components = (
{
name = N;
}
);
layerId = "0DA49D7F-B466-4A74-9166-6D7870CD51D2";
paths = (
{
closed = 1;
nodes = (
"278 -260 LINE",
"382 -45 LINE",
"175 -45 LINE",
"114 -260 LINE"
);
}
);
width = 688;
},
{
components = (
{
alignment = -1;
name = N;
}
);
layerId = "3B241295-E7D1-482F-A49F-5B690F967CBA";
paths = (
{
closed = 1;
nodes = (
"198 -286 LINE",
"287 -78 LINE",
"209 -78 LINE",
"128 -286 LINE"
);
}
);
width = 677;
},
{
components = (
{
name = N;
}
);
layerId = "0474999B-FB68-4D9A-82B1-2286F2372C1D";
paths = (
{
closed = 1;
nodes = (
"182 -267 LINE",
"265 -78 LINE",
"227 -78 LINE",
"154 -267 LINE"
);
}
);
width = 665;
},
{
components = (
{
name = N;
}
);
layerId = "0E0E1207-0B3B-41BA-8E0C-9BB926F33A45";
paths = (
{
closed = 1;
nodes = (
"404 -260 LINE",
"466 -45 LINE",
"262 -45 LINE",
"242 -260 LINE"
);
}
);
width = 688;
},
{
components = (
{
alignment = -1;
name = N;
}
);
layerId = "FB927515-0B4B-4E0F-9AFE-1C9AB9ADFFED";
paths = (
{
closed = 1;
nodes = (
"350 -286 LINE",
"399 -78 LINE",
"322 -78 LINE",
"281 -286 LINE"
);
}
);
width = 677.07843;
},
{
components = (
{
name = N;
}
);
layerId = "9F9B1D74-FF57-4B2A-AEB5-D743B154EFB7";
paths = (
{
closed = 1;
nodes = (
"331 -267 LINE",
"377 -78 LINE",
"340 -78 LINE",
"303 -267 LINE"
);
}
);
width = 665;
}
);
leftKerningGroup = I;
rightKerningGroup = I;
unicode = 0145;
},
{
color = 5;
glyphname = Eng;
layers = (
{
components = (
{
name = N;
}
);
layerId = "459CA063-FA7D-4205-A795-7B6CE244EAAB";
paths = (
{
closed = 1;
nodes = (
"520 -152 OFFCURVE",
"573 -148 OFFCURVE",
"573 2 CURVE SMOOTH",
"573 48 LINE",
"537 48 LINE",
"537 17 LINE SMOOTH",
"537 -116 OFFCURVE",
"517 -118 OFFCURVE",
"400 -118 CURVE",
"400 -152 LINE"
);
}
);
width = 671;
},
{
components = (
{
name = N;
}
);
layerId = "EA657207-4E15-4023-BA2A-6FA5407A60CD";
paths = (
{
closed = 1;
nodes = (
"613 -224 OFFCURVE",
"658 -197 OFFCURVE",
"658 7 CURVE SMOOTH",
"658 14 LINE",
"429 14 LINE",
"429 0 LINE SMOOTH",
"429 -72 OFFCURVE",
"421 -78 OFFCURVE",
"340 -116 CURVE",
"412 -286 LINE"
);
}
);
width = 688;
},
{
components = (
{
alignment = -1;
name = N;
}
);
layerId = "5E4DD32C-6BC9-4010-93B4-D8C61BED16DC";
paths = (
{
closed = 1;
nodes = (
"535 -185 OFFCURVE",
"593 -167 OFFCURVE",
"593 -17 CURVE SMOOTH",
"593 39 LINE",
"513 39 LINE",
"513 -6 LINE SMOOTH",
"513 -107 OFFCURVE",
"490 -114 OFFCURVE",
"402 -114 CURVE",
"402 -185 LINE"
);
}
);
width = 678.33333;
},
{
components = (
{
name = N;
}
);
layerId = "0DA49D7F-B466-4A74-9166-6D7870CD51D2";
paths = (
{
closed = 1;
nodes = (
"528 -227 OFFCURVE",
"576 -207 OFFCURVE",
"610 -2 CURVE SMOOTH",
"613 16 LINE",
"385 14 LINE",
"383 9 LINE SMOOTH",
"356 -59 OFFCURVE",
"353 -74 OFFCURVE",
"265 -112 CURVE",
"318 -289 LINE"
);
}
);
width = 688;
},
{
components = (
{
alignment = -1;
name = N;
}
);
layerId = "3B241295-E7D1-482F-A49F-5B690F967CBA";
paths = (
{
closed = 1;
nodes = (
"454 -183 OFFCURVE",
"513 -168 OFFCURVE",
"542 -18 CURVE SMOOTH",
"553 41 LINE",
"473 41 LINE",
"465 -1 LINE SMOOTH",
"446 -102 OFFCURVE",
"418 -112 OFFCURVE",
"330 -112 CURVE",
"322 -183 LINE"
);
}
);
width = 678;
},
{
components = (
{
name = N;
}
);
layerId = "0474999B-FB68-4D9A-82B1-2286F2372C1D";
paths = (
{
closed = 1;
nodes = (
"442 -152 OFFCURVE",
"495 -149 OFFCURVE",
"524 1 CURVE SMOOTH",
"533 48 LINE",
"497 48 LINE",
"491 18 LINE SMOOTH",
"466 -115 OFFCURVE",
"444 -118 OFFCURVE",
"327 -118 CURVE",
"323 -152 LINE"
);
}
);
width = 671;
},
{
components = (
{
name = N;
}
);
layerId = "0E0E1207-0B3B-41BA-8E0C-9BB926F33A45";
paths = (
{
closed = 1;
nodes = (
"699 -221 OFFCURVE",
"744 -188 OFFCURVE",
"704 16 CURVE SMOOTH",
"704 14 LINE",
"475 14 LINE",
"480 -9 LINE SMOOTH",
"494 -81 OFFCURVE",
"492 -82 OFFCURVE",
"419 -120 CURVE",
"508 -283 LINE"
);
}
);
width = 688;
},
{
components = (
{
alignment = -1;
name = N;
}
);
layerId = "FB927515-0B4B-4E0F-9AFE-1C9AB9ADFFED";
paths = (
{
closed = 1;
nodes = (
"616 -185 OFFCURVE",
"672 -164 OFFCURVE",
"643 -14 CURVE SMOOTH",
"633 39 LINE",
"553 39 LINE",
"562 -9 LINE SMOOTH",
"582 -110 OFFCURVE",
"562 -114 OFFCURVE",
"474 -114 CURVE",
"483 -185 LINE"
);
}
);
width = 678;
},
{
components = (
{
name = N;
}
);
layerId = "9F9B1D74-FF57-4B2A-AEB5-D743B154EFB7";
paths = (
{
closed = 1;
nodes = (
"598 -152 OFFCURVE",
"651 -147 OFFCURVE",
"622 3 CURVE SMOOTH",
"613 48 LINE",
"577 48 LINE",
"583 16 LINE SMOOTH",
"609 -117 OFFCURVE",
"590 -118 OFFCURVE",
"473 -118 CURVE",
"478 -152 LINE"
);
}
);
width = 671;
}
);
leftKerningGroup = I;
rightKerningGroup = I;
unicode = 014A;
},
{
color = 5;
glyphname = O;
layers = (
{
layerId = "459CA063-FA7D-4205-A795-7B6CE244EAAB";
paths = (
{
closed = 1;
nodes = (
"548 -9 OFFCURVE",
"601 105 OFFCURVE",
"601 347 CURVE SMOOTH",
"601 577 OFFCURVE",
"547 709 OFFCURVE",
"333 709 CURVE SMOOTH",
"119 709 OFFCURVE",
"65 575 OFFCURVE",
"65 347 CURVE SMOOTH",
"65 115 OFFCURVE",
"117 -9 OFFCURVE",
"333 -9 CURVE SMOOTH"
);
},
{
closed = 1;
nodes = (
"140 25 OFFCURVE",
"103 137 OFFCURVE",
"103 347 CURVE SMOOTH",
"103 556 OFFCURVE",
"143 675 OFFCURVE",
"333 675 CURVE SMOOTH",
"521 675 OFFCURVE",
"563 554 OFFCURVE",
"563 347 CURVE SMOOTH",
"563 127 OFFCURVE",
"526 25 OFFCURVE",
"333 25 CURVE SMOOTH"
);
}
);
width = 666;
},
{
layerId = "EA657207-4E15-4023-BA2A-6FA5407A60CD";
paths = (
{
closed = 1;
nodes = (
"558 -13 OFFCURVE",
"654 91 OFFCURVE",
"654 335 CURVE SMOOTH",
"654 579 OFFCURVE",
"558 683 OFFCURVE",
"335 683 CURVE SMOOTH",
"112 683 OFFCURVE",
"16 579 OFFCURVE",
"16 335 CURVE SMOOTH",
"16 91 OFFCURVE",
"115 -13 OFFCURVE",
"335 -13 CURVE SMOOTH"
);
},
{
closed = 1;
nodes = (
"261 175 OFFCURVE",
"250 232 OFFCURVE",
"250 335 CURVE SMOOTH",
"250 438 OFFCURVE",
"261 495 OFFCURVE",
"335 495 CURVE SMOOTH",
"412 495 OFFCURVE",
"420 438 OFFCURVE",
"420 335 CURVE SMOOTH",
"420 233 OFFCURVE",
"411 175 OFFCURVE",
"335 175 CURVE SMOOTH"
);
}
);
width = 670;
},
{
layerId = "5E4DD32C-6BC9-4010-93B4-D8C61BED16DC";
paths = (
{
closed = 1;
nodes = (
"545 -10 OFFCURVE",
"604 105 OFFCURVE",
"604 342 CURVE SMOOTH",
"604 572 OFFCURVE",
"544 702 OFFCURVE",
"330 702 CURVE SMOOTH",
"116 702 OFFCURVE",
"56 571 OFFCURVE",
"56 342 CURVE SMOOTH",
"56 111 OFFCURVE",
"115 -10 OFFCURVE",
"330 -10 CURVE SMOOTH"
);
},
{
closed = 1;
nodes = (
"172 61 OFFCURVE",
"139 155 OFFCURVE",
"139 342 CURVE SMOOTH",
"139 529 OFFCURVE",
"174 631 OFFCURVE",
"330 631 CURVE SMOOTH",
"485 631 OFFCURVE",
"521 528 OFFCURVE",
"521 342 CURVE SMOOTH",
"521 149 OFFCURVE",
"488 61 OFFCURVE",
"330 61 CURVE SMOOTH"
);
}
);
width = 659.96078;
},
{
layerId = "0DA49D7F-B466-4A74-9166-6D7870CD51D2";
paths = (
{
closed = 1;
nodes = (
"514 -13 OFFCURVE",
"622 82 OFFCURVE",
"668 318 CURVE SMOOTH",
"717 570 OFFCURVE",
"636 683 OFFCURVE",
"406 683 CURVE SMOOTH",
"190 683 OFFCURVE",
"82 588 OFFCURVE",
"36 352 CURVE SMOOTH",
"-13 100 OFFCURVE",
"71 -13 OFFCURVE",
"298 -13 CURVE SMOOTH"
);
},
{
closed = 1;
nodes = (
"240 175 OFFCURVE",
"245 223 OFFCURVE",
"264 318 CURVE SMOOTH",
"285 429 OFFCURVE",
"316 495 OFFCURVE",
"397 495 CURVE SMOOTH",
"467 495 OFFCURVE",
"459 447 OFFCURVE",
"440 352 CURVE SMOOTH",
"419 242 OFFCURVE",
"390 175 OFFCURVE",
"307 175 CURVE SMOOTH"
);
}
);
width = 671;
},
{
layerId = "3B241295-E7D1-482F-A49F-5B690F967CBA";
paths = (
{
closed = 1;
nodes = (
"497 -10 OFFCURVE",
"576 102 OFFCURVE",
"621 336 CURVE SMOOTH",
"666 569 OFFCURVE",
"630 702 OFFCURVE",
"413 702 CURVE SMOOTH",
"202 702 OFFCURVE",
"119 574 OFFCURVE",
"75 348 CURVE SMOOTH",
"30 114 OFFCURVE",
"67 -10 OFFCURVE",
"285 -10 CURVE SMOOTH"
);
},
{
closed = 1;
nodes = (
"133 61 OFFCURVE",
"120 152 OFFCURVE",
"156 336 CURVE SMOOTH",
"193 526 OFFCURVE",
"251 631 OFFCURVE",
"410 631 CURVE SMOOTH",
"562 631 OFFCURVE",
"576 531 OFFCURVE",
"540 348 CURVE SMOOTH",
"502 152 OFFCURVE",
"449 61 OFFCURVE",
"289 61 CURVE SMOOTH"
);
}
);
width = 660;
},
{
layerId = "0474999B-FB68-4D9A-82B1-2286F2372C1D";
paths = (
{
closed = 1;
nodes = (
"498 -9 OFFCURVE",
"572 104 OFFCURVE",
"619 344 CURVE SMOOTH",
"664 576 OFFCURVE",
"634 709 OFFCURVE",
"419 709 CURVE SMOOTH",
"206 709 OFFCURVE",
"128 576 OFFCURVE",
"84 350 CURVE SMOOTH",
"38 116 OFFCURVE",
"67 -9 OFFCURVE",
"285 -9 CURVE SMOOTH"
);
},
{
closed = 1;
nodes = (
"94 25 OFFCURVE",
"80 136 OFFCURVE",
"121 344 CURVE SMOOTH",
"162 555 OFFCURVE",
"226 675 OFFCURVE",
"417 675 CURVE SMOOTH",
"604 675 OFFCURVE",
"622 555 OFFCURVE",
"582 350 CURVE SMOOTH",
"539 128 OFFCURVE",
"480 25 OFFCURVE",
"286 25 CURVE SMOOTH"
);
}
);
width = 666;
},
{
layerId = "0E0E1207-0B3B-41BA-8E0C-9BB926F33A45";
paths = (
{
closed = 1;
nodes = (
"603 -13 OFFCURVE",
"684 100 OFFCURVE",
"635 352 CURVE SMOOTH",
"589 588 OFFCURVE",
"481 683 OFFCURVE",
"265 683 CURVE SMOOTH",
"35 683 OFFCURVE",
"-46 570 OFFCURVE",
"3 318 CURVE SMOOTH",
"49 82 OFFCURVE",
"160 -13 OFFCURVE",
"373 -13 CURVE SMOOTH"
);
},
{
closed = 1;
nodes = (
"283 175 OFFCURVE",
"252 241 OFFCURVE",
"231 352 CURVE SMOOTH",
"212 447 OFFCURVE",
"207 495 OFFCURVE",
"274 495 CURVE SMOOTH",
"358 495 OFFCURVE",
"386 429 OFFCURVE",
"407 318 CURVE SMOOTH",
"426 224 OFFCURVE",
"433 175 OFFCURVE",
"364 175 CURVE SMOOTH"
);
}
);
width = 671;
},
{
layerId = "FB927515-0B4B-4E0F-9AFE-1C9AB9ADFFED";
paths = (
{
closed = 1;
nodes = (
"593 -10 OFFCURVE",
"631 108 OFFCURVE",
"585 348 CURVE SMOOTH",
"540 575 OFFCURVE",
"458 702 OFFCURVE",
"247 702 CURVE SMOOTH",
"30 702 OFFCURVE",
"-6 568 OFFCURVE",
"39 336 CURVE SMOOTH",
"83 108 OFFCURVE",
"163 -10 OFFCURVE",
"375 -10 CURVE SMOOTH"
);
},
{
closed = 1;
nodes = (
"211 61 OFFCURVE",
"156 158 OFFCURVE",
"120 348 CURVE SMOOTH",
"84 532 OFFCURVE",
"97 631 OFFCURVE",
"250 631 CURVE SMOOTH",
"408 631 OFFCURVE",
"467 525 OFFCURVE",
"504 336 CURVE SMOOTH",
"541 146 OFFCURVE",
"527 61 OFFCURVE",
"371 61 CURVE SMOOTH"
);
}
);
width = 660;
},
{
layerId = "9F9B1D74-FF57-4B2A-AEB5-D743B154EFB7";
paths = (
{
closed = 1;
nodes = (
"598 -9 OFFCURVE",
"630 106 OFFCURVE",
"582 350 CURVE SMOOTH",
"538 578 OFFCURVE",
"460 709 OFFCURVE",
"247 709 CURVE SMOOTH",
"32 709 OFFCURVE",
"3 574 OFFCURVE",
"47 344 CURVE SMOOTH",
"92 114 OFFCURVE",
"167 -9 OFFCURVE",
"381 -9 CURVE SMOOTH"
);
},
{
closed = 1;
nodes = (
"186 25 OFFCURVE",
"125 138 OFFCURVE",
"84 350 CURVE SMOOTH",
"44 557 OFFCURVE",
"60 675 OFFCURVE",
"249 675 CURVE SMOOTH",
"438 675 OFFCURVE",
"505 553 OFFCURVE",
"545 344 CURVE SMOOTH",
"588 126 OFFCURVE",
"572 25 OFFCURVE",
"380 25 CURVE SMOOTH"
);
}
);
width = 666;
}
);
leftKerningGroup = O;
rightKerningGroup = O;
unicode = 004F;
},
{
color = 5;
glyphname = Oslash;
layers = (
{
components = (
{
name = O;
}
);
layerId = "459CA063-FA7D-4205-A795-7B6CE244EAAB";
paths = (
{
closed = 1;
nodes = (
"558 780 LINE",
"528 792 LINE",
"296 297 LINE",
"327 286 LINE"
);
},
{
closed = 1;
nodes = (
"381 402 LINE",
"352 416 LINE",
"111 -98 LINE",
"141 -109 LINE"
);
}
);
width = 666;
},
{
components = (
{
name = O;
}
);
layerId = "EA657207-4E15-4023-BA2A-6FA5407A60CD";
paths = (
{
closed = 1;
nodes = (
"542 544 LINE",
"601 682 LINE",
"380 725 LINE",
"306 500 LINE"
);
},
{
closed = 1;
nodes = (
"360 93 LINE",
"121 94 LINE",
"84 -11 LINE",
"299 -52 LINE"
);
}
);
width = 670;
},
{
components = (
{
alignment = -1;
name = O;
}
);
layerId = "5E4DD32C-6BC9-4010-93B4-D8C61BED16DC";
paths = (
{
closed = 1;
nodes = (
"571 774 LINE",
"511 800 LINE",
"246 234 LINE",
"305 206 LINE"
);
},
{
closed = 1;
nodes = (
"363 330 LINE",
"303 356 LINE",
"95 -89 LINE",
"154 -117 LINE"
);
}
);
width = 659.96078;
},
{
components = (
{
name = O;
}
);
layerId = "0DA49D7F-B466-4A74-9166-6D7870CD51D2";
paths = (
{
closed = 1;
nodes = (
"559 585 LINE",
"600 682 LINE",
"380 725 LINE",
"306 500 LINE"
);
},
{
closed = 1;
nodes = (
"360 93 LINE",
"121 94 LINE",
"84 -11 LINE",
"299 -52 LINE"
);
}
);
width = 670;
},
{
associatedMasterId = "0DA49D7F-B466-4A74-9166-6D7870CD51D2";
components = (
{
name = O;
}
);
layerId = "4576EB96-2613-484C-984B-F90947CFF07F";
name = "ExtraBlackSlantRight [80]";
paths = (
{
closed = 1;
nodes = (
"556 577 LINE",
"614 715 LINE",
"394 758 LINE",
"320 533 LINE"
);
},
{
closed = 1;
nodes = (
"349 61 LINE",
"110 62 LINE",
"73 -43 LINE",
"288 -84 LINE"
);
}
);
width = 671;
},
{
components = (
{
alignment = -1;
name = O;
}
);
layerId = "3B241295-E7D1-482F-A49F-5B690F967CBA";
paths = (
{
closed = 1;
nodes = (
"571 774 LINE",
"511 800 LINE",
"301 352 LINE",
"360 324 LINE"
);
},
{
closed = 1;
nodes = (
"490 601 LINE",
"430 627 LINE",
"95 -89 LINE",
"154 -117 LINE"
);
}
);
width = 659.96078;
},
{
associatedMasterId = "3B241295-E7D1-482F-A49F-5B690F967CBA";
components = (
{
alignment = -1;
name = O;
}
);
layerId = "277E342B-C30A-4018-BAD6-D938E4601E81";
name = "RegularSlantRight [80]";
paths = (
{
closed = 1;
nodes = (
"502 627 LINE",
"571 774 LINE",
"511 800 LINE",
"442 652 LINE"
);
},
{
closed = 1;
nodes = (
"232 50 LINE",
"172 76 LINE",
"95 -89 LINE",
"154 -117 LINE"
);
}
);
width = 659.96078;
},
{
components = (
{
name = O;
}
);
layerId = "0474999B-FB68-4D9A-82B1-2286F2372C1D";
paths = (
{
closed = 1;
nodes = (
"558 780 LINE",
"528 792 LINE",
"296 297 LINE",
"327 286 LINE"
);
},
{
closed = 1;
nodes = (
"381 402 LINE",
"352 416 LINE",
"111 -98 LINE",
"141 -109 LINE"
);
}
);
width = 666;
},
{
associatedMasterId = "0474999B-FB68-4D9A-82B1-2286F2372C1D";
components = (
{
name = O;
}
);
layerId = "2C1249CF-2648-42D7-A368-84DA88FB7657";
name = "ExtraLightSlantRight [80]";
paths = (
{
closed = 1;
nodes = (
"201 18 LINE",
"172 32 LINE",
"111 -98 LINE",
"141 -109 LINE"
);
},
{
closed = 1;
nodes = (
"558 780 LINE",
"528 792 LINE",
"477 684 LINE",
"508 673 LINE"
);
}
);
width = 666;
},
{
components = (
{
name = O;
}
);
layerId = "0E0E1207-0B3B-41BA-8E0C-9BB926F33A45";
paths = (
{
closed = 1;
nodes = (
"542 544 LINE",
"600 682 LINE",
"380 725 LINE",
"306 500 LINE"
);
},
{
closed = 1;
nodes = (
"360 93 LINE",
"121 94 LINE",
"84 -11 LINE",
"299 -52 LINE"
);
}
);
width = 670;
},
{
associatedMasterId = "0E0E1207-0B3B-41BA-8E0C-9BB926F33A45";
components = (
{
name = O;
}
);
layerId = "4824C584-78FD-4877-963D-3E4EE8C89C64";
name = "ExtraBlackSlantLeft [80]";
paths = (
{
closed = 1;
nodes = (
"542 544 LINE",
"600 682 LINE",
"380 725 LINE",
"306 500 LINE"
);
},
{
closed = 1;
nodes = (
"360 93 LINE",
"121 94 LINE",
"84 -11 LINE",
"299 -52 LINE"
);
}
);
width = 671;
},
{
components = (
{
alignment = -1;
name = O;
}
);
layerId = "FB927515-0B4B-4E0F-9AFE-1C9AB9ADFFED";
paths = (
{
closed = 1;
nodes = (
"571 774 LINE",
"511 800 LINE",
"258 258 LINE",
"317 230 LINE"
);
},
{
closed = 1;
nodes = (
"457 530 LINE",
"398 558 LINE",
"95 -89 LINE",
"154 -117 LINE"
);
}
);
width = 659.96078;
},
{
associatedMasterId = "FB927515-0B4B-4E0F-9AFE-1C9AB9ADFFED";
components = (
{
alignment = -1;
name = O;
}
);
layerId = "5C0F9D18-AB1A-4A3E-B664-C5DAC6F44FBF";
name = "RegularSlantLeft [80]";
paths = (
{
closed = 1;
nodes = (
"471 560 LINE",
"571 774 LINE",
"511 800 LINE",
"415 595 LINE"
);
},
{
closed = 1;
nodes = (
"249 86 LINE",
"190 114 LINE",
"95 -89 LINE",
"154 -117 LINE"
);
}
);
width = 659.96078;
},
{
components = (
{
name = O;
}
);
layerId = "9F9B1D74-FF57-4B2A-AEB5-D743B154EFB7";
paths = (
{
closed = 1;
nodes = (
"558 780 LINE",
"528 792 LINE",
"296 297 LINE",
"327 286 LINE"
);
},
{
closed = 1;
nodes = (
"381 402 LINE",
"352 416 LINE",
"111 -98 LINE",
"141 -109 LINE"
);
}
);
width = 666;
},
{
associatedMasterId = "9F9B1D74-FF57-4B2A-AEB5-D743B154EFB7";
components = (
{
name = O;
}
);
layerId = "9ED97BB1-3AFF-4493-B1AF-891FBA786F46";
name = "ExtraLightSlantLeft [80]";
paths = (
{
closed = 1;
nodes = (
"558 780 LINE",
"528 792 LINE",
"439 616 LINE",
"470 605 LINE"
);
},
{
closed = 1;
nodes = (
"216 49 LINE",
"187 63 LINE",
"111 -98 LINE",
"141 -109 LINE"
);
}
);
width = 666;
},
{
associatedMasterId = "EA657207-4E15-4023-BA2A-6FA5407A60CD";
components = (
{
name = O;
}
);
layerId = "42FC38BA-93B3-492F-AA5B-1495AD959623";
name = "ExtraBlack [80]";
paths = (
{
closed = 1;
nodes = (
"559 585 LINE",
"600 682 LINE",
"380 725 LINE",
"306 500 LINE"
);
},
{
closed = 1;
nodes = (
"360 93 LINE",
"121 94 LINE",
"84 -11 LINE",
"299 -52 LINE"
);
}
);
width = 670;
},
{
associatedMasterId = "5E4DD32C-6BC9-4010-93B4-D8C61BED16DC";
components = (
{
alignment = -1;
name = O;
}
);
layerId = "828C3F9D-5736-47F6-99F5-BF13B238A5C2";
name = "Regular [80]";
paths = (
{
closed = 1;
nodes = (
"496 614 LINE",
"571 775 LINE",
"511 800 LINE",
"430 627 LINE"
);
},
{
closed = 1;
nodes = (
"234 53 LINE",
"174 79 LINE",
"95 -89 LINE",
"154 -117 LINE"
);
}
);
width = 659.96078;
},
{
associatedMasterId = "459CA063-FA7D-4205-A795-7B6CE244EAAB";
components = (
{
name = O;
}
);
layerId = "A57BFCFC-4998-4875-84F3-D7BAF89DB90F";
name = "ExtraLight [80]";
paths = (
{
closed = 1;
nodes = (
"209 35 LINE",
"180 49 LINE",
"111 -98 LINE",
"141 -109 LINE"
);
},
{
closed = 1;
nodes = (
"558 780 LINE",
"528 792 LINE",
"465 658 LINE",
"496 647 LINE"
);
}
);
width = 666;
}
);
leftKerningGroup = O;
rightKerningGroup = O;
unicode = 00D8;
},
{
color = 5;
glyphname = Oslashacute;
layers = (
{
components = (
{
name = acute.cap;
transform = "{1, 0, 0, 1, 216, 0}";
},
{
name = O;
}
);
layerId = "459CA063-FA7D-4205-A795-7B6CE244EAAB";
paths = (
{
closed = 1;
nodes = (
"558 780 LINE",
"528 792 LINE",
"296 297 LINE",
"327 286 LINE"
);
},
{
closed = 1;
nodes = (
"381 402 LINE",
"352 416 LINE",
"111 -98 LINE",
"141 -109 LINE"
);
}
);
width = 668;
},
{
components = (
{
name = acute.cap;
transform = "{1, 0, 0, 1, 171, 78}";
},
{
name = O;
}
);
layerId = "EA657207-4E15-4023-BA2A-6FA5407A60CD";
paths = (
{
closed = 1;
nodes = (
"542 544 LINE",
"601 682 LINE",
"380 725 LINE",
"306 500 LINE"
);
},
{
closed = 1;
nodes = (
"360 93 LINE",
"121 94 LINE",
"84 -11 LINE",
"299 -52 LINE"
);
}
);
width = 670;
},
{
components = (
{
alignment = -1;
name = acute.cap;
transform = "{1, 0, 0, 1, 196, 0}";
},
{
alignment = -1;
name = O;
}
);
layerId = "5E4DD32C-6BC9-4010-93B4-D8C61BED16DC";
paths = (
{
closed = 1;
nodes = (
"571 774 LINE",
"511 800 LINE",
"246 234 LINE",
"305 206 LINE"
);
},
{
closed = 1;
nodes = (
"363 330 LINE",
"303 356 LINE",
"95 -89 LINE",
"154 -117 LINE"
);
}
);
width = 661.96078;
},
{
components = (
{
name = acute.cap;
transform = "{1, 0, 0, 1, 198, 85}";
},
{
name = O;
}
);
layerId = "0DA49D7F-B466-4A74-9166-6D7870CD51D2";
paths = (
{
closed = 1;
nodes = (
"559 585 LINE",
"600 682 LINE",
"380 725 LINE",
"306 500 LINE"
);
},
{
closed = 1;
nodes = (
"360 93 LINE",
"121 94 LINE",
"84 -11 LINE",
"299 -52 LINE"
);
}
);
width = 670;
},
{
components = (
{
alignment = -1;
name = acute.cap;
transform = "{1, 0, 0, 1, 255, 53}";
},
{
alignment = -1;
name = O;
}
);
layerId = "3B241295-E7D1-482F-A49F-5B690F967CBA";
paths = (
{
closed = 1;
nodes = (
"571 774 LINE",
"511 800 LINE",
"301 352 LINE",
"360 324 LINE"
);
},
{
closed = 1;
nodes = (
"490 601 LINE",
"430 627 LINE",
"95 -89 LINE",
"154 -117 LINE"
);
}
);
width = 661.96078;
},
{
components = (
{
name = acute.cap;
transform = "{1, 0, 0, 1, 277, 0}";
},
{
name = O;
}
);
layerId = "0474999B-FB68-4D9A-82B1-2286F2372C1D";
paths = (
{
closed = 1;
nodes = (
"558 780 LINE",
"528 792 LINE",
"296 297 LINE",
"327 286 LINE"
);
},
{
closed = 1;
nodes = (
"381 402 LINE",
"352 416 LINE",
"111 -98 LINE",
"141 -109 LINE"
);
}
);
width = 668;
},
{
components = (
{
name = acute.cap;
transform = "{1, 0, 0, 1, 129, 58}";
},
{
name = O;
}
);
layerId = "0E0E1207-0B3B-41BA-8E0C-9BB926F33A45";
paths = (
{
closed = 1;
nodes = (
"542 544 LINE",
"600 682 LINE",
"380 725 LINE",
"306 500 LINE"
);
},
{
closed = 1;
nodes = (
"360 93 LINE",
"121 94 LINE",
"84 -11 LINE",
"299 -52 LINE"
);
}
);
width = 670;
},
{
components = (
{
alignment = -1;
name = acute.cap;
transform = "{1, 0, 0, 1, 196, 0}";
},
{
alignment = -1;
name = O;
}
);
layerId = "FB927515-0B4B-4E0F-9AFE-1C9AB9ADFFED";
paths = (
{
closed = 1;
nodes = (
"571 774 LINE",
"511 800 LINE",
"258 258 LINE",
"317 230 LINE"
);
},
{
closed = 1;
nodes = (
"457 530 LINE",
"398 558 LINE",
"95 -89 LINE",
"154 -117 LINE"
);
}
);
width = 661.96078;
},
{
components = (
{
name = acute.cap;
transform = "{1, 0, 0, 1, 216, 0}";
},
{
name = O;
}
);
layerId = "9F9B1D74-FF57-4B2A-AEB5-D743B154EFB7";
paths = (
{
closed = 1;
nodes = (
"558 780 LINE",
"528 792 LINE",
"296 297 LINE",
"327 286 LINE"
);
},
{
closed = 1;
nodes = (
"381 402 LINE",
"352 416 LINE",
"111 -98 LINE",
"141 -109 LINE"
);
}
);
width = 668;
},
{
associatedMasterId = "459CA063-FA7D-4205-A795-7B6CE244EAAB";
components = (
{
name = acute.cap;
transform = "{1, 0, 0, 1, 216, 0}";
},
{
name = O;
}
);
layerId = "931ED151-A6CB-4641-B60F-229442A40A95";
name = "ExtraLight [80]";
paths = (
{
closed = 1;
nodes = (
"209 35 LINE",
"180 49 LINE",
"111 -98 LINE",
"141 -109 LINE"
);
},
{
closed = 1;
nodes = (
"558 780 LINE",
"528 792 LINE",
"465 658 LINE",
"496 647 LINE"
);
}
);
width = 668;
},
{
associatedMasterId = "5E4DD32C-6BC9-4010-93B4-D8C61BED16DC";
components = (
{
alignment = -1;
name = acute.cap;
transform = "{1, 0, 0, 1, 196, 0}";
},
{
alignment = -1;
name = O;
}
);
layerId = "207AF59A-2E36-4262-B32E-3A8907A14911";
name = "Regular [80]";
paths = (
{
closed = 1;
nodes = (
"496 614 LINE",
"571 775 LINE",
"511 800 LINE",
"430 627 LINE"
);
},
{
closed = 1;
nodes = (
"234 53 LINE",
"174 79 LINE",
"95 -89 LINE",
"154 -117 LINE"
);
}
);
width = 661.96078;
},
{
associatedMasterId = "EA657207-4E15-4023-BA2A-6FA5407A60CD";
components = (
{
name = acute.cap;
transform = "{1, 0, 0, 1, 171, 78}";
},
{
name = O;
}
);
layerId = "9BD5EED7-506D-427B-AC44-30D9F1AC0B3A";
name = "ExtraBlack [80]";
paths = (
{
closed = 1;
nodes = (
"559 585 LINE",
"600 682 LINE",
"380 725 LINE",
"306 500 LINE"
);
},
{
closed = 1;
nodes = (
"360 93 LINE",
"121 94 LINE",
"84 -11 LINE",
"299 -52 LINE"
);
}
);
width = 670;
},
{
associatedMasterId = "0474999B-FB68-4D9A-82B1-2286F2372C1D";
components = (
{
name = acute.cap;
transform = "{1, 0, 0, 1, 277, 0}";
},
{
name = O;
}
);
layerId = "790AA02B-4489-4123-91E7-F69A332A55BC";
name = "ExtraLightSlantRight [80]";
paths = (
{
closed = 1;
nodes = (
"201 18 LINE",
"172 32 LINE",
"111 -98 LINE",
"141 -109 LINE"
);
},
{
closed = 1;
nodes = (
"558 780 LINE",
"528 792 LINE",
"477 684 LINE",
"508 673 LINE"
);
}
);
width = 668;
},
{
associatedMasterId = "3B241295-E7D1-482F-A49F-5B690F967CBA";
components = (
{
alignment = -1;
name = acute.cap;
transform = "{1, 0, 0, 1, 255, 53}";
},
{
alignment = -1;
name = O;
}
);
layerId = "84E02E59-A545-418C-912A-EE456B9FDDC2";
name = "RegularSlantRight [80]";
paths = (
{
closed = 1;
nodes = (
"502 627 LINE",
"571 774 LINE",
"511 800 LINE",
"442 652 LINE"
);
},
{
closed = 1;
nodes = (
"232 50 LINE",
"172 76 LINE",
"95 -89 LINE",
"154 -117 LINE"
);
}
);
width = 661.96078;
},
{
associatedMasterId = "0DA49D7F-B466-4A74-9166-6D7870CD51D2";
components = (
{
name = acute.cap;
transform = "{1, 0, 0, 1, 198, 85}";
},
{
name = O;
}
);
layerId = "4300B066-8D05-405D-B1ED-F00B7147116D";
name = "ExtraBlackSlantRight [80]";
paths = (
{
closed = 1;
nodes = (
"556 577 LINE",
"614 715 LINE",
"394 758 LINE",
"320 533 LINE"
);
},
{
closed = 1;
nodes = (
"349 61 LINE",
"110 62 LINE",
"73 -43 LINE",
"288 -84 LINE"
);
}
);
width = 670;
},
{
associatedMasterId = "9F9B1D74-FF57-4B2A-AEB5-D743B154EFB7";
components = (
{
name = acute.cap;
transform = "{1, 0, 0, 1, 216, 0}";
},
{
name = O;
}
);
layerId = "6091C76C-0174-40EB-BC68-3622D139B89F";
name = "ExtraLightSlantLeft [80]";
paths = (
{
closed = 1;
nodes = (
"558 780 LINE",
"528 792 LINE",
"439 616 LINE",
"470 605 LINE"
);
},
{
closed = 1;
nodes = (
"216 49 LINE",
"187 63 LINE",
"111 -98 LINE",
"141 -109 LINE"
);
}
);
width = 668;
},
{
associatedMasterId = "FB927515-0B4B-4E0F-9AFE-1C9AB9ADFFED";
components = (
{
alignment = -1;
name = acute.cap;
transform = "{1, 0, 0, 1, 196, 0}";
},
{
alignment = -1;
name = O;
}
);
layerId = "D62E21E2-3384-49E5-8F5A-0B649106E6BC";
name = "RegularSlantLeft [80]";
paths = (
{
closed = 1;
nodes = (
"471 560 LINE",
"571 774 LINE",
"511 800 LINE",
"415 595 LINE"
);
},
{
closed = 1;
nodes = (
"249 86 LINE",
"190 114 LINE",
"95 -89 LINE",
"154 -117 LINE"
);
}
);
width = 661.96078;
},
{
associatedMasterId = "0E0E1207-0B3B-41BA-8E0C-9BB926F33A45";
components = (
{
name = acute.cap;
transform = "{1, 0, 0, 1, 129, 58}";
},
{
name = O;
}
);
layerId = "FE55982B-2B40-4763-BA5B-221AD4459812";
name = "ExtraBlackSlantLeft [80]";
paths = (
{
closed = 1;
nodes = (
"542 544 LINE",
"600 682 LINE",
"380 725 LINE",
"306 500 LINE"
);
},
{
closed = 1;
nodes = (
"360 93 LINE",
"121 94 LINE",
"84 -11 LINE",
"299 -52 LINE"
);
}
);
width = 670;
}
);
leftKerningGroup = O;
rightKerningGroup = O;
unicode = 01FE;
},
{
color = 5;
glyphname = OE;
layers = (
{
layerId = "459CA063-FA7D-4205-A795-7B6CE244EAAB";
paths = (
{
closed = 1;
nodes = (
"370 -9 OFFCURVE",
"449 -5 OFFCURVE",
"491 -1 CURVE",
"889 -1 LINE",
"889 36 LINE",
"526 36 LINE",
"526 342 LINE",
"829 342 LINE",
"829 378 LINE",
"526 378 LINE",
"526 664 LINE",
"889 664 LINE",
"889 700 LINE",
"491 700 LINE",
"449 704 OFFCURVE",
"370 708 OFFCURVE",
"333 708 CURVE SMOOTH",
"117 708 OFFCURVE",
"65 584 OFFCURVE",
"65 354 CURVE SMOOTH",
"65 124 OFFCURVE",
"117 -9 OFFCURVE",
"333 -9 CURVE SMOOTH"
);
},
{
closed = 1;
nodes = (
"140 25 OFFCURVE",
"103 140 OFFCURVE",
"103 350 CURVE SMOOTH",
"103 560 OFFCURVE",
"140 674 OFFCURVE",
"333 674 CURVE SMOOTH",
"355 674 OFFCURVE",
"455 668 OFFCURVE",
"490 665 CURVE",
"490 34 LINE",
"455 31 OFFCURVE",
"355 25 OFFCURVE",
"333 25 CURVE SMOOTH"
);
}
);
width = 940;
},
{
layerId = "EA657207-4E15-4023-BA2A-6FA5407A60CD";
paths = (
{
closed = 1;
nodes = (
"349 -13 OFFCURVE",
"435 -6 OFFCURVE",
"484 0 CURVE",
"869 0 LINE",
"869 185 LINE",
"630 185 LINE",
"630 246 LINE",
"809 246 LINE",
"809 427 LINE",
"630 427 LINE",
"630 485 LINE",
"869 485 LINE",
"869 670 LINE",
"484 670 LINE",
"425 676 OFFCURVE",
"334 683 OFFCURVE",
"301 683 CURVE SMOOTH",
"83 683 OFFCURVE",
"18 591 OFFCURVE",
"18 340 CURVE SMOOTH",
"18 94 OFFCURVE",
"77 -13 OFFCURVE",
"291 -13 CURVE SMOOTH"
);
},
{
closed = 1;
nodes = (
"249 175 OFFCURVE",
"246 224 OFFCURVE",
"246 340 CURVE SMOOTH",
"246 462 OFFCURVE",
"260 495 OFFCURVE",
"357 495 CURVE SMOOTH",
"362 495 OFFCURVE",
"396 494 OFFCURVE",
"398 494 CURVE",
"398 176 LINE",
"385 175 OFFCURVE",
"371 175 OFFCURVE",
"357 175 CURVE SMOOTH"
);
}
);
width = 886;
},
{
layerId = "5E4DD32C-6BC9-4010-93B4-D8C61BED16DC";
paths = (
{
closed = 1;
nodes = (
"356 -10 OFFCURVE",
"424 -6 OFFCURVE",
"466 -1 CURVE",
"877 -1 LINE",
"877 72 LINE",
"540 72 LINE",
"540 317 LINE",
"817 317 LINE",
"817 388 LINE",
"540 388 LINE",
"540 619 LINE",
"877 619 LINE",
"877 691 LINE",
"461 691 LINE",
"421 697 OFFCURVE",
"356 701 OFFCURVE",
"318 701 CURVE SMOOTH",
"108 701 OFFCURVE",
"53 590 OFFCURVE",
"53 348 CURVE SMOOTH",
"53 115 OFFCURVE",
"104 -10 OFFCURVE",
"318 -10 CURVE SMOOTH"
);
},
{
closed = 1;
nodes = (
"168 62 OFFCURVE",
"136 147 OFFCURVE",
"136 346 CURVE SMOOTH",
"136 548 OFFCURVE",
"171 629 OFFCURVE",
"327 629 CURVE SMOOTH",
"350 629 OFFCURVE",
"424 624 OFFCURVE",
"460 621 CURVE",
"460 69 LINE",
"425 66 OFFCURVE",
"352 62 OFFCURVE",
"328 62 CURVE SMOOTH"
);
}
);
width = 923.60784;
},
{
layerId = "0DA49D7F-B466-4A74-9166-6D7870CD51D2";
paths = (
{
closed = 1;
nodes = (
"305 -13 OFFCURVE",
"392 -7 OFFCURVE",
"442 -1 CURVE",
"821 0 LINE",
"857 185 LINE",
"618 185 LINE",
"630 246 LINE",
"809 246 LINE",
"844 427 LINE",
"665 427 LINE",
"676 485 LINE",
"915 485 LINE",
"951 670 LINE",
"559 669 LINE",
"501 675 OFFCURVE",
"412 683 OFFCURVE",
"372 683 CURVE SMOOTH",
"161 683 OFFCURVE",
"86 600 OFFCURVE",
"39 357 CURVE SMOOTH",
"-10 103 OFFCURVE",
"33 -13 OFFCURVE",
"254 -13 CURVE SMOOTH"
);
},
{
closed = 1;
nodes = (
"228 175 OFFCURVE",
"240 215 OFFCURVE",
"261 323 CURVE SMOOTH",
"286 453 OFFCURVE",
"315 495 OFFCURVE",
"405 495 CURVE SMOOTH",
"403 495 OFFCURVE",
"451 494 OFFCURVE",
"453 494 CURVE",
"377 177 LINE",
"364 176 OFFCURVE",
"350 175 OFFCURVE",
"329 175 CURVE SMOOTH"
);
}
);
width = 887;
},
{
layerId = "3B241295-E7D1-482F-A49F-5B690F967CBA";
paths = (
{
closed = 1;
nodes = (
"307 -10 OFFCURVE",
"376 -6 OFFCURVE",
"419 -1 CURVE",
"828 -1 LINE",
"842 72 LINE",
"505 72 LINE",
"552 317 LINE",
"829 317 LINE",
"843 388 LINE",
"566 388 LINE",
"611 619 LINE",
"948 619 LINE",
"962 691 LINE",
"543 691 LINE",
"505 697 OFFCURVE",
"440 701 OFFCURVE",
"400 701 CURVE SMOOTH",
"192 701 OFFCURVE",
"119 593 OFFCURVE",
"73 354 CURVE SMOOTH",
"27 118 OFFCURVE",
"55 -10 OFFCURVE",
"272 -10 CURVE SMOOTH"
);
},
{
closed = 1;
nodes = (
"128 62 OFFCURVE",
"115 144 OFFCURVE",
"153 340 CURVE SMOOTH",
"193 545 OFFCURVE",
"247 629 OFFCURVE",
"405 629 CURVE SMOOTH",
"426 629 OFFCURVE",
"499 624 OFFCURVE",
"534 621 CURVE",
"422 69 LINE",
"386 66 OFFCURVE",
"312 62 OFFCURVE",
"286 62 CURVE SMOOTH"
);
}
);
width = 924;
},
{
layerId = "0474999B-FB68-4D9A-82B1-2286F2372C1D";
paths = (
{
closed = 1;
nodes = (
"321 -9 OFFCURVE",
"401 -5 OFFCURVE",
"444 -1 CURVE",
"841 -1 LINE",
"848 36 LINE",
"485 36 LINE",
"544 342 LINE",
"847 342 LINE",
"854 378 LINE",
"551 378 LINE",
"607 664 LINE",
"970 664 LINE",
"977 700 LINE",
"578 700 LINE",
"536 704 OFFCURVE",
"458 708 OFFCURVE",
"420 708 CURVE SMOOTH",
"205 708 OFFCURVE",
"131 585 OFFCURVE",
"86 357 CURVE SMOOTH",
"41 125 OFFCURVE",
"68 -9 OFFCURVE",
"286 -9 CURVE SMOOTH"
);
},
{
closed = 1;
nodes = (
"95 25 OFFCURVE",
"82 139 OFFCURVE",
"122 347 CURVE SMOOTH",
"163 559 OFFCURVE",
"224 674 OFFCURVE",
"418 674 CURVE SMOOTH",
"439 674 OFFCURVE",
"538 668 OFFCURVE",
"572 665 CURVE",
"447 34 LINE",
"412 31 OFFCURVE",
"310 25 OFFCURVE",
"287 25 CURVE SMOOTH"
);
}
);
width = 941;
},
{
layerId = "0E0E1207-0B3B-41BA-8E0C-9BB926F33A45";
paths = (
{
closed = 1;
nodes = (
"392 -13 OFFCURVE",
"476 -5 OFFCURVE",
"524 1 CURVE",
"916 0 LINE",
"880 185 LINE",
"641 185 LINE",
"629 246 LINE",
"808 246 LINE",
"773 427 LINE",
"594 427 LINE",
"583 485 LINE",
"822 485 LINE",
"786 670 LINE",
"408 671 LINE",
"347 677 OFFCURVE",
"255 683 OFFCURVE",
"229 683 CURVE SMOOTH",
"4 683 OFFCURVE",
"-48 582 OFFCURVE",
"2 323 CURVE SMOOTH",
"49 85 OFFCURVE",
"120 -13 OFFCURVE",
"327 -13 CURVE SMOOTH"
);
},
{
closed = 1;
nodes = (
"269 175 OFFCURVE",
"248 233 OFFCURVE",
"224 357 CURVE SMOOTH",
"202 471 OFFCURVE",
"204 495 OFFCURVE",
"294 495 CURVE SMOOTH",
"306 495 OFFCURVE",
"340 494 OFFCURVE",
"342 494 CURVE",
"418 175 LINE",
"405 174 OFFCURVE",
"391 175 OFFCURVE",
"384 175 CURVE SMOOTH"
);
}
);
width = 886;
},
{
layerId = "FB927515-0B4B-4E0F-9AFE-1C9AB9ADFFED";
paths = (
{
closed = 1;
nodes = (
"393 -10 OFFCURVE",
"460 -6 OFFCURVE",
"501 -1 CURVE",
"914 -1 LINE",
"900 72 LINE",
"563 72 LINE",
"516 317 LINE",
"793 317 LINE",
"779 388 LINE",
"502 388 LINE",
"457 619 LINE",
"794 619 LINE",
"780 691 LINE",
"366 691 LINE",
"325 697 OFFCURVE",
"260 701 OFFCURVE",
"224 701 CURVE SMOOTH",
"12 701 OFFCURVE",
"-24 587 OFFCURVE",
"24 342 CURVE SMOOTH",
"68 112 OFFCURVE",
"141 -10 OFFCURVE",
"352 -10 CURVE SMOOTH"
);
},
{
closed = 1;
nodes = (
"196 62 OFFCURVE",
"144 150 OFFCURVE",
"105 352 CURVE SMOOTH",
"66 551 OFFCURVE",
"83 629 OFFCURVE",
"237 629 CURVE SMOOTH",
"262 629 OFFCURVE",
"337 624 OFFCURVE",
"374 621 CURVE",
"486 69 LINE",
"452 66 OFFCURVE",
"380 62 OFFCURVE",
"358 62 CURVE SMOOTH"
);
}
);
width = 924;
},
{
layerId = "9F9B1D74-FF57-4B2A-AEB5-D743B154EFB7";
paths = (
{
closed = 1;
nodes = (
"418 -9 OFFCURVE",
"496 -5 OFFCURVE",
"537 -1 CURVE",
"936 -1 LINE",
"929 36 LINE",
"566 36 LINE",
"507 342 LINE",
"810 342 LINE",
"803 378 LINE",
"500 378 LINE",
"444 664 LINE",
"807 664 LINE",
"800 700 LINE",
"403 700 LINE",
"361 704 OFFCURVE",
"281 708 OFFCURVE",
"245 708 CURVE SMOOTH",
"28 708 OFFCURVE",
"-1 583 OFFCURVE",
"44 351 CURVE SMOOTH",
"88 123 OFFCURVE",
"165 -9 OFFCURVE",
"379 -9 CURVE SMOOTH"
);
},
{
closed = 1;
nodes = (
"184 25 OFFCURVE",
"123 141 OFFCURVE",
"82 353 CURVE SMOOTH",
"41 561 OFFCURVE",
"55 674 OFFCURVE",
"247 674 CURVE SMOOTH",
"270 674 OFFCURVE",
"371 668 OFFCURVE",
"407 665 CURVE",
"532 34 LINE",
"497 31 OFFCURVE",
"399 25 OFFCURVE",
"378 25 CURVE SMOOTH"
);
}
);
width = 940;
}
);
leftKerningGroup = O;
rightKerningGroup = E;
unicode = 0152;
},
{
color = 5;
glyphname = P;
layers = (
{
layerId = "459CA063-FA7D-4205-A795-7B6CE244EAAB";
paths = (
{
closed = 1;
nodes = (
"128 0 LINE",
"128 257 LINE",
"347 257 LINE SMOOTH",
"492 257 OFFCURVE",
"554 340 OFFCURVE",
"554 485 CURVE SMOOTH",
"554 630 OFFCURVE",
"492 700 OFFCURVE",
"347 700 CURVE SMOOTH",
"92 700 LINE",
"92 0 LINE"
);
},
{
closed = 1;
nodes = (
"128 666 LINE",
"347 666 LINE SMOOTH",
"468 666 OFFCURVE",
"516 606 OFFCURVE",
"516 485 CURVE SMOOTH",
"516 364 OFFCURVE",
"468 291 OFFCURVE",
"347 291 CURVE SMOOTH",
"128 291 LINE"
);
}
);
width = 595;
},
{
layerId = "EA657207-4E15-4023-BA2A-6FA5407A60CD";
paths = (
{
closed = 1;
nodes = (
"262 0 LINE",
"262 142 LINE",
"293 142 LINE SMOOTH",
"493 142 OFFCURVE",
"597 198 OFFCURVE",
"597 409 CURVE SMOOTH",
"597 620 OFFCURVE",
"492 670 OFFCURVE",
"293 670 CURVE SMOOTH",
"30 670 LINE",
"30 0 LINE"
);
},
{
closed = 1;
nodes = (
"262 487 LINE",
"283 487 LINE SMOOTH",
"341 487 OFFCURVE",
"363 472 OFFCURVE",
"363 408 CURVE SMOOTH",
"363 347 OFFCURVE",
"340 325 OFFCURVE",
"283 325 CURVE SMOOTH",
"262 325 LINE"
);
}
);
width = 612;
},
{
layerId = "5E4DD32C-6BC9-4010-93B4-D8C61BED16DC";
paths = (
{
closed = 1;
nodes = (
"164 0 LINE",
"164 232 LINE",
"337 232 LINE SMOOTH",
"489 232 OFFCURVE",
"559 317 OFFCURVE",
"559 467 CURVE SMOOTH",
"559 618 OFFCURVE",
"489 691 OFFCURVE",
"337 691 CURVE SMOOTH",
"84 691 LINE",
"84 0 LINE"
);
},
{
closed = 1;
nodes = (
"164 621 LINE",
"337 621 LINE SMOOTH",
"435 621 OFFCURVE",
"477 573 OFFCURVE",
"477 467 CURVE SMOOTH",
"477 361 OFFCURVE",
"435 302 OFFCURVE",
"337 302 CURVE SMOOTH",
"164 302 LINE"
);
}
);
width = 592.41176;
},
{
layerId = "0DA49D7F-B466-4A74-9166-6D7870CD51D2";
paths = (
{
closed = 1;
nodes = (
"214 0 LINE",
"241 142 LINE",
"279 142 LINE SMOOTH",
"479 142 OFFCURVE",
"586 189 OFFCURVE",
"625 392 CURVE SMOOTH",
"668 611 OFFCURVE",
"567 670 OFFCURVE",
"368 670 CURVE SMOOTH",
"112 670 LINE",
"-18 0 LINE"
);
},
{
closed = 1;
nodes = (
"308 487 LINE",
"336 487 LINE SMOOTH",
"394 487 OFFCURVE",
"408 481 OFFCURVE",
"397 425 CURVE SMOOTH",
"384 356 OFFCURVE",
"348 325 OFFCURVE",
"291 325 CURVE SMOOTH",
"277 325 LINE"
);
}
);
width = 612;
},
{
layerId = "3B241295-E7D1-482F-A49F-5B690F967CBA";
paths = (
{
closed = 1;
nodes = (
"116 0 LINE",
"161 232 LINE",
"336 232 LINE SMOOTH",
"488 232 OFFCURVE",
"572 314 OFFCURVE",
"600 461 CURVE SMOOTH",
"630 615 OFFCURVE",
"573 691 OFFCURVE",
"421 691 CURVE SMOOTH",
"170 691 LINE",
"36 0 LINE"
);
},
{
closed = 1;
nodes = (
"237 621 LINE",
"412 621 LINE SMOOTH",
"510 621 OFFCURVE",
"541 576 OFFCURVE",
"521 473 CURVE SMOOTH",
"500 364 OFFCURVE",
"443 302 OFFCURVE",
"345 302 CURVE SMOOTH",
"175 302 LINE"
);
}
);
width = 592;
},
{
layerId = "0474999B-FB68-4D9A-82B1-2286F2372C1D";
paths = (
{
closed = 1;
nodes = (
"79 0 LINE",
"129 257 LINE",
"349 257 LINE SMOOTH",
"494 257 OFFCURVE",
"571 339 OFFCURVE",
"599 482 CURVE SMOOTH",
"627 629 OFFCURVE",
"578 700 OFFCURVE",
"433 700 CURVE SMOOTH",
"179 700 LINE",
"43 0 LINE"
);
},
{
closed = 1;
nodes = (
"208 666 LINE",
"428 666 LINE SMOOTH",
"549 666 OFFCURVE",
"585 607 OFFCURVE",
"562 488 CURVE SMOOTH",
"538 365 OFFCURVE",
"474 291 OFFCURVE",
"353 291 CURVE SMOOTH",
"135 291 LINE"
);
}
);
width = 595;
},
{
layerId = "0E0E1207-0B3B-41BA-8E0C-9BB926F33A45";
paths = (
{
closed = 1;
nodes = (
"309 0 LINE",
"282 142 LINE",
"306 142 LINE SMOOTH",
"506 142 OFFCURVE",
"604 207 OFFCURVE",
"561 426 CURVE SMOOTH",
"522 629 OFFCURVE",
"416 670 OFFCURVE",
"217 670 CURVE SMOOTH",
"-53 670 LINE",
"77 0 LINE"
);
},
{
closed = 1;
nodes = (
"215 487 LINE",
"229 487 LINE SMOOTH",
"287 487 OFFCURVE",
"320 463 OFFCURVE",
"334 391 CURVE SMOOTH",
"344 338 OFFCURVE",
"331 325 OFFCURVE",
"274 325 CURVE SMOOTH",
"246 325 LINE"
);
}
);
width = 612;
},
{
layerId = "FB927515-0B4B-4E0F-9AFE-1C9AB9ADFFED";
paths = (
{
closed = 1;
nodes = (
"201 0 LINE",
"156 232 LINE",
"327 232 LINE SMOOTH",
"479 232 OFFCURVE",
"534 320 OFFCURVE",
"504 473 CURVE SMOOTH",
"475 621 OFFCURVE",
"394 691 OFFCURVE",
"242 691 CURVE SMOOTH",
"-13 691 LINE",
"121 0 LINE"
);
},
{
closed = 1;
nodes = (
"80 621 LINE",
"251 621 LINE SMOOTH",
"349 621 OFFCURVE",
"403 570 OFFCURVE",
"425 461 CURVE SMOOTH",
"445 358 OFFCURVE",
"416 302 OFFCURVE",
"318 302 CURVE SMOOTH",
"142 302 LINE"
);
}
);
width = 592;
},
{
layerId = "9F9B1D74-FF57-4B2A-AEB5-D743B154EFB7";
paths = (
{
closed = 1;
nodes = (
"165 0 LINE",
"115 257 LINE",
"333 257 LINE SMOOTH",
"478 257 OFFCURVE",
"525 341 OFFCURVE",
"496 488 CURVE SMOOTH",
"468 631 OFFCURVE",
"394 700 OFFCURVE",
"249 700 CURVE SMOOTH",
"-7 700 LINE",
"129 0 LINE"
);
},
{
closed = 1;
nodes = (
"36 666 LINE",
"254 666 LINE SMOOTH",
"375 666 OFFCURVE",
"436 605 OFFCURVE",
"459 482 CURVE SMOOTH",
"483 363 OFFCURVE",
"450 291 OFFCURVE",
"329 291 CURVE SMOOTH",
"109 291 LINE"
);
}
);
width = 595;
}
);
leftKerningGroup = I;
unicode = 0050;
},
{
color = 5;
glyphname = Thorn;
layers = (
{
layerId = "459CA063-FA7D-4205-A795-7B6CE244EAAB";
paths = (
{
closed = 1;
nodes = (
"128 0 LINE",
"128 135 LINE",
"347 135 LINE SMOOTH",
"492 135 OFFCURVE",
"554 222 OFFCURVE",
"554 367 CURVE SMOOTH",
"554 512 OFFCURVE",
"492 578 OFFCURVE",
"347 578 CURVE SMOOTH",
"128 578 LINE",
"128 700 LINE",
"92 700 LINE",
"92 0 LINE"
);
},
{
closed = 1;
nodes = (
"128 544 LINE",
"347 544 LINE SMOOTH",
"468 544 OFFCURVE",
"516 488 OFFCURVE",
"516 367 CURVE SMOOTH",
"516 246 OFFCURVE",
"468 169 OFFCURVE",
"347 169 CURVE SMOOTH",
"128 169 LINE"
);
}
);
width = 601;
},
{
layerId = "EA657207-4E15-4023-BA2A-6FA5407A60CD";
paths = (
{
closed = 1;
nodes = (
"256 0 LINE",
"256 72 LINE",
"290 72 LINE SMOOTH",
"488 72 OFFCURVE",
"591 129 OFFCURVE",
"591 339 CURVE SMOOTH",
"591 549 OFFCURVE",
"487 600 OFFCURVE",
"290 600 CURVE SMOOTH",
"256 600 LINE",
"256 670 LINE",
"30 670 LINE",
"30 0 LINE"
);
},
{
closed = 1;
nodes = (
"256 417 LINE",
"280 417 LINE SMOOTH",
"341 417 OFFCURVE",
"363 402 OFFCURVE",
"363 338 CURVE SMOOTH",
"363 277 OFFCURVE",
"340 255 OFFCURVE",
"280 255 CURVE SMOOTH",
"256 255 LINE"
);
}
);
width = 611;
},
{
layerId = "5E4DD32C-6BC9-4010-93B4-D8C61BED16DC";
paths = (
{
closed = 1;
nodes = (
"164 0 LINE",
"164 119 LINE",
"337 119 LINE SMOOTH",
"489 119 OFFCURVE",
"560 209 OFFCURVE",
"560 361 CURVE SMOOTH",
"560 512 OFFCURVE",
"489 584 OFFCURVE",
"337 584 CURVE SMOOTH",
"164 584 LINE",
"164 696 LINE",
"84 696 LINE",
"84 0 LINE"
);
},
{
closed = 1;
nodes = (
"164 508 LINE",
"337 508 LINE SMOOTH",
"435 508 OFFCURVE",
"478 462 OFFCURVE",
"478 361 CURVE SMOOTH",
"478 260 OFFCURVE",
"435 197 OFFCURVE",
"337 197 CURVE SMOOTH",
"164 197 LINE"
);
}
);
width = 598.84314;
},
{
layerId = "0DA49D7F-B466-4A74-9166-6D7870CD51D2";
paths = (
{
closed = 1;
nodes = (
"208 0 LINE",
"222 72 LINE",
"263 72 LINE SMOOTH",
"461 72 OFFCURVE",
"566 120 OFFCURVE",
"605 322 CURVE SMOOTH",
"648 540 OFFCURVE",
"549 600 OFFCURVE",
"352 600 CURVE SMOOTH",
"324 600 LINE",
"338 670 LINE",
"112 670 LINE",
"-18 0 LINE"
);
},
{
closed = 1;
nodes = (
"289 417 LINE",
"320 417 LINE SMOOTH",
"381 417 OFFCURVE",
"395 411 OFFCURVE",
"384 355 CURVE SMOOTH",
"370 286 OFFCURVE",
"335 255 OFFCURVE",
"275 255 CURVE SMOOTH",
"257 255 LINE"
);
}
);
width = 611;
},
{
layerId = "3B241295-E7D1-482F-A49F-5B690F967CBA";
paths = (
{
closed = 1;
nodes = (
"116 0 LINE",
"139 119 LINE",
"315 119 LINE SMOOTH",
"467 119 OFFCURVE",
"552 206 OFFCURVE",
"581 355 CURVE SMOOTH",
"611 509 OFFCURVE",
"552 584 OFFCURVE",
"400 584 CURVE SMOOTH",
"229 584 LINE",
"251 696 LINE",
"171 696 LINE",
"36 0 LINE"
);
},
{
closed = 1;
nodes = (
"215 508 LINE",
"390 508 LINE SMOOTH",
"488 508 OFFCURVE",
"520 465 OFFCURVE",
"501 367 CURVE SMOOTH",
"481 263 OFFCURVE",
"423 197 OFFCURVE",
"325 197 CURVE SMOOTH",
"154 197 LINE"
);
}
);
width = 600;
},
{
layerId = "0474999B-FB68-4D9A-82B1-2286F2372C1D";
paths = (
{
closed = 1;
nodes = (
"79 0 LINE",
"105 135 LINE",
"325 135 LINE SMOOTH",
"470 135 OFFCURVE",
"548 221 OFFCURVE",
"576 364 CURVE SMOOTH",
"604 511 OFFCURVE",
"554 578 OFFCURVE",
"409 578 CURVE SMOOTH",
"191 578 LINE",
"215 700 LINE",
"179 700 LINE",
"43 0 LINE"
);
},
{
closed = 1;
nodes = (
"185 544 LINE",
"405 544 LINE SMOOTH",
"526 544 OFFCURVE",
"562 489 OFFCURVE",
"539 370 CURVE SMOOTH",
"515 247 OFFCURVE",
"450 169 OFFCURVE",
"329 169 CURVE SMOOTH",
"112 169 LINE"
);
}
);
width = 601;
},
{
layerId = "0E0E1207-0B3B-41BA-8E0C-9BB926F33A45";
paths = (
{
closed = 1;
nodes = (
"303 0 LINE",
"289 72 LINE",
"316 72 LINE SMOOTH",
"514 72 OFFCURVE",
"611 138 OFFCURVE",
"569 356 CURVE SMOOTH",
"530 558 OFFCURVE",
"424 600 OFFCURVE",
"227 600 CURVE SMOOTH",
"187 600 LINE",
"173 670 LINE",
"-53 670 LINE",
"77 0 LINE"
);
},
{
closed = 1;
nodes = (
"222 417 LINE",
"239 417 LINE SMOOTH",
"300 417 OFFCURVE",
"334 393 OFFCURVE",
"348 321 CURVE SMOOTH",
"358 268 OFFCURVE",
"344 255 OFFCURVE",
"284 255 CURVE SMOOTH",
"254 255 LINE"
);
}
);
width = 611;
},
{
layerId = "FB927515-0B4B-4E0F-9AFE-1C9AB9ADFFED";
paths = (
{
closed = 1;
nodes = (
"201 0 LINE",
"178 119 LINE",
"348 119 LINE SMOOTH",
"500 119 OFFCURVE",
"556 212 OFFCURVE",
"526 367 CURVE SMOOTH",
"497 515 OFFCURVE",
"415 584 OFFCURVE",
"263 584 CURVE SMOOTH",
"88 584 LINE",
"66 696 LINE",
"-14 696 LINE",
"121 0 LINE"
);
},
{
closed = 1;
nodes = (
"102 508 LINE",
"273 508 LINE SMOOTH",
"371 508 OFFCURVE",
"426 459 OFFCURVE",
"446 355 CURVE SMOOTH",
"465 257 OFFCURVE",
"436 197 OFFCURVE",
"338 197 CURVE SMOOTH",
"163 197 LINE"
);
}
);
width = 599;
},
{
layerId = "9F9B1D74-FF57-4B2A-AEB5-D743B154EFB7";
paths = (
{
closed = 1;
nodes = (
"165 0 LINE",
"139 135 LINE",
"357 135 LINE SMOOTH",
"502 135 OFFCURVE",
"548 223 OFFCURVE",
"519 370 CURVE SMOOTH",
"491 513 OFFCURVE",
"418 578 OFFCURVE",
"273 578 CURVE SMOOTH",
"53 578 LINE",
"29 700 LINE",
"-7 700 LINE",
"129 0 LINE"
);
},
{
closed = 1;
nodes = (
"59 544 LINE",
"277 544 LINE SMOOTH",
"398 544 OFFCURVE",
"459 487 OFFCURVE",
"482 364 CURVE SMOOTH",
"506 245 OFFCURVE",
"474 169 OFFCURVE",
"353 169 CURVE SMOOTH",
"132 169 LINE"
);
}
);
width = 601;
}
);
leftKerningGroup = I;
unicode = 00DE;
},
{
color = 5;
glyphname = Q;
layers = (
{
layerId = "459CA063-FA7D-4205-A795-7B6CE244EAAB";
paths = (
{
closed = 1;
nodes = (
"566 -121 LINE",
"480 19 LINE",
"574 67 OFFCURVE",
"601 174 OFFCURVE",
"601 347 CURVE SMOOTH",
"601 577 OFFCURVE",
"547 709 OFFCURVE",
"333 709 CURVE SMOOTH",
"119 709 OFFCURVE",
"65 575 OFFCURVE",
"65 347 CURVE SMOOTH",
"65 115 OFFCURVE",
"117 -9 OFFCURVE",
"333 -9 CURVE SMOOTH",
"376 -9 OFFCURVE",
"412 -4 OFFCURVE",
"443 5 CURVE",
"530 -138 LINE"
);
},
{
closed = 1;
nodes = (
"140 25 OFFCURVE",
"103 137 OFFCURVE",
"103 347 CURVE SMOOTH",
"103 556 OFFCURVE",
"143 675 OFFCURVE",
"333 675 CURVE SMOOTH",
"521 675 OFFCURVE",
"563 554 OFFCURVE",
"563 347 CURVE SMOOTH",
"563 127 OFFCURVE",
"526 25 OFFCURVE",
"333 25 CURVE SMOOTH"
);
}
);
width = 666;
},
{
layerId = "EA657207-4E15-4023-BA2A-6FA5407A60CD";
paths = (
{
closed = 1;
nodes = (
"635 -71 LINE",
"555 48 LINE",
"621 103 OFFCURVE",
"651 196 OFFCURVE",
"651 335 CURVE SMOOTH",
"651 582 OFFCURVE",
"557 683 OFFCURVE",
"332 683 CURVE SMOOTH",
"107 683 OFFCURVE",
"16 582 OFFCURVE",
"16 335 CURVE SMOOTH",
"16 88 OFFCURVE",
"110 -13 OFFCURVE",
"332 -13 CURVE SMOOTH",
"342 -13 OFFCURVE",
"352 -13 OFFCURVE",
"361 -12 CURVE",
"459 -158 LINE"
);
},
{
closed = 1;
nodes = (
"260 175 OFFCURVE",
"244 233 OFFCURVE",
"244 335 CURVE SMOOTH",
"244 437 OFFCURVE",
"260 495 OFFCURVE",
"332 495 CURVE SMOOTH",
"407 495 OFFCURVE",
"417 437 OFFCURVE",
"417 335 CURVE SMOOTH",
"417 234 OFFCURVE",
"406 175 OFFCURVE",
"332 175 CURVE SMOOTH"
);
}
);
width = 667;
},
{
layerId = "5E4DD32C-6BC9-4010-93B4-D8C61BED16DC";
paths = (
{
closed = 1;
nodes = (
"575 -111 LINE",
"490 27 LINE",
"576 78 OFFCURVE",
"604 180 OFFCURVE",
"604 342 CURVE SMOOTH",
"604 572 OFFCURVE",
"544 702 OFFCURVE",
"330 702 CURVE SMOOTH",
"116 702 OFFCURVE",
"56 571 OFFCURVE",
"56 342 CURVE SMOOTH",
"56 110 OFFCURVE",
"115 -10 OFFCURVE",
"330 -10 CURVE SMOOTH",
"361 -10 OFFCURVE",
"391 -7 OFFCURVE",
"412 -1 CURVE",
"500 -146 LINE"
);
},
{
closed = 1;
nodes = (
"172 61 OFFCURVE",
"139 154 OFFCURVE",
"139 342 CURVE SMOOTH",
"139 529 OFFCURVE",
"174 631 OFFCURVE",
"330 631 CURVE SMOOTH",
"485 631 OFFCURVE",
"521 528 OFFCURVE",
"521 342 CURVE SMOOTH",
"521 149 OFFCURVE",
"488 61 OFFCURVE",
"330 61 CURVE SMOOTH"
);
}
);
width = 659.96078;
},
{
layerId = "0DA49D7F-B466-4A74-9166-6D7870CD51D2";
paths = (
{
closed = 1;
nodes = (
"572 -71 LINE",
"518 43 LINE",
"597 98 OFFCURVE",
"639 187 OFFCURVE",
"665 318 CURVE SMOOTH",
"714 573 OFFCURVE",
"635 683 OFFCURVE",
"403 683 CURVE SMOOTH",
"185 683 OFFCURVE",
"83 591 OFFCURVE",
"36 352 CURVE SMOOTH",
"-13 97 OFFCURVE",
"66 -13 OFFCURVE",
"295 -13 CURVE SMOOTH",
"298 -13 OFFCURVE",
"308 -14 OFFCURVE",
"317 -13 CURVE",
"384 -158 LINE"
);
},
{
closed = 1;
nodes = (
"239 175 OFFCURVE",
"239 224 OFFCURVE",
"258 318 CURVE SMOOTH",
"279 428 OFFCURVE",
"315 495 OFFCURVE",
"394 495 CURVE SMOOTH",
"462 495 OFFCURVE",
"455 446 OFFCURVE",
"437 352 CURVE SMOOTH",
"416 243 OFFCURVE",
"385 175 OFFCURVE",
"304 175 CURVE SMOOTH"
);
}
);
width = 668;
},
{
layerId = "3B241295-E7D1-482F-A49F-5B690F967CBA";
paths = (
{
closed = 1;
nodes = (
"505 -111 LINE",
"448 25 LINE",
"545 76 OFFCURVE",
"590 177 OFFCURVE",
"621 336 CURVE SMOOTH",
"666 569 OFFCURVE",
"630 702 OFFCURVE",
"413 702 CURVE SMOOTH",
"202 702 OFFCURVE",
"119 574 OFFCURVE",
"75 348 CURVE SMOOTH",
"30 113 OFFCURVE",
"67 -10 OFFCURVE",
"285 -10 CURVE SMOOTH",
"313 -10 OFFCURVE",
"344 -8 OFFCURVE",
"366 -2 CURVE",
"425 -146 LINE"
);
},
{
closed = 1;
nodes = (
"133 61 OFFCURVE",
"120 151 OFFCURVE",
"156 336 CURVE SMOOTH",
"193 526 OFFCURVE",
"251 631 OFFCURVE",
"410 631 CURVE SMOOTH",
"562 631 OFFCURVE",
"576 531 OFFCURVE",
"540 348 CURVE SMOOTH",
"502 152 OFFCURVE",
"449 61 OFFCURVE",
"289 61 CURVE SMOOTH"
);
}
);
width = 660;
},
{
layerId = "0474999B-FB68-4D9A-82B1-2286F2372C1D";
paths = (
{
closed = 1;
nodes = (
"493 -121 LINE",
"435 18 LINE",
"539 66 OFFCURVE",
"585 173 OFFCURVE",
"619 344 CURVE SMOOTH",
"664 576 OFFCURVE",
"634 709 OFFCURVE",
"419 709 CURVE SMOOTH",
"206 709 OFFCURVE",
"128 576 OFFCURVE",
"84 350 CURVE SMOOTH",
"38 116 OFFCURVE",
"67 -9 OFFCURVE",
"285 -9 CURVE SMOOTH",
"326 -9 OFFCURVE",
"363 -4 OFFCURVE",
"396 5 CURVE",
"455 -138 LINE"
);
},
{
closed = 1;
nodes = (
"94 25 OFFCURVE",
"80 136 OFFCURVE",
"121 344 CURVE SMOOTH",
"162 555 OFFCURVE",
"226 675 OFFCURVE",
"417 675 CURVE SMOOTH",
"604 675 OFFCURVE",
"622 555 OFFCURVE",
"582 350 CURVE SMOOTH",
"539 128 OFFCURVE",
"480 25 OFFCURVE",
"286 25 CURVE SMOOTH"
);
}
);
width = 666;
},
{
layerId = "0E0E1207-0B3B-41BA-8E0C-9BB926F33A45";
paths = (
{
closed = 1;
nodes = (
"699 -71 LINE",
"591 54 LINE",
"644 109 OFFCURVE",
"660 205 OFFCURVE",
"632 352 CURVE SMOOTH",
"585 591 OFFCURVE",
"480 683 OFFCURVE",
"262 683 CURVE SMOOTH",
"30 683 OFFCURVE",
"-46 573 OFFCURVE",
"3 318 CURVE SMOOTH",
"50 79 OFFCURVE",
"155 -13 OFFCURVE",
"370 -13 CURVE SMOOTH",
"387 -13 OFFCURVE",
"397 -12 OFFCURVE",
"406 -11 CURVE",
"535 -158 LINE"
);
},
{
closed = 1;
nodes = (
"282 175 OFFCURVE",
"246 242 OFFCURVE",
"225 352 CURVE SMOOTH",
"207 446 OFFCURVE",
"206 495 OFFCURVE",
"271 495 CURVE SMOOTH",
"353 495 OFFCURVE",
"383 428 OFFCURVE",
"404 318 CURVE SMOOTH",
"422 225 OFFCURVE",
"428 175 OFFCURVE",
"361 175 CURVE SMOOTH"
);
}
);
width = 668;
},
{
layerId = "FB927515-0B4B-4E0F-9AFE-1C9AB9ADFFED";
paths = (
{
closed = 1;
nodes = (
"645 -111 LINE",
"531 29 LINE",
"607 80 OFFCURVE",
"617 183 OFFCURVE",
"585 348 CURVE SMOOTH",
"540 575 OFFCURVE",
"458 702 OFFCURVE",
"247 702 CURVE SMOOTH",
"30 702 OFFCURVE",
"-6 568 OFFCURVE",
"39 336 CURVE SMOOTH",
"83 107 OFFCURVE",
"163 -10 OFFCURVE",
"375 -10 CURVE SMOOTH",
"409 -10 OFFCURVE",
"438 -6 OFFCURVE",
"458 0 CURVE",
"575 -146 LINE"
);
},
{
closed = 1;
nodes = (
"211 61 OFFCURVE",
"157 157 OFFCURVE",
"120 348 CURVE SMOOTH",
"84 532 OFFCURVE",
"97 631 OFFCURVE",
"250 631 CURVE SMOOTH",
"408 631 OFFCURVE",
"467 525 OFFCURVE",
"504 336 CURVE SMOOTH",
"541 146 OFFCURVE",
"527 61 OFFCURVE",
"371 61 CURVE SMOOTH"
);
}
);
width = 660;
},
{
layerId = "9F9B1D74-FF57-4B2A-AEB5-D743B154EFB7";
paths = (
{
closed = 1;
nodes = (
"639 -121 LINE",
"525 20 LINE",
"609 68 OFFCURVE",
"616 175 OFFCURVE",
"582 350 CURVE SMOOTH",
"538 578 OFFCURVE",
"460 709 OFFCURVE",
"247 709 CURVE SMOOTH",
"32 709 OFFCURVE",
"3 574 OFFCURVE",
"47 344 CURVE SMOOTH",
"92 114 OFFCURVE",
"167 -9 OFFCURVE",
"381 -9 CURVE SMOOTH",
"426 -9 OFFCURVE",
"461 -4 OFFCURVE",
"490 5 CURVE",
"605 -138 LINE"
);
},
{
closed = 1;
nodes = (
"186 25 OFFCURVE",
"125 138 OFFCURVE",
"84 350 CURVE SMOOTH",
"44 557 OFFCURVE",
"60 675 OFFCURVE",
"249 675 CURVE SMOOTH",
"438 675 OFFCURVE",
"505 553 OFFCURVE",
"545 344 CURVE SMOOTH",
"588 126 OFFCURVE",
"572 25 OFFCURVE",
"380 25 CURVE SMOOTH"
);
}
);
width = 666;
}
);
leftKerningGroup = O;
rightKerningGroup = O;
unicode = 0051;
},
{
color = 5;
glyphname = R;
layers = (
{
layerId = "459CA063-FA7D-4205-A795-7B6CE244EAAB";
paths = (
{
closed = 1;
nodes = (
"128 0 LINE",
"128 290 LINE",
"367 290 LINE",
"523 0 LINE",
"564 0 LINE",
"406 295 LINE",
"510 315 OFFCURVE",
"551 392 OFFCURVE",
"551 500 CURVE SMOOTH",
"551 640 OFFCURVE",
"482 700 OFFCURVE",
"343 700 CURVE SMOOTH",
"92 700 LINE",
"92 0 LINE"
);
},
{
closed = 1;
nodes = (
"128 666 LINE",
"343 666 LINE SMOOTH",
"460 666 OFFCURVE",
"513 616 OFFCURVE",
"513 500 CURVE SMOOTH",
"513 396 OFFCURVE",
"470 324 OFFCURVE",
"343 324 CURVE SMOOTH",
"128 324 LINE"
);
}
);
width = 613;
},
{
layerId = "EA657207-4E15-4023-BA2A-6FA5407A60CD";
paths = (
{
closed = 1;
nodes = (
"262 0 LINE",
"262 173 LINE",
"320 173 LINE",
"357 0 LINE",
"593 0 LINE",
"527 228 LINE",
"575 267 OFFCURVE",
"601 329 OFFCURVE",
"601 423 CURVE SMOOTH",
"601 624 OFFCURVE",
"507 670 OFFCURVE",
"312 670 CURVE SMOOTH",
"30 670 LINE",
"30 0 LINE"
);
},
{
closed = 1;
nodes = (
"261 487 LINE",
"312 487 LINE SMOOTH",
"350 487 OFFCURVE",
"367 465 OFFCURVE",
"367 423 CURVE SMOOTH",
"367 381 OFFCURVE",
"351 356 OFFCURVE",
"318 356 CURVE SMOOTH",
"261 356 LINE"
);
}
);
width = 617;
},
{
layerId = "5E4DD32C-6BC9-4010-93B4-D8C61BED16DC";
paths = (
{
closed = 1;
nodes = (
"164 0 LINE",
"164 263 LINE",
"358 263 LINE",
"480 0 LINE",
"569 0 LINE",
"437 280 LINE",
"523 308 OFFCURVE",
"563 379 OFFCURVE",
"563 481 CURVE SMOOTH",
"563 627 OFFCURVE",
"487 691 OFFCURVE",
"341 691 CURVE SMOOTH",
"84 691 LINE",
"84 0 LINE"
);
},
{
closed = 1;
nodes = (
"164 621 LINE",
"341 621 LINE SMOOTH",
"436 621 OFFCURVE",
"480 574 OFFCURVE",
"480 480 CURVE SMOOTH",
"480 395 OFFCURVE",
"444 333 OFFCURVE",
"342 333 CURVE SMOOTH",
"164 333 LINE"
);
}
);
width = 616.01961;
},
{
layerId = "0DA49D7F-B466-4A74-9166-6D7870CD51D2";
paths = (
{
closed = 1;
nodes = (
"214 0 LINE",
"247 173 LINE",
"307 173 LINE",
"310 0 LINE",
"543 0 LINE",
"526 223 LINE",
"583 262 OFFCURVE",
"615 320 OFFCURVE",
"632 406 CURVE SMOOTH",
"672 615 OFFCURVE",
"582 670 OFFCURVE",
"387 670 CURVE SMOOTH",
"112 670 LINE",
"-18 0 LINE"
);
},
{
closed = 1;
nodes = (
"307 487 LINE",
"365 487 LINE SMOOTH",
"403 487 OFFCURVE",
"411 474 OFFCURVE",
"404 440 CURVE SMOOTH",
"395 390 OFFCURVE",
"365 356 OFFCURVE",
"332 356 CURVE SMOOTH",
"282 356 LINE"
);
}
);
width = 618;
},
{
layerId = "3B241295-E7D1-482F-A49F-5B690F967CBA";
paths = (
{
closed = 1;
nodes = (
"116 0 LINE",
"167 263 LINE",
"362 263 LINE",
"433 0 LINE",
"520 0 LINE",
"445 279 LINE",
"537 307 OFFCURVE",
"588 376 OFFCURVE",
"607 475 CURVE SMOOTH",
"636 624 OFFCURVE",
"571 691 OFFCURVE",
"425 691 CURVE SMOOTH",
"170 691 LINE",
"36 0 LINE"
);
},
{
closed = 1;
nodes = (
"237 621 LINE",
"416 621 LINE SMOOTH",
"511 621 OFFCURVE",
"544 577 OFFCURVE",
"526 486 CURVE SMOOTH",
"509 398 OFFCURVE",
"458 333 OFFCURVE",
"356 333 CURVE SMOOTH",
"181 333 LINE"
);
}
);
width = 616;
},
{
layerId = "0474999B-FB68-4D9A-82B1-2286F2372C1D";
paths = (
{
closed = 1;
nodes = (
"79 0 LINE",
"135 290 LINE",
"375 290 LINE",
"474 0 LINE",
"514 0 LINE",
"415 295 LINE",
"523 315 OFFCURVE",
"578 391 OFFCURVE",
"598 497 CURVE SMOOTH",
"626 639 OFFCURVE",
"568 700 OFFCURVE",
"429 700 CURVE SMOOTH",
"179 700 LINE",
"43 0 LINE"
);
},
{
closed = 1;
nodes = (
"208 666 LINE",
"424 666 LINE SMOOTH",
"541 666 OFFCURVE",
"584 617 OFFCURVE",
"562 503 CURVE SMOOTH",
"541 397 OFFCURVE",
"483 324 OFFCURVE",
"356 324 CURVE SMOOTH",
"142 324 LINE"
);
}
);
width = 612;
},
{
layerId = "0E0E1207-0B3B-41BA-8E0C-9BB926F33A45";
paths = (
{
closed = 1;
nodes = (
"311 0 LINE",
"278 173 LINE",
"334 173 LINE",
"405 0 LINE",
"644 0 LINE",
"527 234 LINE",
"566 273 OFFCURVE",
"585 338 OFFCURVE",
"565 440 CURVE SMOOTH",
"527 633 OFFCURVE",
"433 670 OFFCURVE",
"238 670 CURVE SMOOTH",
"-51 670 LINE",
"79 0 LINE"
);
},
{
closed = 1;
nodes = (
"216 487 LINE",
"260 487 LINE SMOOTH",
"298 487 OFFCURVE",
"327 456 OFFCURVE",
"337 406 CURVE SMOOTH",
"344 372 OFFCURVE",
"338 356 OFFCURVE",
"305 356 CURVE SMOOTH",
"241 356 LINE"
);
}
);
width = 618;
},
{
layerId = "FB927515-0B4B-4E0F-9AFE-1C9AB9ADFFED";
paths = (
{
closed = 1;
nodes = (
"213 0 LINE",
"162 263 LINE",
"355 263 LINE",
"528 0 LINE",
"619 0 LINE",
"430 281 LINE",
"510 309 OFFCURVE",
"538 382 OFFCURVE",
"518 487 CURVE SMOOTH",
"490 630 OFFCURVE",
"404 691 OFFCURVE",
"258 691 CURVE SMOOTH",
"-1 691 LINE",
"133 0 LINE"
);
},
{
closed = 1;
nodes = (
"92 621 LINE",
"267 621 LINE SMOOTH",
"362 621 OFFCURVE",
"418 571 OFFCURVE",
"437 474 CURVE SMOOTH",
"453 392 OFFCURVE",
"431 333 OFFCURVE",
"329 333 CURVE SMOOTH",
"148 333 LINE"
);
}
);
width = 644;
},
{
layerId = "9F9B1D74-FF57-4B2A-AEB5-D743B154EFB7";
paths = (
{
closed = 1;
nodes = (
"175 0 LINE",
"119 290 LINE",
"357 290 LINE",
"570 0 LINE",
"612 0 LINE",
"395 295 LINE",
"495 315 OFFCURVE",
"522 393 OFFCURVE",
"500 503 CURVE SMOOTH",
"474 641 OFFCURVE",
"394 700 OFFCURVE",
"255 700 CURVE SMOOTH",
"3 700 LINE",
"139 0 LINE"
);
},
{
closed = 1;
nodes = (
"46 666 LINE",
"260 666 LINE SMOOTH",
"377 666 OFFCURVE",
"441 615 OFFCURVE",
"464 497 CURVE SMOOTH",
"483 395 OFFCURVE",
"455 324 OFFCURVE",
"328 324 CURVE SMOOTH",
"112 324 LINE"
);
}
);
width = 612;
}
);
leftKerningGroup = I;
rightKerningGroup = R;
unicode = 0052;
},
{
color = 5;
glyphname = S;
layers = (
{
layerId = "459CA063-FA7D-4205-A795-7B6CE244EAAB";
paths = (
{
closed = 1;
nodes = (
"412 -7 OFFCURVE",
"486 47 OFFCURVE",
"486 203 CURVE SMOOTH",
"486 329 OFFCURVE",
"414 359 OFFCURVE",
"282 380 CURVE SMOOTH",
"156 400 OFFCURVE",
"94 415 OFFCURVE",
"94 537 CURVE SMOOTH",
"94 637 OFFCURVE",
"158 677 OFFCURVE",
"272 677 CURVE SMOOTH",
"314 677 OFFCURVE",
"408 667 OFFCURVE",
"467 660 CURVE",
"471 695 LINE",
"419 702 OFFCURVE",
"328 711 OFFCURVE",
"272 711 CURVE SMOOTH",
"139 711 OFFCURVE",
"56 664 OFFCURVE",
"56 535 CURVE SMOOTH",
"56 388 OFFCURVE",
"136 365 OFFCURVE",
"273 344 CURVE SMOOTH",
"396 325 OFFCURVE",
"448 302 OFFCURVE",
"448 200 CURVE SMOOTH",
"448 75 OFFCURVE",
"387 27 OFFCURVE",
"273 27 CURVE SMOOTH",
"221 27 OFFCURVE",
"123 37 OFFCURVE",
"64 44 CURVE",
"60 9 LINE",
"120 2 OFFCURVE",
"219 -7 OFFCURVE",
"274 -7 CURVE SMOOTH"
);
}
);
width = 540;
},
{
layerId = "EA657207-4E15-4023-BA2A-6FA5407A60CD";
paths = (
{
closed = 1;
nodes = (
"474 -14 OFFCURVE",
"568 45 OFFCURVE",
"568 216 CURVE SMOOTH",
"568 373 OFFCURVE",
"512 398 OFFCURVE",
"321 441 CURVE SMOOTH",
"257 455 OFFCURVE",
"250 460 OFFCURVE",
"250 474 CURVE SMOOTH",
"250 488 OFFCURVE",
"260 492 OFFCURVE",
"301 492 CURVE SMOOTH",
"373 492 OFFCURVE",
"479 483 OFFCURVE",
"540 477 CURVE",
"546 657 LINE",
"478 668 OFFCURVE",
"359 683 OFFCURVE",
"281 683 CURVE SMOOTH",
"115 683 OFFCURVE",
"16 639 OFFCURVE",
"16 448 CURVE SMOOTH",
"16 308 OFFCURVE",
"69 256 OFFCURVE",
"257 227 CURVE SMOOTH",
"327 216 OFFCURVE",
"334 214 OFFCURVE",
"334 200 CURVE SMOOTH",
"334 184 OFFCURVE",
"322 177 OFFCURVE",
"282 177 CURVE SMOOTH",
"210 177 OFFCURVE",
"97 190 OFFCURVE",
"31 199 CURVE",
"21 22 LINE",
"81 7 OFFCURVE",
"199 -14 OFFCURVE",
"303 -14 CURVE SMOOTH"
);
}
);
width = 578;
},
{
layerId = "5E4DD32C-6BC9-4010-93B4-D8C61BED16DC";
paths = (
{
closed = 1;
nodes = (
"409 -9 OFFCURVE",
"495 51 OFFCURVE",
"495 204 CURVE SMOOTH",
"495 324 OFFCURVE",
"435 359 OFFCURVE",
"296 391 CURVE SMOOTH",
"175 418 OFFCURVE",
"129 433 OFFCURVE",
"129 521 CURVE SMOOTH",
"129 597 OFFCURVE",
"180 632 OFFCURVE",
"277 632 CURVE SMOOTH",
"319 632 OFFCURVE",
"414 622 OFFCURVE",
"473 615 CURVE",
"480 682 LINE",
"426 691 OFFCURVE",
"331 703 OFFCURVE",
"271 703 CURVE SMOOTH",
"136 703 OFFCURVE",
"48 650 OFFCURVE",
"48 516 CURVE SMOOTH",
"48 385 OFFCURVE",
"118 349 OFFCURVE",
"262 319 CURVE SMOOTH",
"374 296 OFFCURVE",
"414 274 OFFCURVE",
"414 198 CURVE SMOOTH",
"414 104 OFFCURVE",
"366 62 OFFCURVE",
"269 62 CURVE SMOOTH",
"217 62 OFFCURVE",
"120 72 OFFCURVE",
"62 79 CURVE",
"54 13 LINE",
"113 4 OFFCURVE",
"213 -9 OFFCURVE",
"273 -9 CURVE SMOOTH"
);
}
);
width = 541.72549;
},
{
layerId = "0DA49D7F-B466-4A74-9166-6D7870CD51D2";
paths = (
{
closed = 1;
nodes = (
"430 -14 OFFCURVE",
"527 36 OFFCURVE",
"558 199 CURVE SMOOTH",
"591 364 OFFCURVE",
"534 396 OFFCURVE",
"344 437 CURVE SMOOTH",
"296 451 OFFCURVE",
"291 454 OFFCURVE",
"291 461 CURVE SMOOTH",
"291 464 OFFCURVE",
"289 492 OFFCURVE",
"362 492 CURVE SMOOTH",
"427 492 OFFCURVE",
"532 484 OFFCURVE",
"591 478 CURVE",
"618 656 LINE",
"553 667 OFFCURVE",
"437 683 OFFCURVE",
"352 683 CURVE SMOOTH",
"193 683 OFFCURVE",
"94 648 OFFCURVE",
"58 465 CURVE SMOOTH",
"29 317 OFFCURVE",
"78 257 OFFCURVE",
"267 230 CURVE SMOOTH",
"322 219 OFFCURVE",
"328 220 OFFCURVE",
"328 209 CURVE SMOOTH",
"328 200 OFFCURVE",
"327 177 OFFCURVE",
"255 177 CURVE SMOOTH",
"189 177 OFFCURVE",
"79 189 OFFCURVE",
"14 198 CURVE",
"-16 24 LINE",
"41 9 OFFCURVE",
"155 -14 OFFCURVE",
"266 -14 CURVE SMOOTH"
);
}
);
width = 578;
},
{
layerId = "3B241295-E7D1-482F-A49F-5B690F967CBA";
paths = (
{
closed = 1;
nodes = (
"362 -9 OFFCURVE",
"456 48 OFFCURVE",
"485 198 CURVE SMOOTH",
"509 321 OFFCURVE",
"454 358 OFFCURVE",
"319 390 CURVE SMOOTH",
"205 417 OFFCURVE",
"164 430 OFFCURVE",
"181 515 CURVE SMOOTH",
"196 594 OFFCURVE",
"257 632 OFFCURVE",
"357 632 CURVE SMOOTH",
"396 632 OFFCURVE",
"489 622 OFFCURVE",
"547 615 CURVE",
"562 682 LINE",
"509 691 OFFCURVE",
"417 703 OFFCURVE",
"354 703 CURVE SMOOTH",
"222 703 OFFCURVE",
"127 653 OFFCURVE",
"101 522 CURVE SMOOTH",
"75 388 OFFCURVE",
"140 350 OFFCURVE",
"281 320 CURVE SMOOTH",
"386 297 OFFCURVE",
"420 277 OFFCURVE",
"405 204 CURVE SMOOTH",
"387 107 OFFCURVE",
"327 62 OFFCURVE",
"228 62 CURVE SMOOTH",
"178 62 OFFCURVE",
"83 72 OFFCURVE",
"27 79 CURVE",
"11 13 LINE",
"68 4 OFFCURVE",
"166 -9 OFFCURVE",
"228 -9 CURVE SMOOTH"
);
}
);
width = 542;
},
{
layerId = "0474999B-FB68-4D9A-82B1-2286F2372C1D";
paths = (
{
closed = 1;
nodes = (
"364 -7 OFFCURVE",
"447 46 OFFCURVE",
"477 200 CURVE SMOOTH",
"501 328 OFFCURVE",
"434 359 OFFCURVE",
"305 380 CURVE SMOOTH",
"184 400 OFFCURVE",
"126 414 OFFCURVE",
"150 534 CURVE SMOOTH",
"169 636 OFFCURVE",
"243 677 OFFCURVE",
"358 677 CURVE SMOOTH",
"399 677 OFFCURVE",
"491 667 OFFCURVE",
"548 660 CURVE",
"557 695 LINE",
"506 702 OFFCURVE",
"417 711 OFFCURVE",
"360 711 CURVE SMOOTH",
"228 711 OFFCURVE",
"137 665 OFFCURVE",
"112 538 CURVE SMOOTH",
"83 389 OFFCURVE",
"160 365 OFFCURVE",
"294 344 CURVE SMOOTH",
"412 325 OFFCURVE",
"459 303 OFFCURVE",
"439 203 CURVE SMOOTH",
"415 76 OFFCURVE",
"343 27 OFFCURVE",
"228 27 CURVE SMOOTH",
"177 27 OFFCURVE",
"81 37 OFFCURVE",
"23 44 CURVE",
"15 9 LINE",
"73 2 OFFCURVE",
"171 -7 OFFCURVE",
"227 -7 CURVE SMOOTH"
);
}
);
width = 541;
},
{
layerId = "0E0E1207-0B3B-41BA-8E0C-9BB926F33A45";
paths = (
{
closed = 1;
nodes = (
"520 -14 OFFCURVE",
"608 54 OFFCURVE",
"573 233 CURVE SMOOTH",
"544 382 OFFCURVE",
"491 400 OFFCURVE",
"298 444 CURVE SMOOTH",
"225 456 OFFCURVE",
"209 459 OFFCURVE",
"205 481 CURVE SMOOTH",
"204 487 OFFCURVE",
"208 492 OFFCURVE",
"242 492 CURVE SMOOTH",
"321 492 OFFCURVE",
"429 482 OFFCURVE",
"491 476 CURVE",
"474 658 LINE",
"405 669 OFFCURVE",
"283 683 OFFCURVE",
"212 683 CURVE SMOOTH",
"39 683 OFFCURVE",
"-56 630 OFFCURVE",
"-18 431 CURVE SMOOTH",
"8 299 OFFCURVE",
"63 255 OFFCURVE",
"250 225 CURVE SMOOTH",
"329 215 OFFCURVE",
"344 213 OFFCURVE",
"349 191 CURVE SMOOTH",
"350 183 OFFCURVE",
"345 177 OFFCURVE",
"311 177 CURVE SMOOTH",
"233 177 OFFCURVE",
"117 191 OFFCURVE",
"49 200 CURVE",
"61 20 LINE",
"124 5 OFFCURVE",
"245 -14 OFFCURVE",
"342 -14 CURVE SMOOTH"
);
}
);
width = 580;
},
{
layerId = "FB927515-0B4B-4E0F-9AFE-1C9AB9ADFFED";
paths = (
{
closed = 1;
nodes = (
"456 -9 OFFCURVE",
"533 54 OFFCURVE",
"502 210 CURVE SMOOTH",
"480 327 OFFCURVE",
"416 360 OFFCURVE",
"273 392 CURVE SMOOTH",
"144 419 OFFCURVE",
"92 436 OFFCURVE",
"75 527 CURVE SMOOTH",
"61 600 OFFCURVE",
"103 632 OFFCURVE",
"197 632 CURVE SMOOTH",
"242 632 OFFCURVE",
"339 622 OFFCURVE",
"399 615 CURVE",
"398 682 LINE",
"342 691 OFFCURVE",
"245 703 OFFCURVE",
"188 703 CURVE SMOOTH",
"50 703 OFFCURVE",
"-30 647 OFFCURVE",
"-3 510 CURVE SMOOTH",
"22 382 OFFCURVE",
"96 348 OFFCURVE",
"243 318 CURVE SMOOTH",
"362 295 OFFCURVE",
"410 271 OFFCURVE",
"425 192 CURVE SMOOTH",
"443 101 OFFCURVE",
"405 62 OFFCURVE",
"310 62 CURVE SMOOTH",
"256 62 OFFCURVE",
"157 72 OFFCURVE",
"97 79 CURVE",
"98 13 LINE",
"158 4 OFFCURVE",
"260 -9 OFFCURVE",
"318 -9 CURVE SMOOTH"
);
}
);
width = 541;
},
{
layerId = "9F9B1D74-FF57-4B2A-AEB5-D743B154EFB7";
paths = (
{
closed = 1;
nodes = (
"460 -7 OFFCURVE",
"525 48 OFFCURVE",
"494 206 CURVE SMOOTH",
"470 330 OFFCURVE",
"394 359 OFFCURVE",
"259 380 CURVE SMOOTH",
"128 400 OFFCURVE",
"61 416 OFFCURVE",
"37 540 CURVE SMOOTH",
"18 638 OFFCURVE",
"73 677 OFFCURVE",
"186 677 CURVE SMOOTH",
"229 677 OFFCURVE",
"325 667 OFFCURVE",
"386 660 CURVE",
"385 695 LINE",
"332 702 OFFCURVE",
"239 711 OFFCURVE",
"184 711 CURVE SMOOTH",
"50 711 OFFCURVE",
"-25 663 OFFCURVE",
"1 532 CURVE SMOOTH",
"29 387 OFFCURVE",
"112 365 OFFCURVE",
"252 344 CURVE SMOOTH",
"380 325 OFFCURVE",
"438 301 OFFCURVE",
"458 197 CURVE SMOOTH",
"482 74 OFFCURVE",
"431 27 OFFCURVE",
"318 27 CURVE SMOOTH",
"265 27 OFFCURVE",
"165 37 OFFCURVE",
"105 44 CURVE",
"105 9 LINE",
"167 2 OFFCURVE",
"267 -7 OFFCURVE",
"321 -7 CURVE SMOOTH"
);
}
);
width = 539;
}
);
leftKerningGroup = S;
rightKerningGroup = S;
unicode = 0053;
},
{
color = 5;
glyphname = Scommaaccent;
layers = (
{
components = (
{
name = S;
}
);
layerId = "459CA063-FA7D-4205-A795-7B6CE244EAAB";
paths = (
{
closed = 1;
nodes = (
"263 -267 LINE",
"309 -78 LINE",
"272 -78 LINE",
"235 -267 LINE"
);
}
);
width = 540;
},
{
components = (
{
name = S;
}
);
layerId = "EA657207-4E15-4023-BA2A-6FA5407A60CD";
paths = (
{
closed = 1;
nodes = (
"342 -260 LINE",
"404 -45 LINE",
"200 -45 LINE",
"180 -260 LINE"
);
}
);
width = 578;
},
{
components = (
{
alignment = -1;
name = S;
}
);
layerId = "5E4DD32C-6BC9-4010-93B4-D8C61BED16DC";
paths = (
{
closed = 1;
nodes = (
"275 -286 LINE",
"325 -78 LINE",
"247 -78 LINE",
"207 -286 LINE"
);
}
);
width = 541.72549;
},
{
components = (
{
name = S;
}
);
layerId = "0DA49D7F-B466-4A74-9166-6D7870CD51D2";
paths = (
{
closed = 1;
nodes = (
"196 -260 LINE",
"300 -45 LINE",
"93 -45 LINE",
"32 -260 LINE"
);
}
);
width = 578;
},
{
components = (
{
alignment = -1;
name = S;
}
);
layerId = "3B241295-E7D1-482F-A49F-5B690F967CBA";
paths = (
{
closed = 1;
nodes = (
"123 -286 LINE",
"213 -78 LINE",
"134 -78 LINE",
"54 -286 LINE"
);
}
);
width = 542;
},
{
components = (
{
name = S;
}
);
layerId = "0474999B-FB68-4D9A-82B1-2286F2372C1D";
paths = (
{
closed = 1;
nodes = (
"114 -267 LINE",
"197 -78 LINE",
"159 -78 LINE",
"86 -267 LINE"
);
}
);
width = 540;
},
{
components = (
{
name = S;
}
);
layerId = "0E0E1207-0B3B-41BA-8E0C-9BB926F33A45";
paths = (
{
closed = 1;
nodes = (
"342 -260 LINE",
"404 -45 LINE",
"200 -45 LINE",
"180 -260 LINE"
);
}
);
width = 578;
},
{
components = (
{
alignment = -1;
name = S;
}
);
layerId = "FB927515-0B4B-4E0F-9AFE-1C9AB9ADFFED";
paths = (
{
closed = 1;
nodes = (
"275 -286 LINE",
"325 -78 LINE",
"247 -78 LINE",
"207 -286 LINE"
);
}
);
width = 541.72549;
},
{
components = (
{
name = S;
}
);
layerId = "9F9B1D74-FF57-4B2A-AEB5-D743B154EFB7";
paths = (
{
closed = 1;
nodes = (
"263 -267 LINE",
"309 -78 LINE",
"272 -78 LINE",
"235 -267 LINE"
);
}
);
width = 540;
}
);
leftKerningGroup = S;
rightKerningGroup = S;
unicode = 0218;
},
{
color = 5;
glyphname = T;
layers = (
{
layerId = "459CA063-FA7D-4205-A795-7B6CE244EAAB";
paths = (
{
closed = 1;
nodes = (
"282 0 LINE",
"282 666 LINE",
"513 666 LINE",
"513 700 LINE",
"13 700 LINE",
"13 666 LINE",
"246 666 LINE",
"246 0 LINE"
);
}
);
width = 526;
},
{
layerId = "EA657207-4E15-4023-BA2A-6FA5407A60CD";
paths = (
{
closed = 1;
nodes = (
"379 0 LINE",
"379 481 LINE",
"509 481 LINE",
"509 670 LINE",
"9 670 LINE",
"9 481 LINE",
"147 481 LINE",
"147 0 LINE"
);
}
);
width = 519;
},
{
layerId = "5E4DD32C-6BC9-4010-93B4-D8C61BED16DC";
paths = (
{
closed = 1;
nodes = (
"304 0 LINE",
"304 619 LINE",
"513 619 LINE",
"513 691 LINE",
"13 691 LINE",
"13 619 LINE",
"224 619 LINE",
"224 0 LINE"
);
}
);
width = 526;
},
{
layerId = "0DA49D7F-B466-4A74-9166-6D7870CD51D2";
paths = (
{
closed = 1;
nodes = (
"331 0 LINE",
"424 481 LINE",
"554 481 LINE",
"591 670 LINE",
"91 670 LINE",
"54 481 LINE",
"192 481 LINE",
"99 0 LINE"
);
}
);
width = 519;
},
{
layerId = "3B241295-E7D1-482F-A49F-5B690F967CBA";
paths = (
{
closed = 1;
nodes = (
"256 0 LINE",
"376 619 LINE",
"585 619 LINE",
"599 691 LINE",
"99 691 LINE",
"85 619 LINE",
"296 619 LINE",
"176 0 LINE"
);
}
);
width = 526;
},
{
layerId = "0474999B-FB68-4D9A-82B1-2286F2372C1D";
paths = (
{
closed = 1;
nodes = (
"234 0 LINE",
"363 666 LINE",
"594 666 LINE",
"601 700 LINE",
"101 700 LINE",
"94 666 LINE",
"327 666 LINE",
"198 0 LINE"
);
}
);
width = 527;
},
{
layerId = "0E0E1207-0B3B-41BA-8E0C-9BB926F33A45";
paths = (
{
closed = 1;
nodes = (
"427 0 LINE",
"334 481 LINE",
"464 481 LINE",
"427 670 LINE",
"-73 670 LINE",
"-36 481 LINE",
"102 481 LINE",
"195 0 LINE"
);
}
);
width = 519;
},
{
layerId = "FB927515-0B4B-4E0F-9AFE-1C9AB9ADFFED";
paths = (
{
closed = 1;
nodes = (
"352 0 LINE",
"232 619 LINE",
"441 619 LINE",
"427 691 LINE",
"-73 691 LINE",
"-59 619 LINE",
"152 619 LINE",
"272 0 LINE"
);
}
);
width = 526;
},
{
layerId = "9F9B1D74-FF57-4B2A-AEB5-D743B154EFB7";
paths = (
{
closed = 1;
nodes = (
"331 0 LINE",
"202 666 LINE",
"433 666 LINE",
"426 700 LINE",
"-74 700 LINE",
"-67 666 LINE",
"166 666 LINE",
"295 0 LINE"
);
}
);
width = 527;
}
);
leftKerningGroup = T;
rightKerningGroup = T;
unicode = 0054;
},
{
color = 5;
glyphname = Tbar;
layers = (
{
components = (
{
name = T;
transform = "{1, 0, 0, 1, 2, 0}";
}
);
layerId = "459CA063-FA7D-4205-A795-7B6CE244EAAB";
paths = (
{
closed = 1;
nodes = (
"465 332 LINE",
"465 364 LINE",
"65 364 LINE",
"65 332 LINE"
);
}
);
width = 530;
},
{
components = (
{
name = T;
}
);
layerId = "EA657207-4E15-4023-BA2A-6FA5407A60CD";
paths = (
{
closed = 1;
nodes = (
"426 190 LINE",
"426 327 LINE",
"100 327 LINE",
"100 190 LINE"
);
}
);
width = 519;
},
{
components = (
{
alignment = -1;
name = T;
transform = "{1, 0, 0, 1, 2, 0}";
}
);
layerId = "5E4DD32C-6BC9-4010-93B4-D8C61BED16DC";
paths = (
{
closed = 1;
nodes = (
"468 298 LINE",
"468 366 LINE",
"65 366 LINE",
"65 298 LINE"
);
}
);
width = 529.13725;
},
{
components = (
{
name = T;
}
);
layerId = "0DA49D7F-B466-4A74-9166-6D7870CD51D2";
paths = (
{
closed = 1;
nodes = (
"416 190 LINE",
"442 327 LINE",
"116 327 LINE",
"90 190 LINE"
);
}
);
width = 519;
},
{
components = (
{
alignment = -1;
name = T;
transform = "{1, 0, 0, 1, 2, 0}";
}
);
layerId = "3B241295-E7D1-482F-A49F-5B690F967CBA";
paths = (
{
closed = 1;
nodes = (
"469 298 LINE",
"482 366 LINE",
"79 366 LINE",
"66 298 LINE"
);
}
);
width = 529;
},
{
components = (
{
name = T;
transform = "{1, 0, 0, 1, 2, 0}";
}
);
layerId = "0474999B-FB68-4D9A-82B1-2286F2372C1D";
paths = (
{
closed = 1;
nodes = (
"472 332 LINE",
"479 364 LINE",
"79 364 LINE",
"72 332 LINE"
);
}
);
width = 530;
},
{
components = (
{
name = T;
}
);
layerId = "0E0E1207-0B3B-41BA-8E0C-9BB926F33A45";
paths = (
{
closed = 1;
nodes = (
"436 190 LINE",
"410 327 LINE",
"84 327 LINE",
"110 190 LINE"
);
}
);
width = 519;
},
{
components = (
{
alignment = -1;
name = T;
transform = "{1, 0, 0, 1, 2, 0}";
}
);
layerId = "FB927515-0B4B-4E0F-9AFE-1C9AB9ADFFED";
paths = (
{
closed = 1;
nodes = (
"457 298 LINE",
"444 366 LINE",
"41 366 LINE",
"54 298 LINE"
);
}
);
width = 529;
},
{
components = (
{
name = T;
transform = "{1, 0, 0, 1, 2, 0}";
}
);
layerId = "9F9B1D74-FF57-4B2A-AEB5-D743B154EFB7";
paths = (
{
closed = 1;
nodes = (
"448 332 LINE",
"441 364 LINE",
"41 364 LINE",
"48 332 LINE"
);
}
);
width = 530;
}
);
leftKerningGroup = T;
rightKerningGroup = T;
unicode = 0166;
},
{
color = 5;
glyphname = Tcommaaccent;
layers = (
{
components = (
{
name = T;
}
);
layerId = "459CA063-FA7D-4205-A795-7B6CE244EAAB";
paths = (
{
closed = 1;
nodes = (
"253 -267 LINE",
"299 -78 LINE",
"262 -78 LINE",
"225 -267 LINE"
);
}
);
width = 526;
},
{
components = (
{
name = T;
}
);
layerId = "EA657207-4E15-4023-BA2A-6FA5407A60CD";
paths = (
{
closed = 1;
nodes = (
"303 -260 LINE",
"365 -45 LINE",
"161 -45 LINE",
"141 -260 LINE"
);
}
);
width = 519;
},
{
components = (
{
alignment = -1;
name = T;
}
);
layerId = "5E4DD32C-6BC9-4010-93B4-D8C61BED16DC";
paths = (
{
closed = 1;
nodes = (
"272 -286 LINE",
"322 -78 LINE",
"245 -78 LINE",
"204 -286 LINE"
);
}
);
width = 526;
},
{
components = (
{
name = T;
}
);
layerId = "0DA49D7F-B466-4A74-9166-6D7870CD51D2";
paths = (
{
closed = 1;
nodes = (
"199 -260 LINE",
"303 -45 LINE",
"96 -45 LINE",
"35 -260 LINE"
);
}
);
width = 519;
},
{
components = (
{
alignment = -1;
name = T;
}
);
layerId = "3B241295-E7D1-482F-A49F-5B690F967CBA";
paths = (
{
closed = 1;
nodes = (
"148 -286 LINE",
"238 -78 LINE",
"160 -78 LINE",
"79 -286 LINE"
);
}
);
width = 526;
},
{
components = (
{
name = T;
}
);
layerId = "0474999B-FB68-4D9A-82B1-2286F2372C1D";
paths = (
{
closed = 1;
nodes = (
"134 -267 LINE",
"217 -78 LINE",
"179 -78 LINE",
"106 -267 LINE"
);
}
);
width = 526;
},
{
components = (
{
name = T;
}
);
layerId = "0E0E1207-0B3B-41BA-8E0C-9BB926F33A45";
paths = (
{
closed = 1;
nodes = (
"353 -260 LINE",
"415 -45 LINE",
"211 -45 LINE",
"191 -260 LINE"
);
}
);
width = 519;
},
{
components = (
{
alignment = -1;
name = T;
}
);
layerId = "FB927515-0B4B-4E0F-9AFE-1C9AB9ADFFED";
paths = (
{
closed = 1;
nodes = (
"304 -286 LINE",
"354 -78 LINE",
"277 -78 LINE",
"236 -286 LINE"
);
}
);
width = 526;
},
{
components = (
{
name = T;
}
);
layerId = "9F9B1D74-FF57-4B2A-AEB5-D743B154EFB7";
paths = (
{
closed = 1;
nodes = (
"293 -267 LINE",
"339 -78 LINE",
"302 -78 LINE",
"265 -267 LINE"
);
}
);
width = 526;
}
);
leftKerningGroup = T;
rightKerningGroup = T;
unicode = 021A;
},
{
color = 5;
glyphname = U;
layers = (
{
layerId = "459CA063-FA7D-4205-A795-7B6CE244EAAB";
paths = (
{
closed = 1;
nodes = (
"464 -9 OFFCURVE",
"550 46 OFFCURVE",
"550 196 CURVE SMOOTH",
"550 700 LINE",
"514 700 LINE",
"514 196 LINE SMOOTH",
"514 69 OFFCURVE",
"440 25 OFFCURVE",
"314 25 CURVE SMOOTH",
"197 25 OFFCURVE",
"124 70 OFFCURVE",
"124 196 CURVE SMOOTH",
"124 700 LINE",
"88 700 LINE",
"88 196 LINE SMOOTH",
"88 45 OFFCURVE",
"174 -9 OFFCURVE",
"314 -9 CURVE SMOOTH"
);
}
);
width = 638;
},
{
layerId = "EA657207-4E15-4023-BA2A-6FA5407A60CD";
paths = (
{
closed = 1;
nodes = (
"516 -13 OFFCURVE",
"615 49 OFFCURVE",
"615 244 CURVE SMOOTH",
"615 670 LINE",
"383 670 LINE",
"383 231 LINE SMOOTH",
"383 193 OFFCURVE",
"367 178 OFFCURVE",
"321 178 CURVE SMOOTH",
"275 178 OFFCURVE",
"258 193 OFFCURVE",
"258 231 CURVE SMOOTH",
"258 670 LINE",
"26 670 LINE",
"26 240 LINE SMOOTH",
"26 45 OFFCURVE",
"126 -13 OFFCURVE",
"321 -13 CURVE SMOOTH"
);
}
);
width = 641;
},
{
layerId = "5E4DD32C-6BC9-4010-93B4-D8C61BED16DC";
paths = (
{
closed = 1;
nodes = (
"478 -10 OFFCURVE",
"566 52 OFFCURVE",
"566 211 CURVE SMOOTH",
"566 691 LINE",
"486 691 LINE",
"486 209 LINE SMOOTH",
"486 103 OFFCURVE",
"426 61 OFFCURVE",
"320 61 CURVE SMOOTH",
"218 61 OFFCURVE",
"159 103 OFFCURVE",
"159 209 CURVE SMOOTH",
"159 691 LINE",
"79 691 LINE",
"79 211 LINE SMOOTH",
"79 51 OFFCURVE",
"167 -10 OFFCURVE",
"320 -10 CURVE SMOOTH"
);
}
);
width = 644.90196;
},
{
layerId = "0DA49D7F-B466-4A74-9166-6D7870CD51D2";
paths = (
{
closed = 1;
nodes = (
"472 -13 OFFCURVE",
"575 40 OFFCURVE",
"613 235 CURVE SMOOTH",
"697 670 LINE",
"465 670 LINE",
"381 240 LINE SMOOTH",
"374 202 OFFCURVE",
"347 178 OFFCURVE",
"294 178 CURVE SMOOTH",
"255 178 OFFCURVE",
"246 184 OFFCURVE",
"253 222 CURVE SMOOTH",
"340 670 LINE",
"108 670 LINE",
"26 249 LINE SMOOTH",
"-12 54 OFFCURVE",
"82 -13 OFFCURVE",
"284 -13 CURVE SMOOTH"
);
}
);
width = 642;
},
{
layerId = "3B241295-E7D1-482F-A49F-5B690F967CBA";
paths = (
{
closed = 1;
nodes = (
"430 -10 OFFCURVE",
"527 49 OFFCURVE",
"558 208 CURVE SMOOTH",
"652 691 LINE",
"572 691 LINE",
"479 212 LINE SMOOTH",
"458 106 OFFCURVE",
"387 61 OFFCURVE",
"279 61 CURVE SMOOTH",
"179 61 OFFCURVE",
"130 100 OFFCURVE",
"151 206 CURVE SMOOTH",
"245 691 LINE",
"165 691 LINE",
"72 214 LINE SMOOTH",
"41 54 OFFCURVE",
"119 -10 OFFCURVE",
"275 -10 CURVE SMOOTH"
);
}
);
width = 645;
},
{
layerId = "0474999B-FB68-4D9A-82B1-2286F2372C1D";
paths = (
{
closed = 1;
nodes = (
"415 -9 OFFCURVE",
"510 45 OFFCURVE",
"540 195 CURVE SMOOTH",
"638 700 LINE",
"602 700 LINE",
"504 197 LINE SMOOTH",
"479 70 OFFCURVE",
"395 25 OFFCURVE",
"268 25 CURVE SMOOTH",
"152 25 OFFCURVE",
"89 69 OFFCURVE",
"114 195 CURVE SMOOTH",
"212 700 LINE",
"176 700 LINE",
"78 197 LINE SMOOTH",
"49 46 OFFCURVE",
"125 -9 OFFCURVE",
"267 -9 CURVE SMOOTH"
);
}
);
width = 639;
},
{
layerId = "0E0E1207-0B3B-41BA-8E0C-9BB926F33A45";
paths = (
{
closed = 1;
nodes = (
"561 -13 OFFCURVE",
"653 58 OFFCURVE",
"615 253 CURVE SMOOTH",
"534 670 LINE",
"302 670 LINE",
"389 222 LINE SMOOTH",
"396 184 OFFCURVE",
"388 178 OFFCURVE",
"349 178 CURVE SMOOTH",
"296 178 OFFCURVE",
"268 202 OFFCURVE",
"261 240 CURVE SMOOTH",
"177 670 LINE",
"-55 670 LINE",
"30 231 LINE SMOOTH",
"68 36 OFFCURVE",
"171 -13 OFFCURVE",
"359 -13 CURVE SMOOTH"
);
}
);
width = 642;
},
{
layerId = "FB927515-0B4B-4E0F-9AFE-1C9AB9ADFFED";
paths = (
{
closed = 1;
nodes = (
"526 -10 OFFCURVE",
"603 55 OFFCURVE",
"573 214 CURVE SMOOTH",
"480 691 LINE",
"400 691 LINE",
"494 206 LINE SMOOTH",
"515 100 OFFCURVE",
"465 61 OFFCURVE",
"361 61 CURVE SMOOTH",
"257 61 OFFCURVE",
"187 106 OFFCURVE",
"166 212 CURVE SMOOTH",
"73 691 LINE",
"-7 691 LINE",
"87 208 LINE SMOOTH",
"118 48 OFFCURVE",
"215 -10 OFFCURVE",
"365 -10 CURVE SMOOTH"
);
}
);
width = 645;
},
{
layerId = "9F9B1D74-FF57-4B2A-AEB5-D743B154EFB7";
paths = (
{
closed = 1;
nodes = (
"514 -9 OFFCURVE",
"590 47 OFFCURVE",
"561 197 CURVE SMOOTH",
"463 700 LINE",
"427 700 LINE",
"525 195 LINE SMOOTH",
"550 68 OFFCURVE",
"486 25 OFFCURVE",
"361 25 CURVE SMOOTH",
"243 25 OFFCURVE",
"159 71 OFFCURVE",
"135 197 CURVE SMOOTH",
"37 700 LINE",
"1 700 LINE",
"99 195 LINE SMOOTH",
"129 44 OFFCURVE",
"224 -9 OFFCURVE",
"362 -9 CURVE SMOOTH"
);
}
);
width = 639;
}
);
leftKerningGroup = U;
rightKerningGroup = U;
unicode = 0055;
},
{
color = 5;
glyphname = V;
layers = (
{
layerId = "459CA063-FA7D-4205-A795-7B6CE244EAAB";
paths = (
{
closed = 1;
nodes = (
"342 0 LINE",
"538 700 LINE",
"502 700 LINE",
"316 34 LINE",
"252 34 LINE",
"66 700 LINE",
"30 700 LINE",
"226 0 LINE"
);
}
);
width = 568;
},
{
layerId = "EA657207-4E15-4023-BA2A-6FA5407A60CD";
paths = (
{
closed = 1;
nodes = (
"471 0 LINE",
"602 670 LINE",
"356 670 LINE",
"309 234 LINE",
"291 234 LINE",
"239 670 LINE",
"-7 670 LINE",
"129 0 LINE"
);
}
);
width = 598;
},
{
layerId = "5E4DD32C-6BC9-4010-93B4-D8C61BED16DC";
paths = (
{
closed = 1;
nodes = (
"380 0 LINE",
"559 691 LINE",
"476 691 LINE",
"319 71 LINE",
"264 71 LINE",
"107 691 LINE",
"24 691 LINE",
"204 0 LINE"
);
}
);
width = 583.09804;
},
{
layerId = "0DA49D7F-B466-4A74-9166-6D7870CD51D2";
paths = (
{
closed = 1;
nodes = (
"423 0 LINE",
"684 670 LINE",
"436 670 LINE",
"305 234 LINE",
"286 234 LINE",
"319 670 LINE",
"75 670 LINE",
"81 0 LINE"
);
}
);
width = 598;
},
{
layerId = "3B241295-E7D1-482F-A49F-5B690F967CBA";
paths = (
{
closed = 1;
nodes = (
"331 0 LINE",
"645 691 LINE",
"561 691 LINE",
"283 71 LINE",
"228 71 LINE",
"192 691 LINE",
"110 691 LINE",
"155 0 LINE"
);
}
);
width = 583;
},
{
layerId = "0474999B-FB68-4D9A-82B1-2286F2372C1D";
paths = (
{
closed = 1;
nodes = (
"293 0 LINE",
"625 700 LINE",
"589 700 LINE",
"273 34 LINE",
"209 34 LINE",
"153 700 LINE",
"117 700 LINE",
"177 0 LINE"
);
}
);
width = 568;
},
{
layerId = "0E0E1207-0B3B-41BA-8E0C-9BB926F33A45";
paths = (
{
closed = 1;
nodes = (
"519 0 LINE",
"520 670 LINE",
"276 670 LINE",
"313 234 LINE",
"296 234 LINE",
"159 670 LINE",
"-89 670 LINE",
"177 0 LINE"
);
}
);
width = 598;
},
{
layerId = "FB927515-0B4B-4E0F-9AFE-1C9AB9ADFFED";
paths = (
{
closed = 1;
nodes = (
"429 0 LINE",
"473 691 LINE",
"391 691 LINE",
"355 71 LINE",
"300 71 LINE",
"22 691 LINE",
"-62 691 LINE",
"253 0 LINE"
);
}
);
width = 583;
},
{
layerId = "9F9B1D74-FF57-4B2A-AEB5-D743B154EFB7";
paths = (
{
closed = 1;
nodes = (
"391 0 LINE",
"451 700 LINE",
"415 700 LINE",
"359 34 LINE",
"295 34 LINE",
"-21 700 LINE",
"-57 700 LINE",
"275 0 LINE"
);
}
);
width = 568;
}
);
unicode = 0056;
},
{
color = 5;
glyphname = W;
layers = (
{
layerId = "459CA063-FA7D-4205-A795-7B6CE244EAAB";
paths = (
{
closed = 1;
nodes = (
"281 0 LINE",
"432 656 LINE",
"424 656 LINE",
"575 0 LINE",
"671 0 LINE",
"818 700 LINE",
"782 700 LINE",
"642 34 LINE",
"603 34 LINE",
"450 690 LINE",
"406 690 LINE",
"253 34 LINE",
"214 34 LINE",
"74 700 LINE",
"38 700 LINE",
"185 0 LINE"
);
}
);
width = 856;
},
{
layerId = "EA657207-4E15-4023-BA2A-6FA5407A60CD";
paths = (
{
closed = 1;
nodes = (
"416 0 LINE",
"450 413 LINE",
"460 413 LINE",
"493 0 LINE",
"832 0 LINE",
"906 670 LINE",
"673 670 LINE",
"653 234 LINE",
"635 234 LINE",
"585 660 LINE",
"332 660 LINE",
"287 234 LINE",
"269 234 LINE",
"237 670 LINE",
"6 670 LINE",
"85 0 LINE"
);
}
);
width = 915;
},
{
layerId = "5E4DD32C-6BC9-4010-93B4-D8C61BED16DC";
paths = (
{
closed = 1;
nodes = (
"314 0 LINE",
"451 622 LINE",
"437 622 LINE",
"574 0 LINE",
"718 0 LINE",
"858 691 LINE",
"775 691 LINE",
"659 70 LINE",
"631 70 LINE",
"491 686 LINE",
"397 686 LINE",
"257 70 LINE",
"229 70 LINE",
"113 691 LINE",
"30 691 LINE",
"169 0 LINE"
);
}
);
width = 887.92157;
},
{
layerId = "0DA49D7F-B466-4A74-9166-6D7870CD51D2";
paths = (
{
closed = 1;
nodes = (
"367 0 LINE",
"482 413 LINE",
"492 413 LINE",
"444 0 LINE",
"784 0 LINE",
"988 670 LINE",
"754 670 LINE",
"649 234 LINE",
"631 234 LINE",
"663 660 LINE",
"410 660 LINE",
"283 234 LINE",
"265 234 LINE",
"318 670 LINE",
"88 670 LINE",
"37 0 LINE"
);
}
);
width = 915;
},
{
layerId = "3B241295-E7D1-482F-A49F-5B690F967CBA";
paths = (
{
closed = 1;
nodes = (
"265 0 LINE",
"523 622 LINE",
"509 622 LINE",
"525 0 LINE",
"669 0 LINE",
"944 691 LINE",
"860 691 LINE",
"623 70 LINE",
"595 70 LINE",
"575 686 LINE",
"481 686 LINE",
"221 70 LINE",
"193 70 LINE",
"198 691 LINE",
"116 691 LINE",
"120 0 LINE"
);
}
);
width = 888;
},
{
layerId = "0474999B-FB68-4D9A-82B1-2286F2372C1D";
paths = (
{
closed = 1;
nodes = (
"232 0 LINE",
"511 656 LINE",
"503 656 LINE",
"526 0 LINE",
"622 0 LINE",
"905 700 LINE",
"869 700 LINE",
"599 34 LINE",
"560 34 LINE",
"535 690 LINE",
"491 690 LINE",
"210 34 LINE",
"171 34 LINE",
"161 700 LINE",
"125 700 LINE",
"136 0 LINE"
);
}
);
width = 856;
},
{
layerId = "0E0E1207-0B3B-41BA-8E0C-9BB926F33A45";
paths = (
{
closed = 1;
nodes = (
"465 0 LINE",
"418 413 LINE",
"428 413 LINE",
"542 0 LINE",
"880 0 LINE",
"824 670 LINE",
"592 670 LINE",
"657 234 LINE",
"639 234 LINE",
"507 660 LINE",
"254 660 LINE",
"291 234 LINE",
"273 234 LINE",
"156 670 LINE",
"-76 670 LINE",
"133 0 LINE"
);
}
);
width = 915;
},
{
layerId = "FB927515-0B4B-4E0F-9AFE-1C9AB9ADFFED";
paths = (
{
closed = 1;
nodes = (
"363 0 LINE",
"379 622 LINE",
"365 622 LINE",
"623 0 LINE",
"767 0 LINE",
"772 691 LINE",
"690 691 LINE",
"695 70 LINE",
"667 70 LINE",
"407 686 LINE",
"313 686 LINE",
"293 70 LINE",
"265 70 LINE",
"28 691 LINE",
"-56 691 LINE",
"218 0 LINE"
);
}
);
width = 888;
},
{
layerId = "9F9B1D74-FF57-4B2A-AEB5-D743B154EFB7";
paths = (
{
closed = 1;
nodes = (
"330 0 LINE",
"353 656 LINE",
"345 656 LINE",
"624 0 LINE",
"720 0 LINE",
"731 700 LINE",
"695 700 LINE",
"685 34 LINE",
"646 34 LINE",
"365 690 LINE",
"321 690 LINE",
"296 34 LINE",
"257 34 LINE",
"-13 700 LINE",
"-49 700 LINE",
"234 0 LINE"
);
}
);
width = 856;
}
);
leftKerningGroup = W;
rightKerningGroup = W;
unicode = 0057;
},
{
color = 5;
glyphname = X;
layers = (
{
layerId = "459CA063-FA7D-4205-A795-7B6CE244EAAB";
paths = (
{
closed = 1;
nodes = (
"68 0 LINE",
"277 322 LINE",
"483 0 LINE",
"526 0 LINE",
"303 347 LINE",
"526 700 LINE",
"483 700 LINE",
"276 374 LINE",
"68 700 LINE",
"25 700 LINE",
"251 347 LINE",
"25 0 LINE"
);
}
);
width = 551;
},
{
layerId = "EA657207-4E15-4023-BA2A-6FA5407A60CD";
paths = (
{
closed = 1;
nodes = (
"228 0 LINE",
"289 178 LINE",
"348 0 LINE",
"586 0 LINE",
"450 351 LINE",
"595 670 LINE",
"367 670 LINE",
"289 486 LINE",
"228 670 LINE",
"-8 670 LINE",
"135 321 LINE",
"-8 0 LINE"
);
}
);
width = 583;
},
{
layerId = "5E4DD32C-6BC9-4010-93B4-D8C61BED16DC";
paths = (
{
closed = 1;
nodes = (
"104 0 LINE",
"279 284 LINE",
"450 0 LINE",
"541 0 LINE",
"329 341 LINE",
"541 691 LINE",
"455 691 LINE",
"281 398 LINE",
"109 691 LINE",
"18 691 LINE",
"231 338 LINE",
"18 0 LINE"
);
}
);
width = 558.76471;
},
{
layerId = "0DA49D7F-B466-4A74-9166-6D7870CD51D2";
paths = (
{
closed = 1;
nodes = (
"184 0 LINE",
"281 178 LINE",
"304 0 LINE",
"538 0 LINE",
"472 351 LINE",
"681 670 LINE",
"449 670 LINE",
"333 486 LINE",
"310 670 LINE",
"78 670 LINE",
"151 321 LINE",
"-57 0 LINE"
);
}
);
width = 611;
},
{
layerId = "3B241295-E7D1-482F-A49F-5B690F967CBA";
paths = (
{
closed = 1;
nodes = (
"57 0 LINE",
"288 284 LINE",
"403 0 LINE",
"492 0 LINE",
"347 341 LINE",
"628 691 LINE",
"540 691 LINE",
"308 398 LINE",
"194 691 LINE",
"105 691 LINE",
"249 338 LINE",
"-31 0 LINE"
);
}
);
width = 560;
},
{
layerId = "0474999B-FB68-4D9A-82B1-2286F2372C1D";
paths = (
{
closed = 1;
nodes = (
"20 0 LINE",
"292 322 LINE",
"435 0 LINE",
"477 0 LINE",
"322 347 LINE",
"614 700 LINE",
"570 700 LINE",
"300 374 LINE",
"155 700 LINE",
"113 700 LINE",
"270 347 LINE",
"-24 0 LINE"
);
}
);
width = 552;
},
{
layerId = "0E0E1207-0B3B-41BA-8E0C-9BB926F33A45";
paths = (
{
closed = 1;
nodes = (
"276 0 LINE",
"301 178 LINE",
"396 0 LINE",
"638 0 LINE",
"432 351 LINE",
"513 670 LINE",
"289 670 LINE",
"249 486 LINE",
"150 670 LINE",
"-90 670 LINE",
"123 321 LINE",
"45 0 LINE"
);
}
);
width = 573;
},
{
layerId = "FB927515-0B4B-4E0F-9AFE-1C9AB9ADFFED";
paths = (
{
closed = 1;
nodes = (
"152 0 LINE",
"271 284 LINE",
"498 0 LINE",
"591 0 LINE",
"312 341 LINE",
"455 691 LINE",
"371 691 LINE",
"255 398 LINE",
"25 691 LINE",
"-68 691 LINE",
"214 338 LINE",
"68 0 LINE"
);
}
);
width = 560;
},
{
layerId = "9F9B1D74-FF57-4B2A-AEB5-D743B154EFB7";
paths = (
{
closed = 1;
nodes = (
"117 0 LINE",
"263 322 LINE",
"532 0 LINE",
"576 0 LINE",
"285 347 LINE",
"439 700 LINE",
"397 700 LINE",
"253 374 LINE",
"-18 700 LINE",
"-62 700 LINE",
"233 347 LINE",
"75 0 LINE"
);
}
);
width = 552;
}
);
unicode = 0058;
},
{
color = 5;
glyphname = Y;
layers = (
{
layerId = "459CA063-FA7D-4205-A795-7B6CE244EAAB";
paths = (
{
closed = 1;
nodes = (
"281 0 LINE",
"281 301 LINE",
"509 700 LINE",
"467 700 LINE",
"263 341 LINE",
"59 700 LINE",
"17 700 LINE",
"245 301 LINE",
"245 0 LINE"
);
}
);
width = 526;
},
{
layerId = "EA657207-4E15-4023-BA2A-6FA5407A60CD";
paths = (
{
closed = 1;
nodes = (
"410 0 LINE",
"410 210 LINE",
"606 670 LINE",
"361 670 LINE",
"296 473 LINE",
"233 670 LINE",
"-13 670 LINE",
"178 210 LINE",
"178 0 LINE"
);
}
);
width = 590;
},
{
layerId = "5E4DD32C-6BC9-4010-93B4-D8C61BED16DC";
paths = (
{
closed = 1;
nodes = (
"310 0 LINE",
"310 290 LINE",
"529 691 LINE",
"439 691 LINE",
"269 370 LINE",
"100 691 LINE",
"10 691 LINE",
"230 290 LINE",
"230 0 LINE"
);
}
);
width = 539.37255;
},
{
layerId = "0DA49D7F-B466-4A74-9166-6D7870CD51D2";
paths = (
{
closed = 1;
nodes = (
"360 0 LINE",
"403 210 LINE",
"688 670 LINE",
"439 670 LINE",
"334 473 LINE",
"311 670 LINE",
"69 670 LINE",
"171 210 LINE",
"128 0 LINE"
);
}
);
width = 590;
},
{
layerId = "3B241295-E7D1-482F-A49F-5B690F967CBA";
paths = (
{
closed = 1;
nodes = (
"261 0 LINE",
"318 290 LINE",
"615 691 LINE",
"523 691 LINE",
"290 370 LINE",
"184 691 LINE",
"96 691 LINE",
"238 290 LINE",
"181 0 LINE"
);
}
);
width = 539;
},
{
layerId = "0474999B-FB68-4D9A-82B1-2286F2372C1D";
paths = (
{
closed = 1;
nodes = (
"232 0 LINE",
"291 301 LINE",
"596 700 LINE",
"553 700 LINE",
"279 341 LINE",
"145 700 LINE",
"104 700 LINE",
"255 301 LINE",
"196 0 LINE"
);
}
);
width = 526;
},
{
layerId = "0E0E1207-0B3B-41BA-8E0C-9BB926F33A45";
paths = (
{
closed = 1;
nodes = (
"460 0 LINE",
"417 210 LINE",
"524 670 LINE",
"283 670 LINE",
"258 473 LINE",
"155 670 LINE",
"-95 670 LINE",
"185 210 LINE",
"228 0 LINE"
);
}
);
width = 590;
},
{
layerId = "FB927515-0B4B-4E0F-9AFE-1C9AB9ADFFED";
paths = (
{
closed = 1;
nodes = (
"359 0 LINE",
"302 290 LINE",
"443 691 LINE",
"355 691 LINE",
"248 370 LINE",
"16 691 LINE",
"-76 691 LINE",
"222 290 LINE",
"279 0 LINE"
);
}
);
width = 539;
},
{
layerId = "9F9B1D74-FF57-4B2A-AEB5-D743B154EFB7";
paths = (
{
closed = 1;
nodes = (
"330 0 LINE",
"271 301 LINE",
"422 700 LINE",
"381 700 LINE",
"247 341 LINE",
"-27 700 LINE",
"-70 700 LINE",
"235 301 LINE",
"294 0 LINE"
);
}
);
width = 526;
}
);
leftKerningGroup = Y;
rightKerningGroup = Y;
unicode = 0059;
},
{
color = 5;
glyphname = Z;
layers = (
{
layerId = "459CA063-FA7D-4205-A795-7B6CE244EAAB";
paths = (
{
closed = 1;
nodes = (
"494 -1 LINE",
"494 33 LINE",
"81 33 LINE",
"81 55 LINE",
"494 630 LINE",
"494 700 LINE",
"44 700 LINE",
"44 666 LINE",
"457 666 LINE",
"457 642 LINE",
"44 68 LINE",
"44 -1 LINE"
);
}
);
width = 539;
},
{
layerId = "EA657207-4E15-4023-BA2A-6FA5407A60CD";
paths = (
{
closed = 1;
nodes = (
"549 0 LINE",
"549 189 LINE",
"332 189 LINE",
"332 206 LINE",
"549 481 LINE",
"549 670 LINE",
"19 670 LINE",
"19 481 LINE",
"241 481 LINE",
"241 464 LINE",
"19 180 LINE",
"19 0 LINE"
);
}
);
width = 569;
},
{
layerId = "5E4DD32C-6BC9-4010-93B4-D8C61BED16DC";
paths = (
{
closed = 1;
nodes = (
"493 -1 LINE",
"493 71 LINE",
"135 71 LINE",
"135 91 LINE",
"493 600 LINE",
"493 691 LINE",
"43 691 LINE",
"43 620 LINE",
"400 620 LINE",
"400 599 LINE",
"43 90 LINE",
"43 -1 LINE"
);
}
);
width = 535.98039;
},
{
layerId = "0DA49D7F-B466-4A74-9166-6D7870CD51D2";
paths = (
{
closed = 1;
nodes = (
"503 0 LINE",
"540 189 LINE",
"323 189 LINE",
"328 206 LINE",
"599 481 LINE",
"633 670 LINE",
"103 670 LINE",
"66 481 LINE",
"288 481 LINE",
"282 464 LINE",
"5 180 LINE",
"-27 0 LINE"
);
}
);
width = 574;
},
{
layerId = "3B241295-E7D1-482F-A49F-5B690F967CBA";
paths = (
{
closed = 1;
nodes = (
"446 -1 LINE",
"460 71 LINE",
"102 71 LINE",
"106 91 LINE",
"563 600 LINE",
"580 691 LINE",
"130 691 LINE",
"116 620 LINE",
"473 620 LINE",
"468 599 LINE",
"12 90 LINE",
"-4 -1 LINE"
);
}
);
width = 538;
},
{
layerId = "0474999B-FB68-4D9A-82B1-2286F2372C1D";
paths = (
{
closed = 1;
nodes = (
"446 -1 LINE",
"452 33 LINE",
"39 33 LINE",
"44 55 LINE",
"569 630 LINE",
"582 700 LINE",
"132 700 LINE",
"125 666 LINE",
"538 666 LINE",
"533 642 LINE",
"9 68 LINE",
"-4 -1 LINE"
);
}
);
width = 540;
},
{
layerId = "0E0E1207-0B3B-41BA-8E0C-9BB926F33A45";
paths = (
{
closed = 1;
nodes = (
"598 0 LINE",
"561 189 LINE",
"344 189 LINE",
"339 206 LINE",
"502 481 LINE",
"468 670 LINE",
"-62 670 LINE",
"-25 481 LINE",
"197 481 LINE",
"203 464 LINE",
"36 180 LINE",
"68 0 LINE"
);
}
);
width = 589;
},
{
layerId = "FB927515-0B4B-4E0F-9AFE-1C9AB9ADFFED";
paths = (
{
closed = 1;
nodes = (
"542 -1 LINE",
"528 71 LINE",
"170 71 LINE",
"166 91 LINE",
"425 600 LINE",
"408 691 LINE",
"-42 691 LINE",
"-28 620 LINE",
"329 620 LINE",
"334 599 LINE",
"76 90 LINE",
"92 -1 LINE"
);
}
);
width = 537;
},
{
layerId = "9F9B1D74-FF57-4B2A-AEB5-D743B154EFB7";
paths = (
{
closed = 1;
nodes = (
"543 -1 LINE",
"537 33 LINE",
"124 33 LINE",
"119 55 LINE",
"420 630 LINE",
"407 700 LINE",
"-43 700 LINE",
"-36 666 LINE",
"377 666 LINE",
"382 642 LINE",
"80 68 LINE",
"93 -1 LINE"
);
}
);
width = 539;
}
);
leftKerningGroup = Z;
rightKerningGroup = Z;
unicode = 005A;
},
{
color = 5;
glyphname = a;
layers = (
{
layerId = "459CA063-FA7D-4205-A795-7B6CE244EAAB";
paths = (
{
closed = 1;
nodes = (
"252 -9 OFFCURVE",
"337 16 OFFCURVE",
"381 34 CURVE",
"391 20 OFFCURVE",
"405 10 OFFCURVE",
"421 3 CURVE SMOOTH",
"439 -5 OFFCURVE",
"461 -8 OFFCURVE",
"484 -8 CURVE",
"486 23 LINE",
"451 26 OFFCURVE",
"414 36 OFFCURVE",
"411 65 CURVE",
"411 353 LINE SMOOTH",
"411 456 OFFCURVE",
"366 509 OFFCURVE",
"265 509 CURVE SMOOTH",
"207 509 OFFCURVE",
"121 499 OFFCURVE",
"73 491 CURVE",
"76 458 LINE",
"126 465 OFFCURVE",
"212 475 OFFCURVE",
"265 475 CURVE SMOOTH",
"338 475 OFFCURVE",
"376 440 OFFCURVE",
"376 353 CURVE SMOOTH",
"376 301 LINE",
"186 281 LINE SMOOTH",
"88 271 OFFCURVE",
"48 222 OFFCURVE",
"48 137 CURVE SMOOTH",
"48 40 OFFCURVE",
"97 -9 OFFCURVE",
"179 -9 CURVE SMOOTH"
);
},
{
closed = 1;
nodes = (
"119 23 OFFCURVE",
"85 64 OFFCURVE",
"85 137 CURVE SMOOTH",
"85 206 OFFCURVE",
"112 242 OFFCURVE",
"190 250 CURVE SMOOTH",
"376 269 LINE",
"376 64 LINE",
"332 46 OFFCURVE",
"249 23 OFFCURVE",
"180 23 CURVE SMOOTH"
);
}
);
width = 495;
},
{
layerId = "EA657207-4E15-4023-BA2A-6FA5407A60CD";
paths = (
{
closed = 1;
nodes = (
"255 -13 OFFCURVE",
"312 7 OFFCURVE",
"339 22 CURVE",
"349 7 OFFCURVE",
"382 -13 OFFCURVE",
"436 -13 CURVE SMOOTH",
"454 -13 OFFCURVE",
"505 -6 OFFCURVE",
"539 -1 CURVE",
"542 141 LINE",
"535 143 OFFCURVE",
"522 149 OFFCURVE",
"518 152 CURVE",
"518 342 LINE SMOOTH",
"518 487 OFFCURVE",
"418 518 OFFCURVE",
"273 518 CURVE SMOOTH",
"193 518 OFFCURVE",
"89 498 OFFCURVE",
"32 483 CURVE",
"37 331 LINE",
"91 337 OFFCURVE",
"186 344 OFFCURVE",
"251 344 CURVE SMOOTH",
"277 344 OFFCURVE",
"294 339 OFFCURVE",
"294 325 CURVE SMOOTH",
"294 316 LINE",
"222 313 LINE SMOOTH",
"92 308 OFFCURVE",
"10 288 OFFCURVE",
"10 157 CURVE SMOOTH",
"10 38 OFFCURVE",
"69 -13 OFFCURVE",
"195 -13 CURVE SMOOTH"
);
},
{
closed = 1;
nodes = (
"240 141 OFFCURVE",
"234 149 OFFCURVE",
"234 163 CURVE SMOOTH",
"234 179 OFFCURVE",
"244 190 OFFCURVE",
"260 191 CURVE SMOOTH",
"294 193 LINE",
"294 156 LINE",
"287 150 OFFCURVE",
"271 141 OFFCURVE",
"256 141 CURVE SMOOTH"
);
}
);
width = 557;
},
{
layerId = "5E4DD32C-6BC9-4010-93B4-D8C61BED16DC";
paths = (
{
closed = 1;
nodes = (
"246 -10 OFFCURVE",
"321 13 OFFCURVE",
"359 29 CURVE",
"373 16 OFFCURVE",
"389 7 OFFCURVE",
"406 0 CURVE",
"427 -7 OFFCURVE",
"451 -10 OFFCURVE",
"480 -10 CURVE",
"483 51 LINE",
"451 55 OFFCURVE",
"428 66 OFFCURVE",
"426 96 CURVE",
"426 349 LINE SMOOTH",
"426 458 OFFCURVE",
"378 510 OFFCURVE",
"264 510 CURVE SMOOTH",
"201 510 OFFCURVE",
"115 497 OFFCURVE",
"67 488 CURVE",
"71 429 LINE",
"122 434 OFFCURVE",
"209 442 OFFCURVE",
"259 442 CURVE SMOOTH",
"318 442 OFFCURVE",
"348 417 OFFCURVE",
"348 349 CURVE SMOOTH",
"348 306 LINE",
"194 291 LINE SMOOTH",
"91 282 OFFCURVE",
"40 241 OFFCURVE",
"40 143 CURVE SMOOTH",
"40 43 OFFCURVE",
"89 -10 OFFCURVE",
"181 -10 CURVE SMOOTH"
);
},
{
closed = 1;
nodes = (
"144 55 OFFCURVE",
"119 89 OFFCURVE",
"119 145 CURVE SMOOTH",
"119 200 OFFCURVE",
"143 228 OFFCURVE",
"203 234 CURVE SMOOTH",
"348 248 LINE",
"348 85 LINE",
"313 72 OFFCURVE",
"247 55 OFFCURVE",
"194 55 CURVE SMOOTH"
);
}
);
width = 501.90196;
},
{
layerId = "0DA49D7F-B466-4A74-9166-6D7870CD51D2";
paths = (
{
closed = 1;
nodes = (
"210 -13 OFFCURVE",
"269 3 OFFCURVE",
"303 26 CURVE",
"305 15 OFFCURVE",
"337 -13 OFFCURVE",
"398 -13 CURVE SMOOTH",
"409 -13 OFFCURVE",
"461 -7 OFFCURVE",
"496 -2 CURVE",
"513 139 LINE",
"507 141 OFFCURVE",
"495 144 OFFCURVE",
"492 147 CURVE",
"534 333 LINE SMOOTH",
"563 461 OFFCURVE",
"488 518 OFFCURVE",
"311 518 CURVE SMOOTH",
"238 518 OFFCURVE",
"130 500 OFFCURVE",
"71 485 CURVE",
"59 330 LINE",
"114 336 OFFCURVE",
"211 344 OFFCURVE",
"282 344 CURVE SMOOTH",
"302 344 OFFCURVE",
"313 348 OFFCURVE",
"310 334 CURVE SMOOTH",
"306 316 LINE",
"227 313 LINE SMOOTH",
"96 308 OFFCURVE",
"18 297 OFFCURVE",
"-5 174 CURVE SMOOTH",
"-30 47 OFFCURVE",
"24 -13 OFFCURVE",
"157 -13 CURVE SMOOTH"
);
},
{
closed = 1;
nodes = (
"214 141 OFFCURVE",
"212 145 OFFCURVE",
"212 153 CURVE SMOOTH",
"212 170 OFFCURVE",
"228 187 OFFCURVE",
"255 190 CURVE SMOOTH",
"282 193 LINE",
"271 162 LINE",
"268 158 OFFCURVE",
"242 141 OFFCURVE",
"223 141 CURVE SMOOTH"
);
}
);
width = 560;
},
{
layerId = "3B241295-E7D1-482F-A49F-5B690F967CBA";
paths = (
{
closed = 1;
nodes = (
"197 -10 OFFCURVE",
"276 12 OFFCURVE",
"320 30 CURVE",
"329 18 OFFCURVE",
"344 8 OFFCURVE",
"362 2 CURVE",
"379 -6 OFFCURVE",
"402 -10 OFFCURVE",
"431 -10 CURVE",
"441 51 LINE",
"410 55 OFFCURVE",
"391 63 OFFCURVE",
"395 93 CURVE",
"444 346 LINE SMOOTH",
"465 455 OFFCURVE",
"425 510 OFFCURVE",
"309 510 CURVE SMOOTH",
"248 510 OFFCURVE",
"160 498 OFFCURVE",
"110 489 CURVE",
"108 429 LINE",
"160 434 OFFCURVE",
"248 442 OFFCURVE",
"301 442 CURVE SMOOTH",
"357 442 OFFCURVE",
"380 420 OFFCURVE",
"367 352 CURVE SMOOTH",
"358 306 LINE",
"199 291 LINE SMOOTH",
"94 282 OFFCURVE",
"38 244 OFFCURVE",
"20 149 CURVE SMOOTH",
"0 46 OFFCURVE",
"40 -10 OFFCURVE",
"135 -10 CURVE SMOOTH"
);
},
{
closed = 1;
nodes = (
"103 55 OFFCURVE",
"87 86 OFFCURVE",
"97 139 CURVE SMOOTH",
"108 197 OFFCURVE",
"141 228 OFFCURVE",
"202 234 CURVE SMOOTH",
"347 248 LINE",
"313 86 LINE",
"276 73 OFFCURVE",
"206 55 OFFCURVE",
"150 55 CURVE SMOOTH"
);
}
);
width = 501;
},
{
layerId = "0474999B-FB68-4D9A-82B1-2286F2372C1D";
paths = (
{
closed = 1;
nodes = (
"203 -9 OFFCURVE",
"293 15 OFFCURVE",
"341 35 CURVE",
"348 21 OFFCURVE",
"360 11 OFFCURVE",
"376 4 CURVE SMOOTH",
"391 -4 OFFCURVE",
"412 -8 OFFCURVE",
"435 -8 CURVE",
"441 23 LINE",
"407 26 OFFCURVE",
"372 35 OFFCURVE",
"375 64 CURVE",
"431 352 LINE SMOOTH",
"451 455 OFFCURVE",
"416 509 OFFCURVE",
"313 509 CURVE SMOOTH",
"257 509 OFFCURVE",
"169 499 OFFCURVE",
"119 491 CURVE",
"118 458 LINE",
"169 465 OFFCURVE",
"257 475 OFFCURVE",
"312 475 CURVE SMOOTH",
"383 475 OFFCURVE",
"414 441 OFFCURVE",
"397 354 CURVE SMOOTH",
"386 301 LINE",
"191 281 LINE SMOOTH",
"91 271 OFFCURVE",
"43 223 OFFCURVE",
"27 140 CURVE SMOOTH",
"8 41 OFFCURVE",
"48 -9 OFFCURVE",
"132 -9 CURVE SMOOTH"
);
},
{
closed = 1;
nodes = (
"74 23 OFFCURVE",
"49 63 OFFCURVE",
"63 134 CURVE SMOOTH",
"77 205 OFFCURVE",
"112 242 OFFCURVE",
"192 250 CURVE SMOOTH",
"380 269 LINE",
"339 65 LINE",
"292 47 OFFCURVE",
"204 23 OFFCURVE",
"134 23 CURVE SMOOTH"
);
}
);
width = 494;
},
{
layerId = "0E0E1207-0B3B-41BA-8E0C-9BB926F33A45";
paths = (
{
closed = 1;
nodes = (
"299 -13 OFFCURVE",
"352 11 OFFCURVE",
"373 20 CURVE",
"393 0 OFFCURVE",
"426 -13 OFFCURVE",
"473 -13 CURVE SMOOTH",
"498 -13 OFFCURVE",
"561 -5 OFFCURVE",
"594 0 CURVE",
"568 143 LINE",
"562 145 OFFCURVE",
"546 154 OFFCURVE",
"541 157 CURVE",
"498 351 LINE SMOOTH",
"466 495 OFFCURVE",
"372 518 OFFCURVE",
"234 518 CURVE SMOOTH",
"147 518 OFFCURVE",
"47 496 OFFCURVE",
"-7 481 CURVE",
"14 332 LINE",
"67 338 OFFCURVE",
"160 344 OFFCURVE",
"219 344 CURVE SMOOTH",
"251 344 OFFCURVE",
"281 332 OFFCURVE",
"281 318 CURVE SMOOTH",
"281 316 LINE",
"216 313 LINE SMOOTH",
"87 307 OFFCURVE",
"4 279 OFFCURVE",
"31 140 CURVE SMOOTH",
"52 29 OFFCURVE",
"113 -13 OFFCURVE",
"232 -13 CURVE SMOOTH"
);
},
{
closed = 1;
nodes = (
"268 141 OFFCURVE",
"252 158 OFFCURVE",
"247 180 CURVE SMOOTH",
"246 188 OFFCURVE",
"248 192 OFFCURVE",
"264 192 CURVE SMOOTH",
"305 193 LINE",
"318 150 LINE",
"312 144 OFFCURVE",
"299 141 OFFCURVE",
"290 141 CURVE SMOOTH"
);
}
);
width = 562;
},
{
layerId = "FB927515-0B4B-4E0F-9AFE-1C9AB9ADFFED";
paths = (
{
closed = 1;
nodes = (
"294 -10 OFFCURVE",
"364 14 OFFCURVE",
"397 28 CURVE",
"417 14 OFFCURVE",
"434 6 OFFCURVE",
"450 -2 CURVE",
"474 -8 OFFCURVE",
"509 -10 OFFCURVE",
"538 -10 CURVE",
"524 51 LINE",
"491 55 OFFCURVE",
"463 69 OFFCURVE",
"455 99 CURVE",
"406 352 LINE SMOOTH",
"385 461 OFFCURVE",
"330 510 OFFCURVE",
"218 510 CURVE SMOOTH",
"153 510 OFFCURVE",
"69 496 OFFCURVE",
"23 487 CURVE",
"33 429 LINE",
"83 434 OFFCURVE",
"169 442 OFFCURVE",
"216 442 CURVE SMOOTH",
"278 442 OFFCURVE",
"315 414 OFFCURVE",
"329 346 CURVE SMOOTH",
"337 306 LINE",
"188 291 LINE SMOOTH",
"87 281 OFFCURVE",
"42 238 OFFCURVE",
"62 137 CURVE SMOOTH",
"80 40 OFFCURVE",
"137 -10 OFFCURVE",
"226 -10 CURVE SMOOTH"
);
},
{
closed = 1;
nodes = (
"184 55 OFFCURVE",
"149 92 OFFCURVE",
"138 151 CURVE SMOOTH",
"128 203 OFFCURVE",
"144 228 OFFCURVE",
"203 234 CURVE SMOOTH",
"348 248 LINE",
"382 84 LINE",
"350 71 OFFCURVE",
"287 55 OFFCURVE",
"237 55 CURVE SMOOTH"
);
}
);
width = 504;
},
{
layerId = "9F9B1D74-FF57-4B2A-AEB5-D743B154EFB7";
paths = (
{
closed = 1;
nodes = (
"302 -9 OFFCURVE",
"382 17 OFFCURVE",
"422 33 CURVE",
"436 19 OFFCURVE",
"451 9 OFFCURVE",
"468 2 CURVE SMOOTH",
"488 -5 OFFCURVE",
"515 -8 OFFCURVE",
"538 -8 CURVE",
"532 23 LINE",
"496 26 OFFCURVE",
"456 37 OFFCURVE",
"447 66 CURVE",
"391 354 LINE SMOOTH",
"371 457 OFFCURVE",
"317 509 OFFCURVE",
"218 509 CURVE SMOOTH",
"158 509 OFFCURVE",
"74 499 OFFCURVE",
"28 491 CURVE",
"35 458 LINE",
"84 465 OFFCURVE",
"168 475 OFFCURVE",
"219 475 CURVE SMOOTH",
"294 475 OFFCURVE",
"340 439 OFFCURVE",
"357 352 CURVE SMOOTH",
"367 301 LINE",
"182 281 LINE SMOOTH",
"86 271 OFFCURVE",
"54 221 OFFCURVE",
"71 134 CURVE SMOOTH",
"90 39 OFFCURVE",
"147 -9 OFFCURVE",
"227 -9 CURVE SMOOTH"
);
},
{
closed = 1;
nodes = (
"165 23 OFFCURVE",
"121 65 OFFCURVE",
"107 140 CURVE SMOOTH",
"94 207 OFFCURVE",
"113 242 OFFCURVE",
"189 250 CURVE SMOOTH",
"373 269 LINE",
"414 63 LINE",
"373 45 OFFCURVE",
"295 23 OFFCURVE",
"227 23 CURVE SMOOTH"
);
}
);
width = 497;
}
);
leftKerningGroup = a;
rightKerningGroup = a;
unicode = 0061;
},
{
color = 5;
glyphname = ae;
layers = (
{
layerId = "459CA063-FA7D-4205-A795-7B6CE244EAAB";
paths = (
{
closed = 1;
nodes = (
"263 -9 OFFCURVE",
"336 13 OFFCURVE",
"419 49 CURVE",
"447 13 OFFCURVE",
"493 -9 OFFCURVE",
"562 -9 CURVE SMOOTH",
"615 -9 OFFCURVE",
"699 -4 OFFCURVE",
"747 0 CURVE",
"745 32 LINE",
"697 28 OFFCURVE",
"614 23 OFFCURVE",
"563 23 CURVE SMOOTH",
"447 23 OFFCURVE",
"411 98 OFFCURVE",
"411 236 CURVE",
"766 236 LINE",
"766 269 LINE SMOOTH",
"766 442 OFFCURVE",
"699 509 OFFCURVE",
"576 509 CURVE SMOOTH",
"502 509 OFFCURVE",
"440 484 OFFCURVE",
"404 413 CURVE",
"388 477 OFFCURVE",
"343 509 OFFCURVE",
"265 509 CURVE SMOOTH",
"207 509 OFFCURVE",
"122 503 OFFCURVE",
"75 499 CURVE",
"77 466 LINE",
"126 470 OFFCURVE",
"211 475 OFFCURVE",
"265 475 CURVE SMOOTH",
"337 475 OFFCURVE",
"376 441 OFFCURVE",
"376 353 CURVE SMOOTH",
"376 301 LINE",
"233 286 LINE SMOOTH",
"100 269 OFFCURVE",
"48 249 OFFCURVE",
"48 137 CURVE SMOOTH",
"48 39 OFFCURVE",
"93 -9 OFFCURVE",
"175 -9 CURVE SMOOTH"
);
},
{
closed = 1;
nodes = (
"120 23 OFFCURVE",
"85 63 OFFCURVE",
"85 137 CURVE SMOOTH",
"85 209 OFFCURVE",
"116 243 OFFCURVE",
"190 250 CURVE SMOOTH",
"374 268 LINE",
"374 186 OFFCURVE",
"380 121 OFFCURVE",
"404 74 CURVE",
"387 67 OFFCURVE",
"269 23 OFFCURVE",
"176 23 CURVE SMOOTH"
);
},
{
closed = 1;
nodes = (
"411 419 OFFCURVE",
"476 477 OFFCURVE",
"576 477 CURVE SMOOTH",
"680 477 OFFCURVE",
"729 421 OFFCURVE",
"729 268 CURVE",
"411 268 LINE"
);
}
);
width = 818;
},
{
layerId = "EA657207-4E15-4023-BA2A-6FA5407A60CD";
paths = (
{
closed = 1;
nodes = (
"252 -13 OFFCURVE",
"335 6 OFFCURVE",
"383 21 CURVE",
"414 -2 OFFCURVE",
"460 -13 OFFCURVE",
"527 -13 CURVE SMOOTH",
"617 -13 OFFCURVE",
"726 4 OFFCURVE",
"783 16 CURVE",
"778 161 LINE",
"717 157 OFFCURVE",
"610 152 OFFCURVE",
"543 152 CURVE SMOOTH",
"509 152 OFFCURVE",
"495 162 OFFCURVE",
"494 187 CURVE",
"783 187 LINE",
"793 286 LINE",
"793 445 OFFCURVE",
"705 518 OFFCURVE",
"532 518 CURVE SMOOTH",
"479 518 OFFCURVE",
"439 509 OFFCURVE",
"409 492 CURVE",
"378 512 OFFCURVE",
"332 518 OFFCURVE",
"267 518 CURVE SMOOTH",
"187 518 OFFCURVE",
"86 498 OFFCURVE",
"32 483 CURVE",
"37 331 LINE",
"88 337 OFFCURVE",
"180 344 OFFCURVE",
"245 344 CURVE SMOOTH",
"271 344 OFFCURVE",
"288 339 OFFCURVE",
"288 325 CURVE SMOOTH",
"288 316 LINE",
"220 313 LINE SMOOTH",
"81 306 OFFCURVE",
"10 292 OFFCURVE",
"10 157 CURVE SMOOTH",
"10 38 OFFCURVE",
"80 -13 OFFCURVE",
"189 -13 CURVE SMOOTH"
);
},
{
closed = 1;
nodes = (
"234 141 OFFCURVE",
"228 149 OFFCURVE",
"228 163 CURVE SMOOTH",
"228 179 OFFCURVE",
"238 190 OFFCURVE",
"254 191 CURVE SMOOTH",
"288 193 LINE",
"288 181 OFFCURVE",
"288 169 OFFCURVE",
"288 156 CURVE",
"281 150 OFFCURVE",
"265 141 OFFCURVE",
"250 141 CURVE SMOOTH"
);
},
{
closed = 1;
nodes = (
"494 346 OFFCURVE",
"502 362 OFFCURVE",
"532 362 CURVE SMOOTH",
"559 362 OFFCURVE",
"571 349 OFFCURVE",
"571 309 CURVE",
"493 309 LINE"
);
}
);
width = 807;
},
{
layerId = "5E4DD32C-6BC9-4010-93B4-D8C61BED16DC";
paths = (
{
closed = 1;
nodes = (
"261 -10 OFFCURVE",
"326 11 OFFCURVE",
"399 43 CURVE",
"430 9 OFFCURVE",
"477 -10 OFFCURVE",
"546 -10 CURVE SMOOTH",
"606 -10 OFFCURVE",
"693 -1 OFFCURVE",
"741 7 CURVE",
"739 70 LINE",
"693 66 OFFCURVE",
"611 61 OFFCURVE",
"556 61 CURVE SMOOTH {name = hr00;}",
"459 61 OFFCURVE",
"426 114 OFFCURVE",
"426 217 CURVE",
"754 217 LINE",
"759 276 LINE",
"759 440 OFFCURVE",
"690 510 OFFCURVE",
"557 510 CURVE SMOOTH",
"491 510 OFFCURVE",
"437 490 OFFCURVE",
"401 439 CURVE",
"379 487 OFFCURVE",
"335 510 OFFCURVE",
"267 510 CURVE SMOOTH",
"211 510 OFFCURVE",
"121 501 OFFCURVE",
"70 495 CURVE",
"73 425 LINE",
"123 430 OFFCURVE",
"209 435 OFFCURVE",
"263 435 CURVE SMOOTH",
"317 435 OFFCURVE",
"348 408 OFFCURVE",
"348 347 CURVE SMOOTH",
"348 306 LINE",
"220 295 LINE SMOOTH",
"98 282 OFFCURVE",
"40 255 OFFCURVE",
"40 143 CURVE SMOOTH",
"40 45 OFFCURVE",
"87 -10 OFFCURVE",
"176 -10 CURVE SMOOTH"
);
},
{
closed = 1;
nodes = (
"145 58 OFFCURVE",
"119 88 OFFCURVE",
"119 145 CURVE SMOOTH",
"119 202 OFFCURVE",
"146 227 OFFCURVE",
"203 231 CURVE SMOOTH",
"346 243 LINE",
"346 192 OFFCURVE",
"350 128 OFFCURVE",
"364 93 CURVE",
"342 86 OFFCURVE",
"254 58 OFFCURVE",
"189 58 CURVE SMOOTH"
);
},
{
closed = 1;
nodes = (
"426 394 OFFCURVE",
"472 440 OFFCURVE",
"557 440 CURVE SMOOTH",
"643 440 OFFCURVE",
"681 397 OFFCURVE",
"681 280 CURVE",
"426 280 LINE"
);
}
);
width = 803.33333;
},
{
layerId = "0DA49D7F-B466-4A74-9166-6D7870CD51D2";
paths = (
{
closed = 1;
nodes = (
"207 -13 OFFCURVE",
"293 3 OFFCURVE",
"350 24 CURVE",
"371 4 OFFCURVE",
"415 -13 OFFCURVE",
"489 -13 CURVE SMOOTH",
"572 -13 OFFCURVE",
"684 2 OFFCURVE",
"743 14 CURVE",
"753 162 LINE",
"692 158 OFFCURVE",
"584 152 OFFCURVE",
"510 152 CURVE SMOOTH",
"483 152 OFFCURVE",
"475 153 OFFCURVE",
"479 178 CURVE",
"771 187 LINE",
"798 277 LINE",
"829 436 OFFCURVE",
"750 518 OFFCURVE",
"570 518 CURVE SMOOTH",
"524 518 OFFCURVE",
"484 513 OFFCURVE",
"444 492 CURVE",
"422 507 OFFCURVE",
"377 518 OFFCURVE",
"305 518 CURVE SMOOTH",
"232 518 OFFCURVE",
"127 500 OFFCURVE",
"71 485 CURVE",
"59 330 LINE",
"111 336 OFFCURVE",
"205 344 OFFCURVE",
"276 344 CURVE SMOOTH",
"296 344 OFFCURVE",
"307 348 OFFCURVE",
"304 334 CURVE SMOOTH",
"300 316 LINE",
"225 313 LINE SMOOTH",
"85 307 OFFCURVE",
"19 301 OFFCURVE",
"-5 174 CURVE SMOOTH",
"-30 47 OFFCURVE",
"35 -13 OFFCURVE",
"151 -13 CURVE SMOOTH"
);
},
{
closed = 1;
nodes = (
"208 141 OFFCURVE",
"206 145 OFFCURVE",
"206 151 CURVE SMOOTH",
"206 173 OFFCURVE",
"227 202 OFFCURVE",
"253 202 CURVE SMOOTH",
"278 202 LINE",
"276 190 OFFCURVE",
"272 180 OFFCURVE",
"267 171 CURVE SMOOTH",
"256 153 OFFCURVE",
"239 141 OFFCURVE",
"215 141 CURVE SMOOTH"
);
},
{
closed = 1;
nodes = (
"511 347 OFFCURVE",
"530 362 OFFCURVE",
"567 362 CURVE SMOOTH",
"587 362 OFFCURVE",
"591 350 OFFCURVE",
"584 310 CURVE",
"502 310 LINE"
);
}
);
width = 807;
},
{
layerId = "3B241295-E7D1-482F-A49F-5B690F967CBA";
paths = (
{
closed = 1;
nodes = (
"212 -10 OFFCURVE",
"281 10 OFFCURVE",
"362 44 CURVE",
"385 11 OFFCURVE",
"428 -10 OFFCURVE",
"500 -10 CURVE SMOOTH",
"557 -10 OFFCURVE",
"646 -1 OFFCURVE",
"696 7 CURVE",
"701 70 LINE",
"654 66 OFFCURVE",
"571 61 OFFCURVE",
"514 61 CURVE SMOOTH {name = hr00;}",
"419 61 OFFCURVE",
"398 111 OFFCURVE",
"418 214 CURVE",
"747 217 LINE",
"763 273 LINE",
"795 437 OFFCURVE",
"737 510 OFFCURVE",
"602 510 CURVE SMOOTH",
"538 510 OFFCURVE",
"482 492 OFFCURVE",
"435 439 CURVE",
"423 484 OFFCURVE",
"382 510 OFFCURVE",
"312 510 CURVE SMOOTH",
"258 510 OFFCURVE",
"167 501 OFFCURVE",
"115 495 CURVE",
"109 425 LINE",
"160 430 OFFCURVE",
"247 435 OFFCURVE",
"304 435 CURVE SMOOTH",
"355 435 OFFCURVE",
"379 411 OFFCURVE",
"367 350 CURVE SMOOTH",
"358 306 LINE",
"226 295 LINE SMOOTH",
"101 282 OFFCURVE",
"41 258 OFFCURVE",
"20 149 CURVE SMOOTH",
"0 48 OFFCURVE",
"38 -10 OFFCURVE",
"130 -10 CURVE SMOOTH"
);
},
{
closed = 1;
nodes = (
"105 58 OFFCURVE",
"86 85 OFFCURVE",
"97 139 CURVE SMOOTH",
"108 199 OFFCURVE",
"143 227 OFFCURVE",
"201 231 CURVE SMOOTH",
"345 246 LINE",
"335 195 OFFCURVE",
"327 131 OFFCURVE",
"332 97 CURVE",
"307 87 OFFCURVE",
"214 58 OFFCURVE",
"146 58 CURVE SMOOTH"
);
},
{
closed = 1;
nodes = (
"453 391 OFFCURVE",
"511 440 OFFCURVE",
"598 440 CURVE SMOOTH",
"682 440 OFFCURVE",
"710 400 OFFCURVE",
"687 283 CURVE",
"431 277 LINE"
);
}
);
width = 803;
},
{
layerId = "0474999B-FB68-4D9A-82B1-2286F2372C1D";
paths = (
{
closed = 1;
nodes = (
"214 -9 OFFCURVE",
"291 12 OFFCURVE",
"382 50 CURVE",
"402 14 OFFCURVE",
"444 -9 OFFCURVE",
"515 -9 CURVE SMOOTH",
"566 -9 OFFCURVE",
"651 -4 OFFCURVE",
"700 0 CURVE",
"702 32 LINE",
"653 28 OFFCURVE",
"569 23 OFFCURVE",
"517 23 CURVE SMOOTH",
"402 23 OFFCURVE",
"382 97 OFFCURVE",
"408 235 CURVE",
"764 236 LINE",
"770 268 LINE SMOOTH",
"803 441 OFFCURVE",
"749 509 OFFCURVE",
"624 509 CURVE SMOOTH",
"552 509 OFFCURVE",
"486 485 OFFCURVE",
"435 413 CURVE",
"432 476 OFFCURVE",
"393 509 OFFCURVE",
"313 509 CURVE SMOOTH",
"257 509 OFFCURVE",
"170 503 OFFCURVE",
"123 499 CURVE",
"121 466 LINE",
"170 470 OFFCURVE",
"256 475 OFFCURVE",
"312 475 CURVE SMOOTH",
"382 475 OFFCURVE",
"414 442 OFFCURVE",
"397 354 CURVE SMOOTH",
"386 301 LINE",
"239 286 LINE SMOOTH",
"103 269 OFFCURVE",
"48 250 OFFCURVE",
"27 140 CURVE SMOOTH",
"8 40 OFFCURVE",
"44 -9 OFFCURVE",
"128 -9 CURVE SMOOTH"
);
},
{
closed = 1;
nodes = (
"75 23 OFFCURVE",
"49 62 OFFCURVE",
"63 134 CURVE SMOOTH",
"77 208 OFFCURVE",
"116 243 OFFCURVE",
"192 250 CURVE SMOOTH",
"378 269 LINE",
"362 187 OFFCURVE",
"356 122 OFFCURVE",
"370 76 CURVE",
"351 68 OFFCURVE",
"224 23 OFFCURVE",
"130 23 CURVE SMOOTH"
);
},
{
closed = 1;
nodes = (
"444 418 OFFCURVE",
"522 477 OFFCURVE",
"623 477 CURVE SMOOTH",
"726 477 OFFCURVE",
"763 422 OFFCURVE",
"733 269 CURVE",
"415 267 LINE"
);
}
);
width = 819;
},
{
layerId = "0E0E1207-0B3B-41BA-8E0C-9BB926F33A45";
paths = (
{
closed = 1;
nodes = (
"296 -13 OFFCURVE",
"375 9 OFFCURVE",
"415 19 CURVE",
"458 -7 OFFCURVE",
"504 -13 OFFCURVE",
"564 -13 CURVE SMOOTH",
"661 -13 OFFCURVE",
"766 6 OFFCURVE",
"821 18 CURVE",
"802 160 LINE",
"742 156 OFFCURVE",
"635 152 OFFCURVE",
"575 152 CURVE SMOOTH",
"534 152 OFFCURVE",
"510 171 OFFCURVE",
"504 196 CURVE",
"794 187 LINE",
"783 295 LINE",
"753 454 OFFCURVE",
"659 518 OFFCURVE",
"493 518 CURVE SMOOTH",
"433 518 OFFCURVE",
"395 505 OFFCURVE",
"373 492 CURVE",
"331 517 OFFCURVE",
"286 518 OFFCURVE",
"228 518 CURVE SMOOTH",
"141 518 OFFCURVE",
"44 496 OFFCURVE",
"-7 481 CURVE",
"14 332 LINE",
"64 338 OFFCURVE",
"154 344 OFFCURVE",
"213 344 CURVE SMOOTH",
"245 344 OFFCURVE",
"269 344 OFFCURVE",
"272 330 CURVE SMOOTH",
"275 316 LINE",
"214 313 LINE SMOOTH",
"77 306 OFFCURVE",
"3 283 OFFCURVE",
"31 140 CURVE SMOOTH",
"52 29 OFFCURVE",
"124 -13 OFFCURVE",
"226 -13 CURVE SMOOTH"
);
},
{
closed = 1;
nodes = (
"262 141 OFFCURVE",
"246 158 OFFCURVE",
"241 180 CURVE SMOOTH",
"240 188 OFFCURVE",
"242 189 OFFCURVE",
"258 192 CURVE SMOOTH",
"300 201 LINE",
"303 189 OFFCURVE",
"305 160 OFFCURVE",
"313 151 CURVE",
"306 153 OFFCURVE",
"293 141 OFFCURVE",
"284 141 CURVE SMOOTH"
);
},
{
closed = 1;
nodes = (
"473 355 OFFCURVE",
"473 362 OFFCURVE",
"496 362 CURVE SMOOTH",
"530 362 OFFCURVE",
"553 340 OFFCURVE",
"561 300 CURVE",
"479 318 LINE"
);
}
);
width = 806;
},
{
layerId = "FB927515-0B4B-4E0F-9AFE-1C9AB9ADFFED";
paths = (
{
closed = 1;
nodes = (
"309 -10 OFFCURVE",
"369 12 OFFCURVE",
"435 42 CURVE",
"475 7 OFFCURVE",
"525 -10 OFFCURVE",
"591 -10 CURVE SMOOTH",
"654 -10 OFFCURVE",
"739 -1 OFFCURVE",
"785 7 CURVE",
"776 70 LINE",
"731 66 OFFCURVE",
"650 61 OFFCURVE",
"597 61 CURVE SMOOTH {name = hr00;}",
"498 61 OFFCURVE",
"451 117 OFFCURVE",
"431 220 CURVE",
"760 217 LINE",
"753 279 LINE",
"721 443 OFFCURVE",
"642 510 OFFCURVE",
"511 510 CURVE SMOOTH",
"443 510 OFFCURVE",
"392 488 OFFCURVE",
"366 439 CURVE",
"333 490 OFFCURVE",
"287 510 OFFCURVE",
"221 510 CURVE SMOOTH",
"163 510 OFFCURVE",
"74 501 OFFCURVE",
"25 495 CURVE",
"36 425 LINE",
"85 430 OFFCURVE",
"170 435 OFFCURVE",
"221 435 CURVE SMOOTH",
"278 435 OFFCURVE",
"317 405 OFFCURVE",
"329 344 CURVE SMOOTH",
"337 306 LINE",
"213 295 LINE SMOOTH",
"94 282 OFFCURVE",
"39 252 OFFCURVE",
"62 137 CURVE SMOOTH",
"80 42 OFFCURVE",
"135 -10 OFFCURVE",
"221 -10 CURVE SMOOTH"
);
},
{
closed = 1;
nodes = (
"184 58 OFFCURVE",
"149 91 OFFCURVE",
"138 151 CURVE SMOOTH",
"127 205 OFFCURVE",
"147 227 OFFCURVE",
"204 231 CURVE SMOOTH",
"348 240 LINE",
"357 189 OFFCURVE",
"373 125 OFFCURVE",
"396 90 CURVE",
"376 85 OFFCURVE",
"293 58 OFFCURVE",
"231 58 CURVE SMOOTH"
);
},
{
closed = 1;
nodes = (
"397 397 OFFCURVE",
"432 440 OFFCURVE",
"515 440 CURVE SMOOTH",
"603 440 OFFCURVE",
"653 394 OFFCURVE",
"675 277 CURVE",
"419 283 LINE"
);
}
);
width = 803;
},
{
layerId = "9F9B1D74-FF57-4B2A-AEB5-D743B154EFB7";
paths = (
{
closed = 1;
nodes = (
"313 -9 OFFCURVE",
"381 14 OFFCURVE",
"457 48 CURVE",
"493 12 OFFCURVE",
"543 -9 OFFCURVE",
"610 -9 CURVE SMOOTH",
"665 -9 OFFCURVE",
"748 -4 OFFCURVE",
"795 0 CURVE",
"789 32 LINE",
"742 28 OFFCURVE",
"660 23 OFFCURVE",
"610 23 CURVE SMOOTH",
"493 23 OFFCURVE",
"441 99 OFFCURVE",
"414 237 CURVE",
"769 236 LINE",
"763 270 LINE SMOOTH",
"729 443 OFFCURVE",
"650 509 OFFCURVE",
"529 509 CURVE SMOOTH",
"453 509 OFFCURVE",
"396 483 OFFCURVE",
"374 413 CURVE",
"345 478 OFFCURVE",
"294 509 OFFCURVE",
"218 509 CURVE SMOOTH",
"158 509 OFFCURVE",
"75 503 OFFCURVE",
"28 499 CURVE",
"34 466 LINE",
"83 470 OFFCURVE",
"167 475 OFFCURVE",
"219 475 CURVE SMOOTH",
"293 475 OFFCURVE",
"340 440 OFFCURVE",
"357 352 CURVE SMOOTH",
"367 301 LINE",
"228 286 LINE SMOOTH",
"98 269 OFFCURVE",
"49 248 OFFCURVE",
"71 134 CURVE SMOOTH",
"90 38 OFFCURVE",
"143 -9 OFFCURVE",
"223 -9 CURVE SMOOTH"
);
},
{
closed = 1;
nodes = (
"166 23 OFFCURVE",
"122 64 OFFCURVE",
"107 140 CURVE SMOOTH",
"93 210 OFFCURVE",
"117 243 OFFCURVE",
"189 250 CURVE SMOOTH",
"371 267 LINE",
"387 185 OFFCURVE",
"405 120 OFFCURVE",
"440 72 CURVE",
"424 67 OFFCURVE",
"315 23 OFFCURVE",
"223 23 CURVE SMOOTH"
);
},
{
closed = 1;
nodes = (
"378 420 OFFCURVE",
"431 477 OFFCURVE",
"530 477 CURVE SMOOTH",
"635 477 OFFCURVE",
"697 420 OFFCURVE",
"726 267 CURVE",
"408 269 LINE"
);
}
);
width = 821;
}
);
leftKerningGroup = a;
rightKerningGroup = e;
unicode = 00E6;
},
{
color = 5;
glyphname = b;
layers = (
{
layerId = "459CA063-FA7D-4205-A795-7B6CE244EAAB";
paths = (
{
closed = 1;
nodes = (
"413 -9 OFFCURVE",
"455 71 OFFCURVE",
"455 258 CURVE SMOOTH",
"455 430 OFFCURVE",
"421 509 OFFCURVE",
"285 509 CURVE SMOOTH",
"220 509 OFFCURVE",
"149 486 OFFCURVE",
"113 469 CURVE",
"113 730 LINE",
"78 730 LINE",
"78 0 LINE",
"113 -4 OFFCURVE",
"177 -9 OFFCURVE",
"227 -9 CURVE SMOOTH"
);
},
{
closed = 1;
nodes = (
"200 23 OFFCURVE",
"147 26 OFFCURVE",
"113 29 CURVE",
"113 437 LINE",
"149 454 OFFCURVE",
"220 477 OFFCURVE",
"285 477 CURVE SMOOTH",
"396 477 OFFCURVE",
"418 406 OFFCURVE",
"418 258 CURVE SMOOTH",
"418 97 OFFCURVE",
"393 23 OFFCURVE",
"226 23 CURVE SMOOTH"
);
}
);
width = 514;
},
{
layerId = "EA657207-4E15-4023-BA2A-6FA5407A60CD";
paths = (
{
closed = 1;
nodes = (
"489 -13 OFFCURVE",
"553 58 OFFCURVE",
"553 261 CURVE SMOOTH",
"553 412 OFFCURVE",
"503 518 OFFCURVE",
"355 518 CURVE SMOOTH",
"327 518 OFFCURVE",
"279 509 OFFCURVE",
"251 502 CURVE",
"251 690 LINE",
"27 690 LINE",
"27 10 LINE",
"101 0 OFFCURVE",
"220 -13 OFFCURVE",
"279 -13 CURVE SMOOTH"
);
},
{
closed = 1;
nodes = (
"269 168 OFFCURVE",
"257 170 OFFCURVE",
"251 171 CURVE",
"251 330 LINE",
"261 333 OFFCURVE",
"276 337 OFFCURVE",
"283 337 CURVE SMOOTH",
"313 337 OFFCURVE",
"327 321 OFFCURVE",
"327 256 CURVE SMOOTH",
"327 209 OFFCURVE",
"320 168 OFFCURVE",
"283 168 CURVE SMOOTH"
);
}
);
width = 569;
},
{
layerId = "5E4DD32C-6BC9-4010-93B4-D8C61BED16DC";
paths = (
{
closed = 1;
nodes = (
"422 -10 OFFCURVE",
"477 58 OFFCURVE",
"477 258 CURVE SMOOTH",
"477 438 OFFCURVE",
"429 510 OFFCURVE",
"293 510 CURVE SMOOTH",
"242 510 OFFCURVE",
"181 491 OFFCURVE",
"149 476 CURVE",
"149 717 LINE",
"71 717 LINE",
"71 1 LINE",
"118 -4 OFFCURVE",
"196 -10 OFFCURVE",
"240 -10 CURVE SMOOTH"
);
},
{
closed = 1;
nodes = (
"220 60 OFFCURVE",
"177 62 OFFCURVE",
"149 65 CURVE",
"149 412 LINE",
"179 424 OFFCURVE",
"236 440 OFFCURVE",
"285 440 CURVE SMOOTH",
"371 440 OFFCURVE",
"397 385 OFFCURVE",
"397 258 CURVE SMOOTH",
"397 119 OFFCURVE",
"374 60 OFFCURVE",
"239 60 CURVE SMOOTH"
);
}
);
width = 526.94118;
},
{
layerId = "0DA49D7F-B466-4A74-9166-6D7870CD51D2";
paths = (
{
closed = 1;
nodes = (
"445 -13 OFFCURVE",
"514 49 OFFCURVE",
"552 244 CURVE SMOOTH",
"583 403 OFFCURVE",
"549 518 OFFCURVE",
"394 518 CURVE SMOOTH",
"373 518 OFFCURVE",
"324 511 OFFCURVE",
"294 504 CURVE",
"337 690 LINE",
"113 690 LINE",
"-12 11 LINE",
"60 1 OFFCURVE",
"176 -13 OFFCURVE",
"242 -13 CURVE SMOOTH"
);
},
{
closed = 1;
nodes = (
"247 168 OFFCURVE",
"235 169 OFFCURVE",
"229 170 CURVE",
"273 328 LINE",
"284 331 OFFCURVE",
"300 337 OFFCURVE",
"314 337 CURVE SMOOTH",
"337 337 OFFCURVE",
"343 330 OFFCURVE",
"332 273 CURVE SMOOTH",
"321 218 OFFCURVE",
"298 168 OFFCURVE",
"254 168 CURVE SMOOTH"
);
}
);
width = 569;
},
{
layerId = "3B241295-E7D1-482F-A49F-5B690F967CBA";
paths = (
{
closed = 1;
nodes = (
"374 -10 OFFCURVE",
"439 55 OFFCURVE",
"478 252 CURVE SMOOTH",
"513 435 OFFCURVE",
"477 510 OFFCURVE",
"339 510 CURVE SMOOTH",
"290 510 OFFCURVE",
"226 492 OFFCURVE",
"191 477 CURVE",
"240 717 LINE",
"162 717 LINE",
"26 1 LINE",
"72 -4 OFFCURVE",
"148 -10 OFFCURVE",
"195 -10 CURVE SMOOTH"
);
},
{
closed = 1;
nodes = (
"181 60 OFFCURVE",
"138 62 OFFCURVE",
"111 65 CURVE",
"183 411 LINE",
"215 423 OFFCURVE",
"276 440 OFFCURVE",
"327 440 CURVE SMOOTH",
"411 440 OFFCURVE",
"424 388 OFFCURVE",
"400 264 CURVE SMOOTH",
"373 122 OFFCURVE",
"335 60 OFFCURVE",
"197 60 CURVE SMOOTH"
);
}
);
width = 528;
},
{
layerId = "0474999B-FB68-4D9A-82B1-2286F2372C1D";
paths = (
{
closed = 1;
nodes = (
"363 -9 OFFCURVE",
"419 70 OFFCURVE",
"455 255 CURVE SMOOTH",
"489 429 OFFCURVE",
"470 509 OFFCURVE",
"332 509 CURVE SMOOTH",
"269 509 OFFCURVE",
"193 487 OFFCURVE",
"154 470 CURVE",
"206 730 LINE",
"171 730 LINE",
"30 0 LINE",
"64 -4 OFFCURVE",
"127 -9 OFFCURVE",
"179 -9 CURVE SMOOTH"
);
},
{
closed = 1;
nodes = (
"154 23 OFFCURVE",
"102 26 OFFCURVE",
"68 29 CURVE",
"150 436 LINE",
"189 453 OFFCURVE",
"265 477 OFFCURVE",
"331 477 CURVE SMOOTH",
"441 477 OFFCURVE",
"448 407 OFFCURVE",
"419 261 CURVE SMOOTH",
"388 98 OFFCURVE",
"347 23 OFFCURVE",
"179 23 CURVE SMOOTH"
);
}
);
width = 513;
},
{
layerId = "0E0E1207-0B3B-41BA-8E0C-9BB926F33A45";
paths = (
{
closed = 1;
nodes = (
"540 -13 OFFCURVE",
"595 67 OFFCURVE",
"554 278 CURVE SMOOTH",
"526 421 OFFCURVE",
"464 518 OFFCURVE",
"323 518 CURVE SMOOTH",
"288 518 OFFCURVE",
"242 507 OFFCURVE",
"216 500 CURVE",
"172 690 LINE",
"-52 690 LINE",
"74 9 LINE",
"150 -1 OFFCURVE",
"271 -13 OFFCURVE",
"323 -13 CURVE SMOOTH"
);
},
{
closed = 1;
nodes = (
"298 168 OFFCURVE",
"286 171 OFFCURVE",
"279 172 CURVE",
"235 332 LINE",
"242 334 OFFCURVE",
"253 336 OFFCURVE",
"259 337 CURVE SMOOTH",
"296 337 OFFCURVE",
"321 312 OFFCURVE",
"336 239 CURVE SMOOTH",
"343 200 OFFCURVE",
"349 168 OFFCURVE",
"319 168 CURVE SMOOTH"
);
}
);
width = 575;
},
{
layerId = "FB927515-0B4B-4E0F-9AFE-1C9AB9ADFFED";
paths = (
{
closed = 1;
nodes = (
"472 -10 OFFCURVE",
"515 61 OFFCURVE",
"476 264 CURVE SMOOTH",
"441 441 OFFCURVE",
"383 510 OFFCURVE",
"249 510 CURVE SMOOTH",
"196 510 OFFCURVE",
"138 490 OFFCURVE",
"109 475 CURVE",
"60 717 LINE",
"-18 717 LINE",
"118 1 LINE",
"166 -4 OFFCURVE",
"246 -10 OFFCURVE",
"287 -10 CURVE SMOOTH"
);
},
{
closed = 1;
nodes = (
"261 60 OFFCURVE",
"218 62 OFFCURVE",
"189 65 CURVE",
"117 413 LINE",
"144 425 OFFCURVE",
"198 440 OFFCURVE",
"245 440 CURVE SMOOTH",
"333 440 OFFCURVE",
"373 382 OFFCURVE",
"398 252 CURVE SMOOTH",
"425 116 OFFCURVE",
"415 60 OFFCURVE",
"283 60 CURVE SMOOTH"
);
}
);
width = 529;
},
{
layerId = "9F9B1D74-FF57-4B2A-AEB5-D743B154EFB7";
paths = (
{
closed = 1;
nodes = (
"464 -9 OFFCURVE",
"491 72 OFFCURVE",
"455 261 CURVE SMOOTH",
"421 431 OFFCURVE",
"373 509 OFFCURVE",
"239 509 CURVE SMOOTH",
"172 509 OFFCURVE",
"106 485 OFFCURVE",
"73 468 CURVE",
"21 730 LINE",
"-14 730 LINE",
"127 0 LINE",
"163 -4 OFFCURVE",
"228 -9 OFFCURVE",
"276 -9 CURVE SMOOTH"
);
},
{
closed = 1;
nodes = (
"247 23 OFFCURVE",
"193 26 OFFCURVE",
"159 29 CURVE",
"77 438 LINE",
"110 455 OFFCURVE",
"176 477 OFFCURVE",
"240 477 CURVE SMOOTH",
"352 477 OFFCURVE",
"390 405 OFFCURVE",
"419 255 CURVE SMOOTH",
"450 96 OFFCURVE",
"440 23 OFFCURVE",
"274 23 CURVE SMOOTH"
);
}
);
width = 516;
}
);
leftKerningGroup = b;
rightKerningGroup = b;
unicode = 0062;
},
{
color = 5;
glyphname = c;
layers = (
{
layerId = "459CA063-FA7D-4205-A795-7B6CE244EAAB";
paths = (
{
closed = 1;
nodes = (
"293 -9 OFFCURVE",
"351 -4 OFFCURVE",
"387 0 CURVE",
"385 32 LINE",
"350 28 OFFCURVE",
"293 23 OFFCURVE",
"265 23 CURVE SMOOTH",
"123 23 OFFCURVE",
"97 89 OFFCURVE",
"97 261 CURVE SMOOTH",
"97 419 OFFCURVE",
"137 477 OFFCURVE",
"265 477 CURVE SMOOTH",
"293 477 OFFCURVE",
"349 471 OFFCURVE",
"383 467 CURVE",
"385 499 LINE",
"350 503 OFFCURVE",
"293 509 OFFCURVE",
"265 509 CURVE SMOOTH",
"116 509 OFFCURVE",
"60 446 OFFCURVE",
"60 261 CURVE SMOOTH",
"60 60 OFFCURVE",
"98 -9 OFFCURVE",
"265 -9 CURVE SMOOTH"
);
}
);
width = 429;
},
{
layerId = "EA657207-4E15-4023-BA2A-6FA5407A60CD";
paths = (
{
closed = 1;
nodes = (
"330 -13 OFFCURVE",
"408 3 OFFCURVE",
"449 15 CURVE",
"442 190 LINE",
"397 187 OFFCURVE",
"327 183 OFFCURVE",
"299 183 CURVE SMOOTH",
"256 183 OFFCURVE",
"242 200 OFFCURVE",
"242 253 CURVE SMOOTH",
"242 305 OFFCURVE",
"257 323 OFFCURVE",
"299 323 CURVE SMOOTH",
"327 323 OFFCURVE",
"396 318 OFFCURVE",
"440 315 CURVE",
"447 492 LINE",
"402 503 OFFCURVE",
"322 518 OFFCURVE",
"266 518 CURVE SMOOTH",
"88 518 OFFCURVE",
"16 457 OFFCURVE",
"16 253 CURVE SMOOTH",
"16 62 OFFCURVE",
"70 -13 OFFCURVE",
"266 -13 CURVE SMOOTH"
);
}
);
width = 465;
},
{
layerId = "5E4DD32C-6BC9-4010-93B4-D8C61BED16DC";
paths = (
{
closed = 1;
nodes = (
"290 -10 OFFCURVE",
"356 -2 OFFCURVE",
"396 4 CURVE",
"394 68 LINE",
"359 65 OFFCURVE",
"303 60 OFFCURVE",
"275 60 CURVE SMOOTH",
"153 60 OFFCURVE",
"130 112 OFFCURVE",
"130 258 CURVE SMOOTH",
"130 391 OFFCURVE",
"161 440 OFFCURVE",
"275 440 CURVE SMOOTH",
"303 440 OFFCURVE",
"358 435 OFFCURVE",
"392 431 CURVE",
"395 495 LINE",
"356 501 OFFCURVE",
"292 510 OFFCURVE",
"258 510 CURVE SMOOTH",
"109 510 OFFCURVE",
"51 440 OFFCURVE",
"51 258 CURVE SMOOTH",
"51 63 OFFCURVE",
"98 -10 OFFCURVE",
"257 -10 CURVE SMOOTH"
);
}
);
width = 436.33333;
},
{
layerId = "0DA49D7F-B466-4A74-9166-6D7870CD51D2";
paths = (
{
closed = 1;
nodes = (
"286 -13 OFFCURVE",
"366 1 OFFCURVE",
"410 13 CURVE",
"424 191 LINE",
"378 188 OFFCURVE",
"308 183 OFFCURVE",
"273 183 CURVE SMOOTH",
"237 183 OFFCURVE",
"231 191 OFFCURVE",
"240 236 CURVE SMOOTH",
"251 296 OFFCURVE",
"278 323 OFFCURVE",
"327 323 CURVE SMOOTH",
"348 323 OFFCURVE",
"417 319 OFFCURVE",
"460 316 CURVE",
"487 490 LINE",
"445 501 OFFCURVE",
"368 518 OFFCURVE",
"305 518 CURVE SMOOTH",
"134 518 OFFCURVE",
"58 466 OFFCURVE",
"20 270 CURVE SMOOTH",
"-18 71 OFFCURVE",
"26 -13 OFFCURVE",
"229 -13 CURVE SMOOTH"
);
}
);
width = 472;
},
{
layerId = "3B241295-E7D1-482F-A49F-5B690F967CBA";
paths = (
{
closed = 1;
nodes = (
"242 -10 OFFCURVE",
"310 -2 OFFCURVE",
"351 4 CURVE",
"356 68 LINE",
"321 65 OFFCURVE",
"264 60 OFFCURVE",
"233 60 CURVE SMOOTH",
"114 60 OFFCURVE",
"103 109 OFFCURVE",
"131 252 CURVE SMOOTH",
"157 388 OFFCURVE",
"201 440 OFFCURVE",
"317 440 CURVE SMOOTH",
"343 440 OFFCURVE",
"397 435 OFFCURVE",
"430 431 CURVE",
"440 495 LINE",
"403 501 OFFCURVE",
"340 510 OFFCURVE",
"304 510 CURVE SMOOTH",
"157 510 OFFCURVE",
"89 443 OFFCURVE",
"54 264 CURVE SMOOTH",
"16 66 OFFCURVE",
"50 -10 OFFCURVE",
"212 -10 CURVE SMOOTH"
);
}
);
width = 447;
},
{
layerId = "0474999B-FB68-4D9A-82B1-2286F2372C1D";
paths = (
{
closed = 1;
nodes = (
"244 -9 OFFCURVE",
"303 -4 OFFCURVE",
"340 0 CURVE",
"342 32 LINE",
"306 28 OFFCURVE",
"248 23 OFFCURVE",
"219 23 CURVE SMOOTH",
"78 23 OFFCURVE",
"66 88 OFFCURVE",
"99 258 CURVE SMOOTH",
"130 418 OFFCURVE",
"183 477 OFFCURVE",
"312 477 CURVE SMOOTH",
"339 477 OFFCURVE",
"394 471 OFFCURVE",
"427 467 CURVE",
"433 499 LINE",
"398 503 OFFCURVE",
"343 509 OFFCURVE",
"313 509 CURVE SMOOTH",
"166 509 OFFCURVE",
"99 447 OFFCURVE",
"63 264 CURVE SMOOTH",
"24 61 OFFCURVE",
"49 -9 OFFCURVE",
"218 -9 CURVE SMOOTH"
);
}
);
width = 431;
},
{
layerId = "0E0E1207-0B3B-41BA-8E0C-9BB926F33A45";
paths = (
{
closed = 1;
nodes = (
"375 -13 OFFCURVE",
"450 5 OFFCURVE",
"488 17 CURVE",
"461 189 LINE",
"417 186 OFFCURVE",
"347 183 OFFCURVE",
"326 183 CURVE SMOOTH",
"276 183 OFFCURVE",
"251 209 OFFCURVE",
"239 270 CURVE SMOOTH",
"230 314 OFFCURVE",
"237 323 OFFCURVE",
"272 323 CURVE SMOOTH",
"307 323 OFFCURVE",
"377 317 OFFCURVE",
"421 314 CURVE",
"406 494 LINE",
"360 505 OFFCURVE",
"277 518 OFFCURVE",
"228 518 CURVE SMOOTH",
"43 518 OFFCURVE",
"-22 448 OFFCURVE",
"19 236 CURVE SMOOTH",
"55 53 OFFCURVE",
"115 -13 OFFCURVE",
"304 -13 CURVE SMOOTH"
);
}
);
width = 469;
},
{
layerId = "FB927515-0B4B-4E0F-9AFE-1C9AB9ADFFED";
paths = (
{
closed = 1;
nodes = (
"338 -10 OFFCURVE",
"402 -2 OFFCURVE",
"441 4 CURVE",
"432 68 LINE",
"397 65 OFFCURVE",
"342 60 OFFCURVE",
"317 60 CURVE SMOOTH",
"192 60 OFFCURVE",
"156 115 OFFCURVE",
"127 264 CURVE SMOOTH",
"102 394 OFFCURVE",
"121 440 OFFCURVE",
"233 440 CURVE SMOOTH",
"263 440 OFFCURVE",
"319 435 OFFCURVE",
"354 431 CURVE",
"349 495 LINE",
"309 501 OFFCURVE",
"244 510 OFFCURVE",
"212 510 CURVE SMOOTH",
"61 510 OFFCURVE",
"14 437 OFFCURVE",
"50 252 CURVE SMOOTH",
"88 60 OFFCURVE",
"146 -10 OFFCURVE",
"302 -10 CURVE SMOOTH"
);
}
);
width = 437;
},
{
layerId = "9F9B1D74-FF57-4B2A-AEB5-D743B154EFB7";
paths = (
{
closed = 1;
nodes = (
"342 -9 OFFCURVE",
"399 -4 OFFCURVE",
"434 0 CURVE",
"428 32 LINE",
"394 28 OFFCURVE",
"338 23 OFFCURVE",
"311 23 CURVE SMOOTH",
"168 23 OFFCURVE",
"128 90 OFFCURVE",
"94 264 CURVE SMOOTH",
"63 420 OFFCURVE",
"91 477 OFFCURVE",
"218 477 CURVE SMOOTH",
"247 477 OFFCURVE",
"304 471 OFFCURVE",
"339 467 CURVE",
"337 499 LINE",
"302 503 OFFCURVE",
"243 509 OFFCURVE",
"217 509 CURVE SMOOTH",
"66 509 OFFCURVE",
"22 445 OFFCURVE",
"58 258 CURVE SMOOTH",
"97 59 OFFCURVE",
"147 -9 OFFCURVE",
"312 -9 CURVE SMOOTH"
);
}
);
width = 426;
}
);
leftKerningGroup = o;
rightKerningGroup = c;
unicode = 0063;
},
